<svg xmlns="http://www.w3.org/2000/svg" width="621.878" height="634.565" viewBox="0 0 621.878 634.565">
  <g id="Group_21" data-name="Group 21" transform="matrix(0.656, -0.755, 0.755, 0.656, -174.378, 505.887)">
    <path id="Path_33" data-name="Path 33" d="M206.183,268.853l178.9-122.158,61.467-94.407,192,33.968,76.746,127.167-96.529,160.9L462.516,432.788,350.633,369.333Z" transform="translate(0 0)" fill="none" stroke="#322c47" stroke-linecap="round" stroke-linejoin="round" stroke-width="0.5"/>
    <path id="Path_34" data-name="Path 34" d="M374.632,52.288l122.963,126.75L458.2,327.978,390.6,432.788" transform="translate(71.916 0)" fill="none" stroke="#322c47" stroke-linecap="round" stroke-linejoin="round" stroke-width="0.5"/>
    <path id="Path_35" data-name="Path 35" d="M565.237,346.077l-88.652-46.345L346.27,222.789l-14.715-104.34" transform="translate(53.526 28.246)" fill="none" stroke="#322c47" stroke-linecap="round" stroke-linejoin="round" stroke-width="0.5"/>
    <path id="Path_36" data-name="Path 36" d="M206.183,258.69,399.8,240.872l169.715-72,69.035-92.782" transform="translate(0 10.163)" fill="none" stroke="#322c47" stroke-linecap="round" stroke-linejoin="round" stroke-width="0.5"/>
    <path id="Path_37" data-name="Path 37" d="M356.577,213.112l-49.164,118.3,179.479-41.355L672.073,175.5,526.292,141.115" transform="translate(43.219 37.923)" fill="none" stroke="#322c47" stroke-linecap="round" stroke-linejoin="round" stroke-width="0.5"/>
  </g>
</svg>