<svg version="1.1" id="Layer_1" class="svg_tiger" xmlns="http://www.w3.org/2000/svg" xmlns:xlink="http://www.w3.org/1999/xlink" x="0px" y="0px"
	 viewBox="0 0 2037.5 3066.2" style="enable-background:new 0 0 1537.5 1566.2;" xml:space="preserve" height="341.333px" width="268.8px">
<style type="text/css">
	.st0{fill:none;stroke:#5C6477;stroke-width:1;}
</style>
<path d="M660 1464 c-116 -31 -180 -95 -180 -181 0 -24 -5 -43 -10 -43 -6 0 -21 -11 -34 -23 -13 -13 -68 -42 -122 -64 -71 -28 -100 -45 -103 -59 -2 -10 -12 -25 -22 -32 -26 -18 -24 -55 5 -89 13 -15 26 -46 30 -68 10 -54 73 -114 146 -139 30 -10 81 -30 113 -43 46 -19 62 -21 78 -12 14 7 18 16 14 27 -4 9 -7 21 -8 26 -3 17 47 36 94 36 59 0 113 -34 200 -127 119 -127 157 -223 106 -271 -47 -44 -118 -22 -184 55 -27 32 -35 36 -50 27 -12 -8 -18 -23 -17 -47 1 -42 51 -149 91 -196 26 -31 35 -34 108 -42 116 -12 295 -10 334 4 30 11 41 26 95 133 34 66 70 132 81 146 34 43 180 223 185 228 3 3 22 26 43 53 21 26 52 54 68 63 16 8 27 18 25 23 -7 10 35 48 96 90 27 18 48 37 48 44 0 25 -31 56 -122 121 -51 36 -101 73 -111 80 -18 14 -18 17 7 80 14 35 26 80 26 99 0 42 -30 83 -67 90 -16 3 -104 -11 -197 -30 -149 -32 -174 -35 -210 -25 -269 78 -438 98 -556 66z m352 -71 l83 -27 -40 -7 c-76 -15 -208 -13 -247 4 -21 9 -38 20 -38 26 0 39 127 41 242 4z m-269 -47 l29 -11 -23 -29 c-54 -69 -157 -107 -193 -70 -35 34 -15 108 34 127 20 8 118 -2 153 -17z m834 -46 c-8 -59 -62 -140 -94 -140 -34 0 -243 70 -243 82 0 13 113 64 180 82 30 8 79 15 109 15 l54 1 -6 -40z m-447 -22 c-1 -52 -90 -156 -124 -145 -13 4 -86 98 -86 110 0 16 124 55 178 56 27 1 32 -3 32 -21z m-257 -75 c14 -16 33 -45 42 -66 15 -37 15 -38 -10 -63 -29 -29 -132 -77 -146 -68 -14 8 -49 81 -49 102 0 18 37 58 94 100 36 28 37 28 69 -5z m425 -93 c160 -42 156 -37 91 -105 l-55 -57 -115 -6 -115 -5 -22 49 -21 49 53 53 c30 28 58 52 63 52 4 0 59 -13 121 -30z m401 -48 l55 -55 -37 -33 c-20 -19 -45 -34 -55 -34 -16 0 -64 44 -116 107 -21 26 -13 45 29 73 36 23 49 17 124 -58z m-1132 -62 c7 -10 15 -37 19 -59 5 -33 3 -41 -14 -50 -41 -22 -120 -4 -157 37 -41 44 -30 62 52 81 62 15 87 13 100 -9z m995 -40 c40 -43 52 -95 24 -106 -8 -3 -18 -19 -21 -35 -4 -16 -17 -36 -29 -45 -13 -8 -33 -34 -45 -57 -12 -24 -46 -70 -76 -103 l-53 -59 -32 30 c-17 17 -41 45 -52 63 l-20 33 28 42 c65 100 207 277 221 277 9 0 33 -18 55 -40z m-472 -136 c28 -42 50 -84 50 -94 0 -9 -32 -45 -70 -80 -69 -61 -71 -62 -91 -44 -28 26 -79 105 -79 123 1 24 108 171 125 171 9 0 38 -34 65 -76z m159 -219 c29 -33 49 -80 39 -91 -3 -2 -36 -11 -74 -19 -88 -19 -174 -20 -174 -2 0 22 141 147 166 147 7 0 26 -16 43 -35z"/>
</svg>
