
<svg xmlns="http://www.w3.org/2000/svg" viewBox="0 0 152 152" height="535.371" width="535.371">
  <g id="svg-play">
	<path d="m 77.0001,151.9999 a 74.53,74.53 0 0 1 -29.193,-5.894 74.981,74.981 0 0 1 -12.74,-6.915 75.508,75.508 0 0 1 -11.1,-9.158 75.518,75.518 0 0 1 -9.158,-11.1 74.993,74.993 0 0 1 -6.915,-12.74 74.531,74.531 0 0 1 -5.894,-29.193 74.529,74.529 0 0 1 5.894,-29.193 74.981,74.981 0 0 1 6.915,-12.739 75.5,75.5 0 0 1 9.158,-11.1 75.543,75.543 0 0 1 11.1,-9.159 75.015,75.015 0 0 1 12.74,-6.915 74.526,74.526 0 0 1 29.193,-5.894 74.526,74.526 0 0 1 29.193,5.894 75.015,75.015 0 0 1 12.74,6.915 75.552,75.552 0 0 1 11.1,9.159 75.479,75.479 0 0 1 9.158,11.1 74.981,74.981 0 0 1 6.915,12.739 74.529,74.529 0 0 1 5.894,29.193 74.531,74.531 0 0 1 -5.894,29.194 74.993,74.993 0 0 1 -6.915,12.74 75.542,75.542 0 0 1 -9.158,11.1 75.517,75.517 0 0 1 -11.1,9.158 74.984,74.984 0 0 1 -12.74,6.915 74.53,74.53 0 0 1 -29.193,5.893 z M 66.0151,48.9929 a 6.116,6.116 0 0 0 -4.178,1.684 5.92,5.92 0 0 0 -1.837,4.323 v 45 a 5.918,5.918 0 0 0 1.836,4.326 6.114,6.114 0 0 0 4.178,1.684 5.97,5.97 0 0 0 3.235,-0.966 l 34.921,-22.5 a 5.977,5.977 0 0 0 2.75,-5.044 5.977,5.977 0 0 0 -2.75,-5.044 l -34.921,-22.5 a 5.965,5.965 0 0 0 -3.232,-0.966 z" fill="#ffffff" />
  </g>
</svg>