
<svg xmlns="http://www.w3.org/2000/svg" width="971.41" height="980.347" viewBox="0 0 971.41 980.347">
  <g id="Group_20955" data-name="Group 20955" transform="translate(-1127.254 -395.202) rotate(14)">
    <path id="Path_5205" data-name="Path 5205" d="M1424.706,185.839c-14.812,20.158-23.463,42.9-20.69,68.213,5.426,49.543,54.393,86.276,58.791,135.921,6.237,70.468-77.962,120.64-82.684,191.223-3.335,49.831,36.153,94.5,82.312,113.575,51.989,21.487,115.325,2.786,162.272,31.011,54.921,33.021,52.883,124.932,114.692,145.507,35.355,11.769,74.157-13.877,91.144-47.041s18.09-71.819,21.062-108.964c3.854-48.2,6.343-88.628,54.212-114.585,32.875-17.824,71.062-22.577,106.422-34.749,62.889-21.656,116.875-68.094,147.677-127.049,24.419-46.739,29.571-113.792-13.749-143.868-25.917-18-60.795-16.212-91.322-8.212-58.158,15.246-122.115,43.151-180.65,9.607-49.982-28.632-52-94.816-78.654-141.56-23.006-40.339-58.973-75.5-103.932-87.118-63.726-16.469-128.915,16.358-185.385,50.163C1476.481,135.72,1444.881,158.381,1424.706,185.839Z" transform="translate(0 0)" fill="none" stroke="#b9bfd8" stroke-linecap="round" stroke-linejoin="round" stroke-width="0.25"/>
    <path id="Path_5206" data-name="Path 5206" d="M1422.612,183.051c-13.94,19.131-22.152,40.671-19.866,64.572,3.184,33.456,26.78,61.046,41.641,91.211,5.962,12.079,10.515,24.57,11.786,38.022,6.263,66.645-71.433,114.7-71.238,180.814.075,25.079,10.325,46.792,24.181,68.306,13.465,20.92,31.626,38.058,54.393,49.047,45.8,22.121,103.37,8.766,148.28,29q3.768,1.694,7.411,3.712c53.689,29.806,55.367,110.878,115.232,130.744,34.049,11.3,70.818-10.533,87.889-39.493s20.206-63.159,24.685-97.633c5.311-40.583,7.973-77.17,40.082-103.1a107.383,107.383,0,0,1,10.91-7.729c29.217-18.152,62.894-24.26,94.7-37.411,56.63-23.414,107.427-69.551,138.428-125.747,12.774-23.148,22.409-50.186,22.958-76.829.532-29.155-10.847-57.188-35.294-72.293-25.819-15.95-58.77-13.948-88.013-5.519-47.837,13.8-99.321,36.777-149.187,22.993a111.041,111.041,0,0,1-24.433-10.01C1808.823,258.87,1804.544,196,1777.8,151.647c-22.812-37.823-57.472-70.543-100.451-81.329-61-15.295-123.409,15.233-177.222,47.532C1471.694,134.921,1441.787,156.683,1422.612,183.051Z" transform="translate(17.176 9.91)" fill="none" stroke="#b9bfd8" stroke-linecap="round" stroke-linejoin="round" stroke-width="0.25"/>
    <path id="Path_5207" data-name="Path 5207" d="M1420.833,180.264c-13.071,18.1-20.845,38.439-19.042,60.927,2.49,31.551,23.636,57.91,37.172,86.573,5.422,11.459,9.612,23.286,10.887,35.971,6.285,62.832-64.329,109.026-59.789,170.409,1.887,25.447,13.337,45.056,25.841,68.395,11.751,21.939,26.555,40.224,48.99,52.741,42.367,23.635,98.09,12.872,141.884,31.086q3.674,1.528,7.233,3.322c52.458,26.586,57.858,96.832,115.768,115.98,32.748,10.834,67.482-7.184,84.628-31.949s22.329-54.5,28.313-86.3c7.127-37.46,10.086-73.347,38.212-99.246a101.664,101.664,0,0,1,9.554-7.809c25.563-18.484,54.735-25.961,82.973-40.078,50.389-25.19,98.147-70.942,129.184-124.44,14.006-24.14,26-51.492,27.294-79.6,1.276-30.359-12.012-60.413-38.213-74.778-25.593-14.024-56.75-11.685-84.7-2.826-45.752,14.511-94.524,38.058-142.885,25.611A105.376,105.376,0,0,1,1840.424,275c-46.677-25.044-53.2-84.607-80.058-126.567-22.6-35.316-55.97-65.591-96.965-75.544-58.273-14.121-117.907,14.112-169.058,44.9C1467.222,134.118,1439.007,154.976,1420.833,180.264Z" transform="translate(34.038 19.82)" fill="none" stroke="#b9bfd8" stroke-linecap="round" stroke-linejoin="round" stroke-width="0.25"/>
    <path id="Path_5208" data-name="Path 5208" d="M1419.3,177.481c-12.2,17.075-19.534,36.2-18.214,57.286,1.8,29.646,20.486,54.761,32.694,81.931,4.885,10.834,8.722,22,10,33.921,6.312,59.013-56.6,103.511-48.334,160,3.8,25.952,16.393,43.262,27.5,68.492,10.086,22.887,21.461,42.292,43.582,56.422,39,24.9,92.806,16.987,135.487,33.176q3.575,1.355,7.056,2.932c51.222,23.37,60.338,82.782,116.3,101.217,31.445,10.365,64.143-3.836,81.373-24.4s24.446-45.836,31.936-74.977c8.938-34.346,12.211-69.551,36.343-95.4a100.909,100.909,0,0,1,8.2-7.893c21.965-18.75,46.588-27.666,71.251-42.735,44.161-26.984,89.006-72.271,119.936-123.138,15.281-25.124,29.659-52.8,31.622-82.37,2.1-31.569-13.084-63.7-41.127-77.263-25.252-12.216-54.73-9.426-81.395-.142-43.657,15.228-89.728,39.333-136.578,28.238a100.231,100.231,0,0,1-22.989-8.5c-45.021-23.246-53.777-79.513-80.757-119.072-22.373-32.809-54.469-60.639-93.479-69.755-55.554-12.947-112.4,12.987-160.895,42.27C1463,133.315,1436.48,153.274,1419.3,177.481Z" transform="translate(50.646 29.729)" fill="none" stroke="#b9bfd8" stroke-linecap="round" stroke-linejoin="round" stroke-width="0.25"/>
    <path id="Path_5209" data-name="Path 5209" d="M1417.985,174.7c-11.291,16.066-18.228,33.96-17.386,53.64,1.107,27.737,17.341,51.616,28.215,77.289,4.35,10.21,7.826,20.716,9.111,31.874,6.339,55.191-48.255,98.085-36.889,149.586,5.864,26.559,19.5,41.433,29.168,68.585,8.474,23.8,16.385,44.272,38.178,60.112,35.692,25.943,87.517,21.1,129.082,35.263q3.482,1.189,6.883,2.547c49.991,20.15,62.823,68.727,116.836,86.454,30.146,9.9,60.811-.492,78.122-16.854s26.51-37.19,35.56-63.647c10.692-31.25,14.325-65.786,34.474-91.552a102.7,102.7,0,0,1,6.848-7.977c18.333-19.073,38.443-29.389,59.527-45.4,37.951-28.809,79.982-73.529,110.691-121.832,16.584-26.08,33.253-54.1,35.954-85.138,2.848-32.778-14.09-67.066-44.056-79.752-24.827-10.511-52.7-7.158-78.081,2.56-41.57,15.937-84.93,40.609-130.27,30.86a94.966,94.966,0,0,1-22.267-7.756c-43.373-21.452-54.336-74.419-81.462-111.573-22.121-30.3-52.967-55.682-89.993-63.965-52.829-11.773-106.9,11.866-152.731,39.635C1459,132.517,1434.214,151.6,1417.985,174.7Z" transform="translate(67.042 39.639)" fill="none" stroke="#b9bfd8" stroke-linecap="round" stroke-linejoin="round" stroke-width="0.25"/>
    <path id="Path_5210" data-name="Path 5210" d="M1419.9,171.918c-10.418,15.038-16.925,31.724-16.57,50,.42,25.832,14.2,48.467,23.742,72.643,3.814,9.59,6.936,19.432,8.226,29.823,6.36,51.377-39.316,92.655-25.439,139.177,8.115,27.2,22.671,39.573,30.83,68.678,6.918,24.694,11.348,46.15,32.769,63.806,32.495,26.772,82.237,25.208,122.687,37.349q3.381,1.017,6.7,2.157c48.755,16.929,65.307,54.672,117.371,71.686,28.849,9.435,57.476,2.861,74.871-9.3s28.623-28.539,39.183-52.32c12.5-28.14,16.433-62.061,32.609-87.7,1.719-2.729,3.5-5.439,5.488-8.057,14.7-19.405,30.306-31.148,47.807-48.068,31.746-30.683,71.057-74.738,101.447-120.529,17.93-27.02,36.839-55.4,40.277-87.9,3.6-33.987-15.025-70.53-46.966-82.241-24.353-8.921-50.678-4.895-74.773,5.253-39.479,16.65-80.128,41.885-123.967,33.478a90.376,90.376,0,0,1-21.545-7c-41.72-19.653-54.867-69.334-82.162-104.078-21.846-27.812-51.469-50.73-86.511-58.181-50.106-10.6-101.39,10.746-144.563,37.008C1458.219,131.712,1435.133,149.912,1419.9,171.918Z" transform="translate(80.213 49.547)" fill="none" stroke="#b9bfd8" stroke-linecap="round" stroke-linejoin="round" stroke-width="0.25"/>
    <path id="Path_5211" data-name="Path 5211" d="M1422.656,169.129c-9.54,14.015-15.609,29.487-15.742,46.354-.27,23.928,11.052,45.326,19.264,68a132.31,132.31,0,0,1,7.339,27.786c6.383,47.554-29.854,87.136-13.993,128.764,10.6,27.817,25.9,37.694,32.494,68.771,5.417,25.576,6.383,47.922,27.369,67.491,29.411,27.431,76.948,29.323,116.272,39.44,2.206.567,4.381,1.152,6.53,1.772,47.527,13.7,67.8,40.618,117.911,56.918,27.547,8.97,54.137,6.21,71.611-1.75s30.744-19.893,42.81-40.994c14.312-25.035,18.516-58.371,30.74-83.854,1.316-2.755,2.645-5.488,4.133-8.15,11.065-19.742,22.156-32.924,36.087-50.726,25.518-32.6,62.211-75.894,92.2-119.227,19.33-27.928,40.423-56.71,44.609-90.671,4.34-35.2-15.907-74.122-49.884-84.726-23.826-7.433-48.653-2.631-71.469,7.942-37.389,17.363-75.326,43.165-117.65,36.1a85.68,85.68,0,0,1-20.828-6.245c-40.073-17.859-55.372-64.267-82.866-96.584-21.549-25.336-49.964-45.774-83.021-52.387-47.381-9.426-95.884,9.621-136.4,34.372C1458.286,130.912,1436.9,148.209,1422.656,169.129Z" transform="translate(92.535 59.458)" fill="none" stroke="#b9bfd8" stroke-linecap="round" stroke-linejoin="round" stroke-width="0.25"/>
    <path id="Path_5212" data-name="Path 5212" d="M1425.466,166.342c-8.669,12.987-14.267,27.259-14.914,42.717-.917,22.028,7.907,42.177,14.786,63.359a153.969,153.969,0,0,1,6.454,25.731c6.405,43.736-19.959,81.466-2.542,118.359,13.372,28.326,29.2,35.816,34.155,68.864,3.96,26.448,1.52,49.587,21.961,71.176,26.47,27.958,71.66,33.433,109.877,41.53,2.139.452,4.252.908,6.351,1.386,46.292,10.485,70.282,26.568,118.447,42.146,26.245,8.5,50.8,9.559,68.355,5.8s32.866-11.233,46.434-29.668c16.132-21.921,20.548-54.717,28.871-80,.912-2.782,1.785-5.537,2.781-8.23a348.978,348.978,0,0,1,24.362-53.388c19.255-34.594,53.436-77,82.954-117.925,20.774-28.8,44-58.017,48.941-93.443,5.072-36.405-16.76-77.856-52.808-87.207-23.281-6.046-46.624-.377-68.16,10.635-35.3,18.072-70.526,44.436-111.343,38.722a81,81,0,0,1-20.1-5.5c-38.421-16.061-55.846-59.217-83.57-89.08-21.23-22.878-48.467-40.826-79.54-46.6-44.662-8.252-90.378,8.5-128.237,31.741C1458.412,130.11,1438.71,146.507,1425.466,166.342Z" transform="translate(104.802 69.367)" fill="none" stroke="#b9bfd8" stroke-linecap="round" stroke-linejoin="round" stroke-width="0.25"/>
    <path id="Path_5213" data-name="Path 5213" d="M1428.377,163.561c-7.8,11.955-12.96,25.017-14.089,39.068-1.608,20.123,4.762,39.041,10.307,58.721a205.291,205.291,0,0,1,5.568,23.689c6.432,39.914-9.74,75.548,8.9,107.945,16.477,28.627,32.552,33.943,35.816,68.953,2.551,27.339-3.207,51.169,16.561,74.866,23.671,28.393,66.375,37.544,103.471,43.617,2.077.341,4.138.669,6.179,1,45.061,7.264,72.767,12.513,118.984,27.383,24.942,8.039,47.461,12.907,65.1,13.35s35-2.578,50.057-18.342c17.962-18.8,22.52-51.076,27-76.155.5-2.813.926-5.59,1.426-8.314,3.761-20.446,5.767-36.569,12.637-56.05,12.921-36.609,44.724-78.055,73.71-116.618,22.272-29.637,47.519-59.337,53.273-96.212,5.746-37.628-17.584-81.763-55.727-89.7-22.727-4.731-44.6,1.887-64.846,13.328-33.212,18.785-65.728,45.712-105.039,41.344a76.874,76.874,0,0,1-19.379-4.744c-36.773-14.263-56.285-54.2-84.27-81.59-20.885-20.437-46.965-35.865-76.053-40.808-41.938-7.078-84.878,7.375-120.077,29.11C1458.631,129.308,1440.62,144.8,1428.377,163.561Z" transform="translate(116.973 79.276)" fill="none" stroke="#b9bfd8" stroke-linecap="round" stroke-linejoin="round" stroke-width="0.25"/>
    <path id="Path_5214" data-name="Path 5214" d="M1431.491,160.775c-6.941,10.923-11.69,22.785-13.266,35.427-2.348,18.218,1.616,35.892,5.834,54.079,1.67,7.109,3.358,14.3,4.678,21.638,6.453,36.1.677,69.352,20.349,97.536,19.955,28.592,35.958,32.087,37.482,69.046,1.165,28.238-7.774,52.666,11.153,78.56,21.031,28.769,61.091,41.654,97.076,45.7q3.016.339,6,.611c43.83,4.048,75.256-1.537,119.524,12.619,23.639,7.57,44.125,16.252,61.843,20.894s37.132,6.095,53.68-7.012c19.794-15.676,24.424-47.426,25.133-72.306.08-2.839.062-5.634.071-8.4.08-20.8-2.494-38.394.921-58.712,6.485-38.616,36.051-79.065,64.462-115.32,23.826-30.408,51.1-60.639,57.6-98.971,6.493-38.842-18.409-85.851-58.646-92.19-22.187-3.49-42.58,4.155-61.539,16.021-31.121,19.507-60.931,47-98.732,43.971a73,73,0,0,1-18.656-3.991c-35.121-12.469-56.693-49.233-84.969-74.091-20.518-18.037-45.468-30.917-72.572-35.024-39.214-5.9-79.371,6.25-111.91,26.479C1459.051,128.511,1442.724,143.1,1431.491,160.775Z" transform="translate(128.941 89.184)" fill="none" stroke="#b9bfd8" stroke-linecap="round" stroke-linejoin="round" stroke-width="0.25"/>
    <path id="Path_5215" data-name="Path 5215" d="M1435,157.994a92.021,92.021,0,0,0-12.443,31.781c-3.034,16.314-1.524,32.747,1.36,49.437,1.134,6.485,2.467,13.009,3.787,19.591,6.48,32.277,11.162,62.787,31.8,87.122,23.8,28.069,39.4,30.249,39.143,69.148-.191,29.15-12.155,54.092,5.749,82.241,18.538,29.146,55.807,45.769,90.671,47.794,1.949.111,3.894.182,5.825.221,42.589.824,77.741-15.592,120.055-2.139,22.342,7.1,40.791,19.6,58.588,28.437s39.284,14.8,57.312,4.319c21.642-12.509,26.262-43.736,23.259-68.461-.345-2.861-.8-5.683-1.281-8.478-3.619-21.137-10.794-40.2-10.8-61.383-.022-40.574,27.423-80.022,55.213-114.009,25.457-31.126,54.69-61.946,61.928-101.748,7.242-40.046-19.246-90.134-61.56-94.67-21.673-2.321-40.552,6.418-58.229,18.714-29.031,20.216-56.13,48.272-92.425,46.593a69.247,69.247,0,0,1-17.935-3.242c-33.464-10.67-57.06-44.321-85.669-66.592a142.936,142.936,0,0,0-69.086-29.234c-36.489-4.731-73.869,5.129-103.746,23.844C1459.875,127.71,1445.191,141.366,1435,157.994Z" transform="translate(140.507 99.092)" fill="none" stroke="#b9bfd8" stroke-linecap="round" stroke-linejoin="round" stroke-width="0.25"/>
    <path id="Path_5216" data-name="Path 5216" d="M1424.715,228.152c3.535,34.554,20.017,69.086,46.15,94.254,27.981,26.935,42.881,28.428,40.809,69.236-1.529,30.085-16.336,55.483.341,85.931,16.185,29.558,50.522,49.88,84.274,49.88,43.48,0,84.04-30.382,126.24-17.071,21.04,6.635,37.455,22.949,55.332,35.994s41.4,23.454,60.936,15.64c23.458-9.386,28.078-39.98,21.39-64.612s-21.3-47.6-25.159-72.6c-6.569-42.469,18.816-80.943,45.968-112.711s58.274-63.252,66.26-104.512-20.132-94.63-64.483-97.155c-56.042-3.189-85.094,71.154-141.038,70.618-40.233-.385-69.582-38.563-103.587-61.587-64.722-43.816-162.01-26.306-198.7,35.759C1426.567,177.01,1422.1,202.581,1424.715,228.152Z" transform="translate(151.141 108.996)" fill="none" stroke="#b9bfd8" stroke-linecap="round" stroke-linejoin="round" stroke-width="0.25"/>
  </g>
</svg>
