<svg xmlns="http://www.w3.org/2000/svg" width="11594.83" height="11594.83" viewBox="0 0 1159.483 1159.483"><g transform="translate(1764.531 2936.702) rotate(-135)" opacity="0.302"><path d="M2479.685,814.682c.576-5.99-13.658-10.74-20.464-23.862-6.494-12.522,3.126-16.211-2.911-24.047-8.813-11.44-33.137-8.535-44.033-20.713-9.045-10.109,3.89-16.392-3.305-33.943-7.131-17.4-28.981-23.508-47.341-47.724a69.773,69.773,0,0,1-10.151-17.266c-4.472-11.251-2.307-15.11-5.884-22.7-4.686-9.95-15.022-17.382-25.49-19.74-13.376-3.012-30.006,1.576-37.257,11.845-18.714,26.505,29.135,85.1,20.589,91.792-9.515,7.449-67.548-66.14-89.218-54.286-8.984,4.914-11.045,24.161-6.683,39.48,16.8,59,124.92,37.206,160.083,106.39,12.165,23.934,9.725,47.2,35.821,78.185,14.2,16.857,31.407,29.542,37.255,25.662,7.531-4.994-8.334-34.441,2.071-42.6,3.494-2.74,8.019-.69,21.749,2.015,26.275,5.177,46.626,16.6,47.785,13.072,1.31-3.991-56.054-35.834-51.1-49.8C2463.569,819.76,2479.1,820.757,2479.685,814.682Z" transform="translate(58.024 130.833)" fill="none" stroke="#4a98c4" stroke-miterlimit="5" stroke-width="0.097"/><path d="M2345.741,621.171c3.891,7.223,2.592,11.207,7.715,22.683a75.192,75.192,0,0,0,11.493,17.886,96.309,96.309,0,0,0,15.678,15.321c11.923,9.14,21.689,13.09,28.879,21.265a30.593,30.593,0,0,1,5.12,7.946c7.78,17.759-4.546,25.136,4.57,36.16,2.791,3.374,6.421,5.681,10.241,7.741a67.4,67.4,0,0,0,9.953,4.13c3.135,1.1,6.068,2.164,9.1,3.357,5.7,2.246,11.462,4.7,14.589,9.031,5.773,8-3.733,11.578,2.34,24.157a32.241,32.241,0,0,0,1.92,3.427c6.868,10.645,18.231,15.18,17.572,20.744-.464,3.981-6.992,5.078-12.216,7.139-2.9,1.159-5.408,2.619-6.247,5.04-5.062,14.6,52.27,46.762,50.707,51.058-1.414,3.837-22.542-7.9-49.171-13.186-9.3-1.853-14.565-3.335-18.01-3.224a6.314,6.314,0,0,0-4.18,1.471c-9.382,7.956,4.169,34.2-.2,42.31a4.17,4.17,0,0,1-1.266,1.441c-6.1,4.319-24.052-7.813-38.541-24.764a128.018,128.018,0,0,1-18.457-28.889,166.114,166.114,0,0,1-7.887-19.775c-3.142-9.517-5.872-18.641-10.992-27.938-8.222-14.795-20.122-25.341-33.824-33.528-20.178-12.06-43.82-19.323-65.109-26.659-12.271-4.229-23.732-8.739-33.548-14.2-13.775-7.856-24.289-18.3-28.907-34.138q-.5-1.714-.905-3.478c-3.43-14.868-1.663-31.5,6.188-36.174a10.726,10.726,0,0,1,5.8-1.405c12.1.208,31.64,15.106,48.093,28.8,5.125,4.265,10.121,8.32,14.412,11.883,10.078,8.367,17.446,14.409,20.455,11.847,2.975-2.533-1.089-11.719-6.288-23.856-2.12-4.612-4.337-9.687-6.493-15.006-7.64-18.843-14.569-40.261-5.223-53.921,7.259-10.6,23.677-15.564,36.965-13.106C2330.471,604.689,2340.627,611.682,2345.741,621.171Z" transform="translate(57.483 129.792)" fill="none" stroke="#4a98c4" stroke-miterlimit="5.082" stroke-width="0.103"/><path d="M2345.9,617.939c4.219,6.872,3.776,10.963,9.548,22.664a81.649,81.649,0,0,0,12.832,18.505,87.408,87.408,0,0,0,17.158,15.362c12.712,8.312,21.495,9.948,29.17,17.782a29.3,29.3,0,0,1,5.69,8.2c8.321,17.977-3.358,26.444,5.831,38.373,2.849,3.7,6.544,6.237,10.21,8.7a58.981,58.981,0,0,0,9.674,5.009c3.083,1.353,5.642,2.669,8.631,4.111,5.665,2.735,12.091,5.37,15.216,9.982,5.523,8.151-3.884,11.632,1.768,24.267a32.182,32.182,0,0,0,1.8,3.448c6.487,10.691,17.507,15.346,16.721,21.034-.557,4.052-7.052,5.245-12.227,7.406-2.892,1.208-5.378,2.733-6.215,5.2-5.168,15.242,52.147,47.719,50.315,52.315-1.656,4.153-23.573-7.9-50.557-13.3-9.517-1.917-14.99-3.379-18.491-3.135a6.325,6.325,0,0,0-4.139,1.645c-9.082,8.312,5,34.81.42,43.406a4.5,4.5,0,0,1-1.282,1.5c-6.345,4.767-25.048-6.821-39.824-23.865-9.121-10.437-14.382-20.681-18.883-29.4a167.7,167.7,0,0,1-8.451-19.079c-3.278-8.992-6.172-17.667-11.517-26.54-8.52-14.141-20.852-24.271-34.914-32.351-20.894-12.008-44.848-20.047-65.961-27.822a211.381,211.381,0,0,1-33.451-15.239c-13.374-8.234-23.571-19.169-28.368-35.248q-.521-1.744-.957-3.535c-3.689-15.095-2.527-31.5,4.84-36.289a10.011,10.011,0,0,1,5.531-1.53c11.917-.092,32.648,14.436,49.131,27.373,5.147,4.039,10.225,7.741,14.308,11,9.8,7.82,16.385,13.849,19.327,11.127,2.863-2.646-.994-11.839-5.565-24.113-1.969-4.56-3.9-9.613-5.808-14.967-6.759-18.923-13.411-40.582-4.045-54.693,7.267-10.922,23.479-16.271,36.673-14.367A37.541,37.541,0,0,1,2345.9,617.939Z" transform="translate(56.923 128.729)" fill="none" stroke="#4a98c4" stroke-miterlimit="5.164" stroke-width="0.109"/><path d="M2346.089,614.728c4.559,6.541,4.957,10.72,11.38,22.644A88.989,88.989,0,0,0,2371.64,656.5c6.395,6.844,12.808,12.168,18.638,15.4,13.49,7.485,21.3,6.8,29.458,14.3a28.136,28.136,0,0,1,6.259,8.448c8.831,18.205-2.173,27.76,7.092,40.587,2.906,4.022,6.669,6.828,10.181,9.666,3.291,2.661,6.062,5,9.393,5.886,2.637,2.287,5.218,3.178,8.166,4.868,5.629,3.225,12.717,6.034,15.843,10.933,5.282,8.282-4.065,11.7,1.2,24.375a31.22,31.22,0,0,0,1.676,3.468c6.1,10.735,16.787,15.513,15.872,21.326-.649,4.122-7.109,5.422-12.24,7.674-2.88,1.264-5.348,2.848-6.18,5.352-5.273,15.882,52.011,48.675,49.922,53.573-1.905,4.468-24.6-7.9-51.945-13.416-9.731-1.979-15.415-3.425-18.97-3.048a6.348,6.348,0,0,0-4.1,1.818c-8.782,8.664,5.806,35.414,1.04,44.5a4.811,4.811,0,0,1-1.3,1.549c-6.594,5.221-26-5.872-41.11-22.967-9.356-10.584-14.527-21.244-19.311-29.911a178.04,178.04,0,0,1-9.011-18.386c-3.416-8.466-6.492-16.687-12.044-25.143-8.848-13.47-21.583-23.195-36.006-31.172-21.613-11.952-45.875-20.783-66.808-28.984A210.63,210.63,0,0,1,2234,740.919c-12.974-8.612-22.856-20.038-27.83-36.356-.363-1.182-.7-2.383-1.01-3.591-3.95-15.324-3.381-31.492,3.492-36.406a9.285,9.285,0,0,1,5.265-1.653c11.727-.393,33.632,13.747,50.166,25.941,5.167,3.811,10.33,7.16,14.2,10.112,9.531,7.262,15.321,13.291,18.2,10.407,2.75-2.755-.9-11.958-4.84-24.372-1.82-4.5-3.456-9.535-5.125-14.928-5.877-18.992-12.252-40.9-2.866-55.464,7.277-11.25,23.283-16.977,36.381-15.626C2330.336,600.045,2340.15,606.208,2346.089,614.728Z" transform="translate(56.341 127.646)" fill="none" stroke="#4a98c4" stroke-miterlimit="5.246" stroke-width="0.115"/><path d="M2346.3,611.541c4.914,6.226,6.138,10.476,13.211,22.624a97.346,97.346,0,0,0,15.511,19.747c6.985,7.1,13.924,12.548,20.119,15.443,14.26,6.659,21.113,3.661,29.747,10.815a27.255,27.255,0,0,1,6.828,8.7c9.315,18.441-.989,29.078,8.356,42.8,2.961,4.347,6.787,7.443,10.149,10.627,3.329,3.151,5.841,5.9,9.115,6.765,2.433,2.761,4.792,3.688,7.7,5.622,5.593,3.722,13.342,6.693,16.468,11.884,5.056,8.4-4.225,11.753.625,24.487a30.907,30.907,0,0,0,1.554,3.489c5.723,10.771,16.069,15.677,15.022,21.612-.74,4.194-7.167,5.6-12.253,7.944-2.866,1.318-5.317,2.961-6.146,5.506-5.376,16.523,51.873,49.63,49.528,54.831-2.156,4.781-25.638-7.9-53.33-13.531-9.95-2.041-15.838-3.471-19.452-2.96a6.368,6.368,0,0,0-4.058,1.992c-8.482,9.007,6.614,36.017,1.659,45.6a5.111,5.111,0,0,1-1.313,1.6c-6.841,5.68-26.981-4.891-42.394-22.067-9.613-10.714-14.672-21.806-19.737-30.422a198.382,198.382,0,0,1-9.576-17.692c-3.551-7.941-6.809-15.708-12.568-23.744-9.176-12.8-22.317-22.119-37.1-29.993-22.332-11.9-46.9-21.531-67.657-30.149a209.446,209.446,0,0,1-33.256-17.32,70.417,70.417,0,0,1-27.292-37.467q-.564-1.805-1.061-3.648c-4.211-15.551-4.227-31.485,2.143-36.52a8.563,8.563,0,0,1,5-1.777c11.537-.692,34.592,13.04,51.2,24.511,5.183,3.581,10.437,6.578,14.1,9.228,9.263,6.693,14.255,12.737,17.072,9.685,2.638-2.859-.807-12.076-4.116-24.63a155.364,155.364,0,0,1-4.444-14.89c-5-19.051-11.092-41.225-1.689-56.234,7.287-11.576,23.1-17.686,36.091-16.887C2330.308,597.756,2339.969,603.526,2346.3,611.541Z" transform="translate(55.738 126.539)" fill="none" stroke="#4a98c4" stroke-miterlimit="5.328" stroke-width="0.121"/><path d="M2346.524,608.378c5.288,5.927,7.322,10.233,15.044,22.608a106.329,106.329,0,0,0,16.852,20.365c7.574,7.357,15.036,12.934,21.6,15.483,15.027,5.837,20.926.52,30.036,7.333a26.52,26.52,0,0,1,7.4,8.949c9.778,18.687.189,30.4,9.618,45.017,3.015,4.675,6.895,8.081,10.117,11.589,3.362,3.66,5.62,6.79,8.836,7.644,2.231,3.235,4.368,4.2,7.236,6.377,5.556,4.222,13.968,7.347,17.094,12.837,4.84,8.507-4.386,11.807.054,24.6a30.369,30.369,0,0,0,1.431,3.509c5.339,10.809,15.351,15.844,14.172,21.9-.83,4.265-7.225,5.78-12.267,8.21-2.852,1.376-5.284,3.078-6.109,5.662-5.48,17.166,51.735,50.587,49.135,56.09-2.409,5.094-26.669-7.9-54.718-13.644-10.164-2.107-16.258-3.52-19.93-2.873a6.4,6.4,0,0,0-4.02,2.166c-8.182,9.341,7.424,36.619,2.281,46.693a5.477,5.477,0,0,1-1.329,1.658c-7.086,6.146-27.964-3.911-43.679-21.168-9.871-10.842-14.816-22.368-20.164-30.934-4.243-6.8-7.516-11.842-10.138-17-3.689-7.416-7.131-14.729-13.094-22.347-9.505-12.138-23.052-21.042-38.19-28.814-23.053-11.838-47.929-22.29-68.506-31.311a208.161,208.161,0,0,1-33.161-18.361,76.278,76.278,0,0,1-26.753-38.575q-.586-1.835-1.114-3.706c-4.471-15.779-5.058-31.48.8-36.635a7.844,7.844,0,0,1,4.732-1.9c11.346-.99,35.528,12.317,52.236,23.082,5.2,3.347,10.54,5.991,14,8.343,9,6.114,13.191,12.189,15.946,8.966,2.529-2.958-.713-12.2-3.391-24.889a131.337,131.337,0,0,1-3.761-14.849c-4.117-19.1-9.933-41.548-.51-57.008,7.3-11.9,22.915-17.786,35.8-18.146C2330.306,595.011,2339.833,600.88,2346.524,608.378Z" transform="translate(55.111 125.406)" fill="none" stroke="#4a98c4" stroke-miterlimit="5.41" stroke-width="0.127"/><path d="M2346.778,605.266c5.679,5.641,8.5,9.991,16.875,22.588a116.354,116.354,0,0,0,18.192,20.984c8.163,7.616,16.147,13.319,23.077,15.523,15.783,5.021,20.74-2.622,30.324,3.852a25.929,25.929,0,0,1,7.969,9.2c10.226,18.938,1.366,31.724,10.882,47.231,3.069,5,6.994,8.735,10.087,12.552,3.386,4.183,5.4,7.684,8.556,8.521,2.028,3.712,3.942,4.713,6.77,7.134,5.522,4.724,14.6,7.994,17.72,13.788,4.636,8.6-4.545,11.86-.518,24.7a30.09,30.09,0,0,0,1.31,3.53c4.957,10.84,14.632,16.01,13.323,22.193-.92,4.337-7.284,5.96-12.28,8.48-2.84,1.432-5.254,3.193-6.077,5.816-5.578,17.807,51.6,51.542,48.743,57.348-2.66,5.408-27.7-7.9-56.1-13.759-10.38-2.169-16.678-3.57-20.41-2.786a6.44,6.44,0,0,0-3.981,2.342c-7.884,9.671,8.229,37.219,2.9,47.788a5.816,5.816,0,0,1-1.343,1.712c-7.329,6.615-28.948-2.93-44.963-20.27-10.131-10.969-14.957-22.929-20.59-31.444-4.451-6.732-7.948-11.433-10.7-16.3-3.825-6.89-7.452-13.752-13.619-20.949-9.837-11.478-23.79-19.963-39.28-27.635-23.78-11.779-48.959-23.062-69.354-32.475a206.3,206.3,0,0,1-33.065-19.4c-11.771-9.743-20.709-22.645-26.215-39.683-.405-1.243-.793-2.5-1.166-3.761-4.73-16.006-5.878-31.482-.553-36.752a7.145,7.145,0,0,1,4.467-2.026c11.152-1.289,36.435,11.578,53.271,21.652,5.2,3.112,10.643,5.4,13.9,7.457,8.734,5.519,12.125,11.647,14.819,8.246,2.419-3.053-.62-12.316-2.666-25.146A113.816,113.816,0,0,1,2284,670.7c-3.245-19.138-8.776-41.867.667-57.779,7.3-12.227,22.77-18.389,35.507-19.407C2330.306,592.706,2339.749,598.286,2346.778,605.266Z" transform="translate(54.46 124.223)" fill="none" stroke="#4a98c4" stroke-miterlimit="5.492" stroke-width="0.133"/><path d="M2347.055,602.123c6.095,5.362,9.686,9.746,18.709,22.568A127.257,127.257,0,0,0,2385.3,646.3c8.749,7.875,17.258,13.706,24.557,15.562,16.538,4.207,20.557-5.767,30.613.367a25.534,25.534,0,0,1,8.54,9.453c10.66,19.194,2.539,33.051,12.142,49.446,3.124,5.331,7.086,9.4,10.057,13.513,3.406,4.716,5.175,8.577,8.277,9.4,1.824,4.186,3.515,5.229,6.306,7.888,5.484,5.231,15.224,8.638,18.344,14.739,4.442,8.687-4.706,11.916-1.089,24.813a29.548,29.548,0,0,0,1.188,3.551c4.574,10.868,13.916,16.175,12.473,22.483-1.01,4.407-7.341,6.141-12.293,8.747-2.827,1.487-5.223,3.307-6.042,5.972-5.676,18.45,51.459,52.5,48.349,58.605-2.913,5.719-28.733-7.9-57.491-13.873-10.6-2.233-17.1-3.622-20.891-2.7a6.482,6.482,0,0,0-3.94,2.515c-7.589,9.992,9.036,37.819,3.519,48.884a6.19,6.19,0,0,1-1.357,1.766c-7.572,7.089-29.936-1.948-46.247-19.371-10.39-11.1-15.1-23.49-21.018-31.956-4.66-6.667-8.38-11.022-11.264-15.608-3.963-6.365-7.777-12.776-14.146-19.552-10.173-10.815-24.527-18.881-40.372-26.456-24.506-11.715-49.984-23.842-70.2-33.638a204.489,204.489,0,0,1-32.966-20.442c-11.369-10.122-19.994-23.516-25.677-40.793q-.627-1.894-1.217-3.819c-4.993-16.234-6.688-31.49-1.9-36.866a6.468,6.468,0,0,1,4.2-2.15c10.958-1.587,37.314,10.822,54.308,20.22,5.2,2.876,10.741,4.806,13.795,6.572,8.47,4.9,11.058,11.107,13.691,7.526,2.312-3.143-.526-12.434-1.943-25.405-1.222-4.288-1.7-9.19-2.394-14.772-2.375-19.166-7.616-42.189,1.846-58.55,7.312-12.553,22.559-19.822,35.216-20.668C2330.393,591.028,2339.715,595.662,2347.055,602.123Z" transform="translate(53.784 123.073)" fill="none" stroke="#4a98c4" stroke-miterlimit="5.574" stroke-width="0.139"/><path d="M2347.361,599.027c6.528,5.091,10.894,9.484,20.54,22.55a140.525,140.525,0,0,0,20.873,22.226c9.333,8.136,18.365,14.1,26.035,15.6,17.29,3.4,20.376-8.912,30.9-3.115a25.244,25.244,0,0,1,9.109,9.7c11.084,19.456,3.709,34.379,13.4,51.66,3.176,5.66,7.166,10.073,10.025,14.475,3.414,5.257,4.954,9.471,8,10.279,1.623,4.662,3.089,5.744,5.84,8.643,5.447,5.74,15.855,9.277,18.971,15.692,4.255,8.764-4.867,11.968-1.661,24.923a30.188,30.188,0,0,0,1.066,3.571c4.193,10.891,13.2,16.341,11.622,22.772-1.1,4.48-7.4,6.321-12.306,9.017-2.814,1.544-5.188,3.423-6.007,6.127-5.774,19.092,51.322,53.448,47.956,59.863-3.167,6.032-29.765-7.9-58.876-13.988-10.814-2.3-17.519-3.674-21.372-2.609a6.52,6.52,0,0,0-3.9,2.689c-7.295,10.309,9.841,38.419,4.138,49.979a6.614,6.614,0,0,1-1.372,1.822c-7.812,7.564-30.924-.967-47.532-18.474-10.65-11.225-15.241-24.052-21.444-32.466-4.868-6.6-8.813-10.614-11.828-14.914-4.1-5.841-8.1-11.8-14.67-18.153-10.51-10.159-25.267-17.8-41.464-25.279-25.234-11.652-51.01-24.633-71.052-34.8-13.12-6.657-23.795-14.444-32.871-21.483-10.968-10.5-19.277-24.385-25.138-41.9q-.649-1.926-1.269-3.876c-5.252-16.462-7.485-31.511-3.25-36.981a5.836,5.836,0,0,1,3.934-2.274c10.76-1.882,38.158,10.053,55.342,18.791,5.194,2.642,10.836,4.2,13.692,5.686,8.209,4.267,9.994,10.571,12.566,6.806,2.206-3.229-.434-12.553-1.22-25.662-1.072-4.235-1.267-9.1-1.712-14.733-1.514-19.186-6.457-42.512,3.023-59.322,7.323-12.881,22.39-20.542,34.925-21.929C2330.479,588.826,2339.735,593.081,2347.361,599.027Z" transform="translate(53.081 121.873)" fill="none" stroke="#4a98c4" stroke-miterlimit="5.656" stroke-width="0.145"/><path d="M2347.694,595.954c6.981,4.817,12.075,9.238,22.372,22.531a153.537,153.537,0,0,0,22.212,22.846c9.92,8.4,19.471,14.488,27.516,15.644,18.038,2.592,20.195-12.058,31.191-6.6,3.114,1.544,6.721,4.881,9.678,9.955,11.5,19.722,4.88,35.707,14.669,53.873,3.227,5.99,7.238,10.751,9.992,15.438,3.414,5.8,4.732,10.364,7.719,11.156,1.42,5.137,2.663,6.264,5.375,9.4,5.407,6.252,16.49,9.914,19.6,16.643,4.078,8.838-5.026,12.021-2.233,25.033a29.918,29.918,0,0,0,.944,3.592c3.813,10.912,12.483,16.507,10.772,23.062-1.187,4.55-7.456,6.5-12.319,9.284-2.8,1.6-5.157,3.539-5.971,6.282-5.87,19.738,51.182,54.4,47.562,61.122-3.418,6.344-30.8-7.9-60.263-14.1-11.03-2.358-17.937-3.729-21.851-2.522a6.589,6.589,0,0,0-3.861,2.863c-7.006,10.622,10.645,39.021,4.758,51.076a7.057,7.057,0,0,1-1.388,1.876c-8.048,8.044-31.912.015-48.817-17.576-10.91-11.351-15.38-24.613-21.87-32.977-5.075-6.537-9.246-10.2-12.391-14.219-4.235-5.314-8.429-10.828-15.2-16.754-10.851-9.5-26.009-16.716-42.556-24.1-25.964-11.586-52.033-25.433-71.9-35.965-13.245-7.023-23.8-15.259-32.772-22.524-10.568-10.876-18.563-25.254-24.6-43.009q-.672-1.958-1.322-3.934c-5.513-16.69-8.273-31.551-4.6-37.1a5.244,5.244,0,0,1,3.667-2.4c10.563-2.179,38.972,9.271,56.378,17.359,5.182,2.407,10.925,3.6,13.588,4.8,7.945,3.6,8.93,10.04,11.44,6.087,2.1-3.312-.341-12.673-.5-25.922-.923-4.18-.833-9-1.03-14.693-.661-19.2-5.3-42.833,4.2-60.092,7.331-13.208,22.223-21.267,34.633-23.19C2330.6,586.643,2339.806,590.514,2347.694,595.954Z" transform="translate(52.352 120.65)" fill="none" stroke="#4a98c4" stroke-miterlimit="5.738" stroke-width="0.152"/><path d="M2348.055,592.967c8.155,3.12,13.258,8.994,24.205,22.513a167.551,167.551,0,0,0,23.551,23.464c10.505,8.659,20.577,14.882,29,15.685,18.786,1.792,20.016-15.2,31.48-10.082,3.257,1.456,7.081,4.886,10.248,10.205,11.906,19.993,6.046,37.039,15.93,56.09,3.277,6.318,7.3,11.43,9.962,16.4,3.4,6.357,4.509,11.258,7.44,12.035,1.218,5.611,2.235,6.782,4.909,10.155,5.366,6.764,17.126,10.544,20.224,17.594,3.909,8.9-5.185,12.071-2.8,25.141a29.828,29.828,0,0,0,.822,3.614c3.435,10.927,11.766,16.672,9.923,23.351-1.277,4.622-7.515,6.685-12.332,9.553-2.79,1.659-5.124,3.655-5.939,6.437-5.964,20.383,51.043,55.359,47.17,62.38-3.673,6.657-31.828-7.9-61.65-14.216-11.245-2.423-18.356-3.786-22.331-2.435a6.647,6.647,0,0,0-3.82,3.037c-6.72,10.927,11.448,39.621,5.376,52.171a7.378,7.378,0,0,1-1.4,1.93c-8.281,8.526-32.9,1-50.1-16.677-11.171-11.479-15.518-25.175-22.3-33.487-5.278-6.473-9.676-9.794-12.954-13.524-4.371-4.791-8.759-9.856-15.72-15.359-11.2-8.846-26.75-15.631-43.649-22.921-26.7-11.517-53.055-26.243-72.749-37.129-13.373-7.39-23.812-16.074-32.675-23.562-10.168-11.255-17.847-26.125-24.062-44.119q-.694-1.987-1.374-3.991c-5.772-16.918-9.059-31.608-5.948-37.212a4.723,4.723,0,0,1,3.4-2.522c10.361-2.471,38.668,11.917,57.413,15.93,4.662,3.1,11,2.979,13.487,3.915,7.67,2.9,7.867,9.51,10.312,5.367,2-3.393-.248-12.791.23-26.179-.774-4.127-.4-8.9-.346-14.656.184-19.2-4.138-43.153,5.38-60.863,7.339-13.534,22.059-22,34.342-24.451C2330.746,584.539,2340.96,586.633,2348.055,592.967Z" transform="translate(51.594 119.344)" fill="none" stroke="#4a98c4" stroke-miterlimit="5.82" stroke-width="0.158"/><path d="M2348.606,589.976c8.614,2.673,14.443,8.748,26.038,22.493a182.869,182.869,0,0,0,24.891,24.085c11.091,8.92,21.685,15.275,30.475,15.724,19.533,1,19.839-18.354,31.771-13.565,3.4,1.364,7.438,4.891,10.817,10.456,12.307,20.266,7.212,38.37,17.192,58.3,3.329,6.649,7.364,12.114,9.932,17.361,3.383,6.911,4.288,12.152,7.161,12.914,1.015,6.086,1.805,7.3,4.445,10.909,5.322,7.277,17.766,11.174,20.849,18.545,3.748,8.964-5.344,12.124-3.377,25.251a30.381,30.381,0,0,0,.7,3.635c3.058,10.94,11.052,16.838,9.073,23.641-1.364,4.693-7.573,6.867-12.344,9.82-2.776,1.717-5.091,3.771-5.9,6.593-6.057,21.027,50.9,56.311,46.777,63.637-3.926,6.969-32.859-7.9-63.036-14.331-11.463-2.486-18.776-3.843-22.811-2.346a6.719,6.719,0,0,0-3.781,3.21c-6.436,11.229,12.25,40.22,6,53.267a7.809,7.809,0,0,1-1.418,1.984c-8.515,9.013-33.89,1.984-51.385-15.779-11.432-11.605-15.654-25.736-22.725-34-5.483-6.41-10.108-9.386-13.516-12.831-4.509-4.266-9.091-8.884-16.247-13.96-11.545-8.192-27.492-14.546-44.739-21.742-27.43-11.448-54.077-27.061-73.6-38.293-13.5-7.764-23.822-16.889-32.579-24.6-9.766-11.632-17.132-26.994-23.523-45.227q-.716-2.019-1.425-4.048c-6.033-17.145-10.859-32.27-7.3-37.327.308-1.272,1.247-2.132,3.137-2.646,10.159-2.761,39.471,11.534,58.448,14.5,4.617,2.964,10.979,2.806,13.382,3.032,6.834,3.512,6.807,8.982,9.186,4.645,1.9-3.47-.154-12.911.954-26.438-.625-4.071.027-8.8.336-14.614,1.018-19.2-2.979-43.476,6.559-61.635,7.348-13.86,21.9-22.731,34.05-25.712C2331.089,582.429,2341.271,584,2348.606,589.976Z" transform="translate(50.644 118.04)" fill="none" stroke="#4a98c4" stroke-miterlimit="5.902" stroke-width="0.164"/><path d="M2349.032,587.016c9.069,2.227,15.624,8.5,27.869,22.475a198.855,198.855,0,0,0,26.232,24.705c11.673,9.182,22.8,15.336,31.954,15.766,20.26.949,19.662-21.5,32.059-17.048,3.544,1.273,7.793,4.9,11.388,10.707,12.7,20.543,8.374,39.7,18.453,60.519,3.379,6.977,7.417,12.8,9.9,18.322,3.356,7.469,4.067,13.045,6.882,13.793.814,6.56,1.376,7.82,3.98,11.663,5.278,7.793,18.409,11.8,21.474,19.5,3.593,9.02-5.5,12.173-3.947,25.361a30.264,30.264,0,0,0,.577,3.655c2.685,10.948,10.336,17,8.224,23.929-1.453,4.766-7.63,7.051-12.359,10.089-2.762,1.776-5.056,3.888-5.868,6.747-6.149,21.673,50.765,57.267,46.384,64.9-4.18,7.28-33.892-7.9-64.423-14.445-11.677-2.55-19.194-3.9-23.29-2.258a6.792,6.792,0,0,0-3.741,3.384c-6.157,11.525,13.052,40.818,6.616,54.362a8.263,8.263,0,0,1-1.434,2.038c-8.745,9.5-34.88,2.968-52.671-14.88-11.694-11.73-15.792-26.3-23.15-34.509-5.686-6.344-10.541-8.974-14.08-12.135a163.206,163.206,0,0,0-16.772-12.562c-11.9-7.536-28.236-13.458-45.832-20.565-28.163-11.375-55.094-27.888-74.448-39.456-13.624-8.143-23.831-17.7-32.482-25.643-9.366-12.011-16.417-27.863-22.985-46.337q-.735-2.049-1.478-4.1c-6.293-17.374-11.776-32.341-8.644-37.444.174-1.3,1.008-2.2,2.869-2.769,9.958-3.053,40.279,11.148,59.484,13.068,4.575,2.827,11.068,2.251,13.28,2.146,6.516,3.022,5.749,8.459,8.059,3.924,1.8-3.544-.061-13.029,1.677-26.694-.474-4.019.456-8.7,1.02-14.577,1.844-19.192-1.82-43.8,7.736-62.406,7.357-14.186,21.739-23.472,33.761-26.973C2331.307,580.347,2341.456,581.4,2349.032,587.016Z" transform="translate(49.821 116.704)" fill="none" stroke="#4a98c4" stroke-miterlimit="5.984" stroke-width="0.17"/><path d="M2349.479,584.089c9.527,1.779,16.805,8.259,29.7,22.455a216.466,216.466,0,0,0,27.571,25.325c12.259,9.446,23.9,16.07,33.435,15.806,21.027-.585,19.484-24.656,32.347-20.532,3.686,1.182,8.15,4.9,11.957,10.96,13.094,20.822,9.538,41.035,19.717,62.732,3.428,7.308,7.467,13.481,9.87,19.286,3.32,8.026,3.843,13.937,6.6,14.669.61,7.037.945,8.341,3.514,12.42,5.233,8.307,19.053,12.424,22.1,20.448,3.444,9.072-5.66,12.222-4.519,25.469a30.482,30.482,0,0,0,.456,3.676c2.316,10.955,9.62,17.169,7.374,24.22-1.541,4.837-7.688,7.233-12.372,10.356-2.75,1.833-5.024,4-5.834,6.9-6.24,22.319,50.624,58.22,45.99,66.154-4.433,7.593-34.924-7.9-65.808-14.56-11.9-2.612-19.614-3.962-23.772-2.171a6.89,6.89,0,0,0-3.7,3.56c-5.88,11.82,13.855,41.417,7.238,55.457a8.67,8.67,0,0,1-1.45,2.092c-8.972,9.991-35.871,3.955-53.955-13.98-11.955-11.858-15.927-26.863-23.577-35.02-5.889-6.282-10.974-8.566-14.642-11.442-4.783-3.215-9.764-6.934-17.3-11.165-12.254-6.878-28.979-12.368-46.923-19.386-28.9-11.3-56.109-28.721-75.3-40.616-13.748-8.526-23.839-18.52-32.384-26.686-8.966-12.388-15.7-28.732-22.448-47.446-.5-1.385-1.013-2.776-1.53-4.161-6.553-17.6-12.691-32.41-9.992-37.558.038-1.326.773-2.266,2.6-2.894,9.752-3.34,41.083,10.764,60.519,11.638,4.53,2.689,11.155,1.7,13.178,1.261,6.2,2.532,4.692,7.938,6.931,3.2,1.712-3.617.032-13.148,2.4-26.953-.324-3.963.879-8.6,1.7-14.537,2.66-19.182-.7-44.138,8.915-63.177,7.337-14.529,21.582-24.218,33.469-28.234C2331.547,578.293,2341.662,578.839,2349.479,584.089Z" transform="translate(48.978 115.337)" fill="none" stroke="#4a98c4" stroke-miterlimit="6.066" stroke-width="0.176"/><path d="M2349.942,581.193c9.985,1.333,17.989,8.015,31.534,22.436a235.065,235.065,0,0,0,28.911,25.946c12.841,9.708,25,16.469,34.913,15.844,21.777-1.371,19.309-27.806,32.638-24.013,3.831,1.089,8.5,4.911,12.526,11.21,13.483,21.1,10.7,42.368,20.98,64.946,3.478,7.639,7.513,14.167,9.838,20.247,3.281,8.585,3.622,14.832,6.323,15.549.406,7.511.515,8.861,3.05,13.175,5.185,8.825,19.7,13.045,22.726,21.4,3.3,9.123-5.818,12.273-5.09,25.579a31.224,31.224,0,0,0,.332,3.7c1.948,10.956,8.907,17.335,6.525,24.51-1.628,4.908-7.745,7.416-12.383,10.623-2.736,1.892-4.989,4.119-5.8,7.059-6.329,22.965,50.483,59.173,45.6,67.412-4.688,7.9-35.955-7.9-67.195-14.675-12.111-2.676-20.032-4.022-24.251-2.082a6.98,6.98,0,0,0-3.663,3.732c-5.608,12.112,14.655,42.015,7.856,56.554a9.186,9.186,0,0,1-1.463,2.146c-9.2,10.484-36.863,4.94-55.241-13.081-12.218-11.983-16.061-27.427-24-35.532-6.093-6.216-11.406-8.154-15.206-10.746-4.919-2.689-10.1-5.96-17.825-9.766-12.615-6.221-29.722-11.279-48.013-18.207-29.634-11.225-57.121-29.562-76.145-41.78-13.873-8.913-23.848-19.335-32.288-27.727-8.564-12.765-14.985-29.6-21.908-48.554-.52-1.405-1.046-2.815-1.581-4.219-6.814-17.828-13.608-32.479-11.342-37.673-.1-1.354.535-2.333,2.337-3.017,9.549-3.625,41.89,10.378,61.555,10.207,4.487,2.55,11.244,1.143,13.075.376,5.875,2.042,3.638,7.419,5.8,2.484,1.62-3.689.126-13.267,3.127-27.21-.174-3.911,1.3-8.492,2.386-14.5,3.463-19.171.456-44.461,10.092-63.949,7.345-14.855,21.424-24.969,33.178-29.493C2331.805,576.265,2341.885,576.3,2349.942,581.193Z" transform="translate(48.116 113.939)" fill="none" stroke="#4a98c4" stroke-miterlimit="6.148" stroke-width="0.182"/><path d="M2350.424,578.326c10.444.885,19.171,7.769,33.366,22.416a255.162,255.162,0,0,0,30.25,26.566c13.426,9.972,26.109,16.871,36.395,15.885,22.526-2.156,19.132-30.961,32.927-27.5,3.973,1,8.854,4.921,13.1,11.461,13.865,21.389,11.86,43.7,22.24,67.163,3.528,7.969,7.558,14.849,9.807,21.209,3.233,9.143,3.4,15.725,6.043,16.426.2,7.985.082,9.381,2.585,13.929,5.137,9.341,20.354,13.665,23.352,22.352,3.163,9.171-5.973,12.32-5.662,25.687a31.025,31.025,0,0,0,.212,3.719c1.582,10.956,8.19,17.5,5.673,24.8-1.717,4.98-7.8,7.6-12.4,10.892-2.724,1.951-4.955,4.235-5.765,7.215-6.416,23.611,50.345,60.127,45.2,68.67-4.942,8.216-36.988-7.9-68.581-14.788-12.329-2.74-20.454-4.086-24.733-2a7.078,7.078,0,0,0-3.622,3.906c-5.339,12.4,15.456,42.614,8.476,57.649a9.584,9.584,0,0,1-1.479,2.2c-9.42,10.978-37.855,5.927-56.525-12.183-12.481-12.107-16.194-27.989-24.429-36.042-6.295-6.154-11.838-7.746-15.769-10.053-5.057-2.164-10.446-4.983-18.35-8.369-12.981-5.56-30.468-10.187-49.1-17.028-30.37-11.148-58.133-30.408-76.995-42.945-14-9.3-23.859-20.148-32.191-28.765-8.163-13.142-14.271-30.472-21.37-49.664-.533-1.426-1.077-2.855-1.633-4.275-7.075-18.058-14.523-32.551-12.689-37.789-.231-1.381.3-2.4,2.071-3.142,9.343-3.909,42.7,9.994,62.59,8.777,4.444,2.412,11.33.59,12.971-.51,5.555,1.551,2.589,6.9,4.678,1.764,1.529-3.76.22-13.386,3.851-27.468-.026-3.858,1.719-8.388,3.068-14.46,4.26-19.158,1.615-44.781,11.271-64.72,7.352-15.182,21.265-25.727,32.885-30.754C2332.081,574.263,2342.126,573.8,2350.424,578.326Z" transform="translate(47.237 112.511)" fill="none" stroke="#4a98c4" stroke-miterlimit="6.23" stroke-width="0.188"/><path d="M2350.923,575.486c10.9.439,20.351,7.526,35.2,22.4a276.692,276.692,0,0,0,31.592,27.184c14.01,10.236,27.216,17.272,37.873,15.926,23.276-2.938,18.957-34.115,33.216-30.98,4.117.905,9.207,4.929,13.664,11.712,14.248,21.676,13.02,45.035,23.5,69.376,3.576,8.3,7.6,15.533,9.775,22.172,3.182,9.7,3.179,16.618,5.765,17.3,0,8.462-.349,9.9,2.118,14.685,5.088,9.858,21.013,14.283,23.979,23.3,3.03,9.217-6.129,12.37-6.232,25.8a31.624,31.624,0,0,0,.086,3.738c1.223,10.953,7.477,17.668,4.825,25.089-1.8,5.05-7.86,7.785-12.41,11.16-2.711,2.01-4.921,4.352-5.731,7.369-6.5,24.261,50.2,61.081,44.811,69.929-5.2,8.528-38.019-7.9-69.968-14.9-12.544-2.8-20.873-4.148-25.213-1.908a7.193,7.193,0,0,0-3.583,4.081c-5.075,12.688,16.255,43.21,9.1,58.745a10.072,10.072,0,0,1-1.495,2.255c-9.642,11.473-38.849,6.914-57.81-11.284-12.743-12.232-16.326-28.553-24.855-36.553-6.5-6.091-12.272-7.334-16.333-9.358-5.193-1.64-10.791-4-18.875-6.97-13.348-4.9-31.214-9.1-50.2-15.849-31.108-11.069-59.142-31.264-77.844-44.109-14.116-9.7-23.867-20.963-32.095-29.806-7.761-13.519-13.554-31.341-20.831-50.773q-.822-2.169-1.686-4.332c-7.336-18.284-15.437-32.62-14.037-37.9-.366-1.407.059-2.466,1.805-3.266,9.135-4.188,43.5,9.61,63.626,7.346,4.4,2.276,11.417.038,12.868-1.392,5.233,1.059,1.538,6.383,3.55,1.043,1.442-3.829.313-13.506,4.576-27.727.125-3.8,2.134-8.284,3.75-14.421,5.046-19.145,2.773-45.1,12.45-65.492,7.359-15.508,21.106-26.487,32.594-32.013C2332.373,572.284,2342.384,571.321,2350.923,575.486Z" transform="translate(46.342 111.055)" fill="none" stroke="#4a98c4" stroke-miterlimit="6.311" stroke-width="0.194"/><path d="M2351.489,572.674c11.36-.008,21.534,7.282,37.032,22.38a299.462,299.462,0,0,0,32.93,27.806c14.593,10.5,28.323,17.672,39.352,15.966,24.028-3.719,18.781-37.27,33.5-34.463,4.261.812,9.559,4.937,14.237,11.963,14.626,21.964,14.177,46.368,24.766,71.59,3.622,8.632,7.636,16.215,9.744,23.134,3.125,10.261,2.956,17.512,5.485,18.182-.2,8.936-.782,10.423,1.652,15.441,5.037,10.374,21.672,14.9,24.605,24.254,2.9,9.259-6.285,12.419-6.8,25.907a32.324,32.324,0,0,0-.034,3.76c.867,10.946,6.761,17.833,3.974,25.377-1.892,5.123-7.916,7.972-12.422,11.43-2.7,2.067-4.888,4.466-5.7,7.523-6.589,24.907,50.063,62.034,44.417,71.187-5.452,8.84-39.05-7.9-71.354-15.018-12.76-2.866-21.294-4.212-25.692-1.82a7.292,7.292,0,0,0-3.543,4.255c-4.812,12.973,17.054,43.807,9.715,59.84a10.618,10.618,0,0,1-1.51,2.308c-9.861,11.97-39.843,7.9-59.093-10.386-13.009-12.357-16.46-29.119-25.285-37.063-6.7-6.029-12.7-6.926-16.893-8.664-5.329-1.113-11.136-3.024-19.4-5.572-13.717-4.232-31.958-8-51.288-14.672-31.845-10.987-60.145-32.121-78.691-45.271-14.238-10.092-23.877-21.778-32-30.847-7.361-13.9-12.839-32.21-20.292-51.879q-.844-2.2-1.737-4.391c-7.6-18.512-16.354-32.689-15.387-38.019-.5-1.435-.179-2.532,1.538-3.389,8.928-4.466,44.306,9.225,64.662,5.916,4.355,2.136,11.505-.518,12.765-2.279,4.916.569.494,5.868,2.424.323,1.357-3.9.407-13.624,5.3-27.984.272-3.748,2.546-8.18,4.432-14.381,5.824-19.135,3.932-45.426,13.627-66.264,7.369-15.834,20.948-27.253,32.3-33.274C2332.733,570.328,2342.71,568.87,2351.489,572.674Z" transform="translate(45.378 109.573)" fill="none" stroke="#4a98c4" stroke-miterlimit="6.393" stroke-width="0.2"/><path d="M2352.08,569.886c11.816-.456,22.715,7.037,38.863,22.36a323.732,323.732,0,0,0,34.269,28.425c15.177,10.766,29.432,18.076,40.833,16.007,24.778-4.5,18.605-40.426,33.792-37.947,4.406.72,9.909,4.948,14.806,12.216,15,22.254,15.334,47.7,26.028,73.805,3.671,8.961,7.674,16.894,9.713,24.1,3.066,10.818,2.735,18.405,5.206,19.061-.4,9.412-1.215,10.943,1.189,16.2,4.985,10.891,22.334,15.515,25.23,25.207,2.777,9.3-6.439,12.466-7.376,26.015a33,33,0,0,0-.157,3.779c.514,10.942,6.049,18,3.124,25.669-1.98,5.195-7.973,8.157-12.436,11.7-2.684,2.13-4.853,4.585-5.66,7.68-6.676,25.554,49.922,62.987,44.023,72.444-5.706,9.151-40.082-7.9-72.741-15.132-12.976-2.928-21.716-4.278-26.173-1.732a7.417,7.417,0,0,0-3.5,4.429c-4.555,13.257,17.853,44.4,10.335,60.935a11.1,11.1,0,0,1-1.525,2.363c-10.079,12.468-40.836,8.89-60.377-9.487-13.273-12.479-16.592-29.683-25.712-37.575-6.9-5.967-13.134-6.514-17.458-7.969-5.465-.589-11.482-2.04-19.927-4.175-14.092-3.561-32.705-6.908-52.38-13.493-32.583-10.906-61.147-32.985-79.541-46.434-14.354-10.494-23.885-22.593-31.9-31.887-6.96-14.275-12.083-33.1-19.754-52.989q-.861-2.233-1.789-4.447c-7.857-18.74-17.269-32.759-16.734-38.136-.636-1.461-.417-2.6,1.272-3.514,8.722-4.74,45.111,8.841,65.7,4.485,4.311,2,11.593-1.069,12.664-3.163,4.594.079-.551,5.355,1.3-.4,1.272-3.965.5-13.744,6.022-28.243.425-3.694,2.958-8.077,5.117-14.342,6.592-19.125,5.088-45.747,14.8-67.035,7.377-16.161,20.786-28.025,32.011-34.535C2333.115,568.392,2343.058,566.444,2352.08,569.886Z" transform="translate(44.39 108.067)" fill="none" stroke="#4a98c4" stroke-miterlimit="6.475" stroke-width="0.206"/><path d="M2352.676,567.121c12.275-.9,23.866,6.826,40.7,22.341a344.269,344.269,0,0,0,35.61,29.045c15.757,11.03,30.539,18.481,42.312,16.048,25.531-5.278,18.429-43.584,34.081-41.43,4.549.626,10.257,4.96,15.375,12.465,15.377,22.547,16.491,49.038,27.291,76.02,3.719,9.294,7.708,17.574,9.682,25.057,3,11.374,2.513,19.3,4.927,19.938-.605,9.887-1.65,11.465.723,16.951,4.932,11.409,23,16.13,25.856,26.158,2.656,9.343-6.593,12.514-7.948,26.127a33.521,33.521,0,0,0-.279,3.8c.166,10.932,5.334,18.166,2.276,25.958-2.067,5.266-8.031,8.344-12.449,11.966-2.672,2.187-4.818,4.7-5.628,7.835-6.757,26.2,49.782,63.939,43.632,73.7-5.962,9.463-41.115-7.9-74.128-15.247-13.191-2.992-22.137-4.343-26.652-1.645a7.535,7.535,0,0,0-3.463,4.6c-4.3,13.542,18.65,45,10.953,62.032a11.5,11.5,0,0,1-1.54,2.417c-10.293,12.968-41.829,9.879-61.661-8.589-13.537-12.6-16.723-30.249-26.138-38.085-7.1-5.906-13.567-6.106-18.02-7.273-5.6-.066-11.831-1.056-20.453-2.778-14.465-2.889-33.451-5.813-53.471-12.314-33.322-10.822-62.145-33.856-80.389-47.6-14.47-10.9-23.9-23.408-31.8-32.928-6.56-14.652-11.367-33.964-19.217-54.1q-.882-2.265-1.839-4.5c-8.118-18.968-18.186-32.828-18.084-38.25-.771-1.487-.654-2.661,1.005-3.639,8.515-5.012,45.917,8.458,66.733,3.055,4.268,1.861,11.681-1.623,12.56-4.048,4.274-.412-1.591,4.84.171-1.117,1.19-4.032.592-13.863,6.747-28.5.574-3.64,3.364-7.975,5.8-14.3,7.353-19.119,6.247-46.068,15.983-67.806,7.385-16.487,20.622-28.8,31.72-35.8C2333.5,566.475,2343.416,564.04,2352.676,567.121Z" transform="translate(43.397 106.537)" fill="none" stroke="#4a98c4" stroke-miterlimit="6.557" stroke-width="0.213"/><path d="M2353.277,564.376c12.734-1.349,25.049,6.585,42.528,22.323a371.362,371.362,0,0,0,36.95,29.665c16.341,11.3,31.649,18.884,43.791,16.088,26.288-6.055,18.255-46.742,34.371-44.912,4.693.531,10.6,4.971,15.946,12.716,15.749,22.841,17.647,50.373,28.552,78.235,3.766,9.623,7.743,18.251,9.653,26.018,2.933,11.932,2.291,20.193,4.647,20.817-.808,10.361-2.083,11.984.257,17.705,4.88,11.925,23.676,16.743,26.482,27.11,2.54,9.382-6.745,12.562-8.52,26.235a34.663,34.663,0,0,0-.4,3.82c-.178,10.922,4.621,18.333,1.425,26.248-2.155,5.337-8.087,8.53-12.462,12.234-2.657,2.248-4.783,4.816-5.593,7.989-6.841,26.851,49.641,64.893,43.238,74.961-6.216,9.773-42.146-7.9-75.513-15.361-13.41-3.056-22.561-4.411-27.134-1.558a7.655,7.655,0,0,0-3.422,4.776c-4.049,13.824,19.448,45.6,11.573,63.127a12.061,12.061,0,0,1-1.554,2.471c-10.509,13.468-42.826,10.868-62.948-7.69-13.8-12.727-16.854-30.816-26.564-38.595-7.3-5.845-14-5.7-18.584-6.58-5.739.461-12.18-.069-20.978-1.381-14.841-2.21-34.2-4.716-54.562-11.135-34.063-10.737-63.143-34.728-81.239-48.761-14.583-11.307-23.9-24.223-31.707-33.969-6.158-15.029-10.651-34.833-18.677-55.206q-.9-2.294-1.892-4.562c-8.379-19.194-19.1-32.9-19.432-38.365-.905-1.515-.891-2.725.74-3.761,8.308-5.283,46.723,8.072,67.768,1.623,4.224,1.723,11.769-2.178,12.457-4.934,3.957-.9-2.627,4.329-.956-1.837,1.11-4.1.685-13.981,7.472-28.76.721-3.586,3.769-7.872,6.482-14.263,8.111-19.117,7.4-46.39,17.162-68.578,7.393-16.813,20.457-29.58,31.428-37.057C2333.889,564.578,2343.775,561.658,2353.277,564.376Z" transform="translate(42.398 104.986)" fill="none" stroke="#4a98c4" stroke-miterlimit="6.639" stroke-width="0.219"/><path d="M2353.884,561.652c13.191-1.8,26.23,6.341,44.36,22.3a400.733,400.733,0,0,0,38.29,30.286c16.925,11.56,32.759,19.288,45.271,16.128,27.041-6.831,18.078-49.9,34.66-48.4,4.835.439,10.95,4.985,16.514,12.968,16.122,23.134,18.8,51.707,29.816,80.449,3.812,9.954,7.772,18.93,9.62,26.981,2.865,12.486,2.069,21.086,4.368,21.7-1.012,10.837-2.517,12.5-.207,18.461,4.824,12.44,24.35,17.353,27.106,28.06,2.428,9.423-6.9,12.611-9.089,26.345a35.5,35.5,0,0,0-.523,3.842c-.519,10.912,3.907,18.5.576,26.537-2.241,5.409-8.143,8.718-12.476,12.5-2.643,2.309-4.749,4.932-5.557,8.144-6.923,27.5,49.5,65.846,42.845,76.219-6.47,10.084-43.178-7.9-76.9-15.475-13.624-3.12-22.983-4.478-27.613-1.469a7.793,7.793,0,0,0-3.384,4.95c-3.8,14.106,20.247,46.2,12.194,64.223a12.606,12.606,0,0,1-1.571,2.525c-10.721,13.97-43.82,11.858-64.231-6.792-14.065-12.85-16.984-31.382-26.991-39.106-7.5-5.785-14.432-5.286-19.146-5.885-5.877.985-12.529.92-21.5.018-15.216-1.53-34.945-3.619-55.654-9.956-34.8-10.65-64.134-35.607-82.087-49.925-14.695-11.719-23.913-25.038-31.61-35.009-5.759-15.408-9.976-35.687-18.14-56.316q-.929-2.324-1.944-4.617c-8.638-19.424-20.016-32.969-20.78-38.482-1.041-1.541-1.128-2.789.474-3.886,8.1-5.549,47.526,7.688,68.8.193,4.181,1.584,11.856-2.73,12.355-5.819,3.635-1.392-3.663,3.816-2.084-2.556,1.031-4.166.778-14.1,8.2-29.017.872-3.534,4.174-7.774,7.164-14.226,8.861-19.117,8.564-46.711,18.34-69.348,7.4-17.141,20.289-30.36,31.138-38.318C2334.281,562.7,2344.141,559.295,2353.884,561.652Z" transform="translate(41.393 103.416)" fill="none" stroke="#4a98c4" stroke-miterlimit="6.721" stroke-width="0.225"/><path d="M2354.494,558.947c13.649-2.245,27.414,6.1,46.193,22.285a431.723,431.723,0,0,0,39.629,30.9c17.509,11.826,33.869,19.693,46.752,16.167,27.8-7.6,17.9-53.058,34.948-51.878,4.979.344,11.3,5,17.086,13.219,16.49,23.431,19.957,53.04,31.076,82.663,3.86,10.286,7.8,19.607,9.589,27.943,2.792,13.042,1.848,21.98,4.089,22.573-1.213,11.312-2.952,13.026-.672,19.217,4.77,12.958,25.029,17.966,27.733,29.013,2.315,9.461-7.051,12.658-9.663,26.453a35.914,35.914,0,0,0-.644,3.863c-.856,10.9,3.192,18.666-.274,26.827-2.33,5.481-8.2,8.9-12.489,12.77a16.891,16.891,0,0,0-5.522,8.3c-7,28.147,49.359,66.8,42.451,77.476-6.726,10.4-44.208-7.9-78.286-15.59-13.842-3.183-23.408-4.547-28.092-1.382a7.931,7.931,0,0,0-3.345,5.126c-3.552,14.388,21.043,46.793,12.814,65.318a13.21,13.21,0,0,1-1.585,2.579c-10.932,14.472-44.817,12.848-65.517-5.891-14.331-12.975-17.114-31.952-27.417-39.618-7.695-5.726-14.864-4.876-19.711-5.191-6.013,1.51-12.878,1.912-22.029,1.417-15.59-.846-35.691-2.522-56.746-8.779-35.542-10.561-65.125-36.49-82.935-51.088-14.8-12.132-23.922-25.854-31.514-36.05-5.356-15.785-9.259-36.557-17.6-57.425q-.951-2.354-2-4.675c-8.9-19.65-20.933-33.038-22.128-38.6-1.176-1.568-1.366-2.851.207-4.009,7.9-5.814,48.333,7.3,69.839-1.238,4.137,1.446,11.945-3.284,12.252-6.7,3.315-1.882-4.694,3.3-3.21-3.278.954-4.23.872-14.219,8.921-29.275,1.021-3.478,4.576-7.674,7.847-14.185,9.605-19.122,9.721-47.034,19.517-70.121,7.412-17.468,20.118-31.144,30.845-39.579C2334.673,560.832,2344.512,556.951,2354.494,558.947Z" transform="translate(40.385 101.827)" fill="none" stroke="#4a98c4" stroke-miterlimit="6.803" stroke-width="0.231"/><path d="M2355.109,556.615c13.431-5.088,28.594,5.854,48.025,22.265A464.952,464.952,0,0,0,2444.1,610.4c18.091,12.091,34.978,20.1,48.229,16.208,28.555-8.38,17.725-56.218,35.239-55.36,5.122.249,11.643,5.009,17.654,13.47,16.861,23.728,21.114,54.375,32.34,84.876,3.907,10.619,7.834,20.284,9.559,28.906,2.717,13.594,1.625,22.873,3.81,23.452-1.417,11.788-3.386,13.545-1.138,19.971,4.715,13.475,25.713,18.576,28.358,29.963,2.209,9.5-7.2,12.708-10.231,26.565a36.665,36.665,0,0,0-.768,3.883c-1.189,10.889,2.48,18.832-1.125,27.115-2.415,5.554-8.254,9.092-12.5,13.039a17.431,17.431,0,0,0-5.488,8.454c-7.083,28.8,49.218,67.753,42.057,78.736-6.979,10.707-45.241-7.9-79.673-15.7-14.057-3.247-23.831-4.614-28.573-1.294a8.075,8.075,0,0,0-3.3,5.3c-3.309,14.67,21.839,47.388,13.432,66.413a13.674,13.674,0,0,1-1.6,2.634c-11.14,14.975-45.812,13.839-66.8-4.993-14.6-13.1-17.243-32.52-27.843-40.129-7.893-5.665-15.3-4.467-20.273-4.5-6.151,2.037-13.225,2.906-22.555,2.814-15.965-.157-36.438-1.423-57.838-7.6-36.281-10.471-66.11-37.373-83.784-52.25-14.91-12.55-23.931-26.669-31.417-37.089-4.957-16.164-8.544-37.427-17.062-58.535q-.972-2.383-2.048-4.732c-9.16-19.878-21.849-33.107-23.477-38.711-1.31-1.6-1.6-2.914-.059-4.134,7.693-6.077,49.137,6.919,70.874-2.668,4.094,1.308,12.031-3.839,12.148-7.589,3-2.374-5.724,2.789-4.337-4,.879-4.3.967-14.339,9.645-29.532,1.172-3.425,4.978-7.579,8.531-14.147,10.348-19.13,10.928-47.334,20.7-70.891,7.454-17.779,19.944-31.931,30.553-40.84C2335.069,559.339,2345.426,560.282,2355.109,556.615Z" transform="translate(39.373 99.864)" fill="none" stroke="#4a98c4" stroke-miterlimit="6.885" stroke-width="0.237"/><path d="M2355.727,554.061c13.842-5.511,29.774,5.611,49.856,22.247,13.931,11.62,28.786,23.2,42.31,32.144,18.673,12.357,36.09,20.5,49.711,16.249,29.311-9.156,17.548-59.378,35.526-58.845,5.265.157,11.988,5.026,18.224,13.721,17.228,24.028,22.268,55.711,33.6,87.093,3.954,10.948,7.863,20.96,9.528,29.867,2.642,14.149,1.4,23.767,3.529,24.331-1.616,12.262-3.82,14.065-1.6,20.727,4.66,13.99,26.4,19.186,28.986,30.914,2.1,9.538-7.353,12.755-10.805,26.673a38.6,38.6,0,0,0-.889,3.9c-1.518,10.879,1.766,19-1.974,27.405-2.5,5.626-8.31,9.281-12.514,13.306a18,18,0,0,0-5.455,8.61c-7.162,29.445,49.079,68.706,41.666,79.993-7.236,11.019-46.273-7.9-81.059-15.82-14.275-3.309-24.257-4.683-29.053-1.205a8.212,8.212,0,0,0-3.265,5.472c-3.068,14.952,22.635,47.987,14.052,67.51a14.206,14.206,0,0,1-1.615,2.687c-11.349,15.479-46.81,14.829-68.086-4.094-14.863-13.219-17.373-33.089-28.272-40.639-8.092-5.606-15.728-4.057-20.836-3.8-6.286,2.561-13.573,3.9-23.08,4.212-16.339.533-37.186-.325-58.93-6.421-37.022-10.383-67.094-38.262-84.632-53.414-15.014-12.97-23.94-27.484-31.319-38.131-4.555-16.541-7.83-38.3-16.525-59.643-.662-1.608-1.361-3.209-2.1-4.788-9.421-20.107-22.764-33.177-24.826-38.828-1.444-1.622-1.841-2.976-.326-4.258,7.492-6.336,49.945,6.534,71.91-4.1,4.05,1.171,12.12-4.391,12.047-8.474,2.674-2.865-6.754,2.276-5.465-4.719.8-4.365,1.061-14.457,10.369-29.791,1.321-3.369,5.376-7.482,9.213-14.108,11.085-19.142,12.088-47.656,21.875-71.662,7.464-18.105,19.766-32.72,30.262-42.1C2335.464,557.622,2345.933,557.961,2355.727,554.061Z" transform="translate(38.358 98.123)" fill="none" stroke="#4a98c4" stroke-miterlimit="6.967" stroke-width="0.243"/><path d="M2356.349,551.508c14.261-5.927,30.957,5.367,51.688,22.228,14.38,11.773,29.686,23.613,43.65,32.766,19.256,12.622,37.2,20.909,51.19,16.289,30.07-9.93,17.369-62.539,35.815-62.327,5.409.062,12.332,5.039,18.794,13.972,17.6,24.326,23.421,57.044,34.863,89.307,4,11.279,7.894,21.634,9.5,30.829,2.564,14.7,1.182,24.661,3.25,25.208-1.82,12.737-4.255,14.587-2.066,21.483,4.6,14.506,27.091,19.8,29.61,31.867,2,9.576-7.5,12.8-11.375,26.781a39.717,39.717,0,0,0-1.012,3.925c-1.843,10.87,1.053,19.165-2.823,27.694-2.591,5.7-8.365,9.469-12.529,13.575a18.61,18.61,0,0,0-5.419,8.766c-7.241,30.095,48.938,69.658,41.272,81.251-7.49,11.328-47.3-7.9-82.446-15.933-14.49-3.373-24.682-4.753-29.532-1.12a8.363,8.363,0,0,0-3.225,5.647c-2.828,15.234,23.431,48.582,14.672,68.606a14.9,14.9,0,0,1-1.632,2.742c-11.553,15.983-47.8,15.821-69.37-3.2-15.128-13.34-17.5-33.658-28.7-41.149-8.29-5.549-16.158-3.648-21.4-3.109-6.422,3.088-13.92,4.9-23.606,5.609-16.711,1.228-37.934.776-60.02-5.242-37.765-10.289-68.078-39.154-85.483-54.577-15.115-13.393-23.948-28.3-31.223-39.172-4.153-16.917-7.112-39.165-15.985-60.752q-1.015-2.445-2.153-4.845c-9.679-20.334-23.678-33.246-26.174-38.944-1.579-1.646-2.076-3.037-.59-4.38,7.29-6.595,50.75,6.149,72.944-5.529,4.007,1.031,12.209-4.945,11.943-9.359,2.356-3.357-7.779,1.764-6.591-5.439.73-4.432,1.155-14.577,11.094-30.049,1.471-3.317,5.773-7.388,9.9-14.068,11.82-19.16,13.247-47.979,23.052-72.434,7.474-18.432,19.588-33.508,29.973-43.361C2335.859,555.906,2346.427,555.632,2356.349,551.508Z" transform="translate(37.34 96.381)" fill="none" stroke="#4a98c4" stroke-miterlimit="7.049" stroke-width="0.249"/><path d="M2356.94,548.957c14.688-6.339,32.14,5.124,53.521,22.208,14.828,11.925,30.587,24.029,44.989,33.385,19.841,12.888,38.312,21.314,52.672,16.33,30.828-10.7,17.2-65.339,36.1-65.812,5.55-.138,12.676,5.055,19.363,14.224,17.961,24.626,24.576,58.379,36.127,91.522,4.047,11.609,7.919,22.308,9.464,31.79,2.484,15.252.961,25.554,2.971,26.087-2.022,13.213-4.69,15.107-2.532,22.238,4.547,15.023,27.786,20.406,30.238,32.818,1.9,9.615-7.65,12.852-11.948,26.891a40.829,40.829,0,0,0-1.133,3.947c-2.166,10.86.34,19.332-3.675,27.984-2.676,5.768-8.42,9.658-12.54,13.842a19.229,19.229,0,0,0-5.385,8.921c-7.318,30.744,48.8,70.611,40.878,82.509-7.745,11.64-48.336-7.9-83.833-16.048-14.706-3.437-25.107-4.824-30.013-1.031a8.51,8.51,0,0,0-3.183,5.821c-2.593,15.518,24.226,49.177,15.291,69.7a15.4,15.4,0,0,1-1.646,2.8c-11.76,16.489-48.8,16.812-70.655-2.3-15.393-13.462-17.63-34.227-29.124-41.661-8.489-5.49-16.592-3.238-21.962-2.414-6.559,3.612-14.265,5.9-24.131,7.008-17.082,1.923-38.68,1.876-61.113-4.063-38.5-10.2-69.055-40.049-86.331-55.741-15.213-13.818-23.957-29.114-31.126-40.212-3.753-17.3-6.4-40.034-15.447-61.86q-1.039-2.477-2.2-4.9c-9.941-20.562-23.7-33.866-27.524-39.057-1.419-1.93-2.312-3.1-.856-4.506,7.09-6.851,51.553,5.765,73.979-6.959,3.963.894,12.3-5.5,11.842-10.245,2.035-3.847-8.8,1.251-7.72-6.159.657-4.5,1.248-14.7,11.819-30.308,1.62-3.261,6.17-7.295,10.579-14.029,12.553-19.181,14.4-48.3,24.229-73.2,7.482-18.758,19.406-34.3,29.681-44.622C2336.222,554.188,2346.877,553.3,2356.94,548.957Z" transform="translate(36.35 94.638)" fill="none" stroke="#4a98c4" stroke-miterlimit="7.131" stroke-width="0.255"/><path d="M2357.57,546.406c15.121-6.744,33.322,4.88,55.354,22.188,15.275,12.078,31.484,24.446,46.329,34.005,20.42,13.155,39.423,21.721,54.149,16.37,31.588-11.478,17.015-68.862,36.394-69.294,5.695-.126,13.019,5.071,19.932,14.475,18.328,24.928,25.728,59.714,37.389,93.736,4.093,11.942,7.948,22.982,9.435,32.752,2.4,15.8.738,26.448,2.691,26.966-2.225,13.686-5.125,15.626-3,22.991,4.489,15.539,28.486,21.014,30.862,33.771,1.8,9.653-7.8,12.9-12.519,27-.436,1.307-.941,2.6-1.254,3.966-2.486,10.851-.372,19.5-4.524,28.275-2.763,5.84-8.474,9.844-12.553,14.109a19.863,19.863,0,0,0-5.351,9.076c-7.395,31.393,48.656,71.565,40.486,83.768-8,11.951-49.369-7.9-85.219-16.162-14.922-3.5-25.535-4.894-30.493-.943a8.66,8.66,0,0,0-3.145,5.995c-2.356,15.8,25.022,49.774,15.91,70.8a15.887,15.887,0,0,1-1.662,2.85c-11.961,17-49.8,17.8-71.939-1.4-15.659-13.583-17.757-34.8-29.55-42.171-8.686-5.432-17.025-2.829-22.524-1.72-6.7,4.137-14.611,6.9-24.657,8.407a157.916,157.916,0,0,1-62.2-2.886c-39.245-10.1-70.03-40.944-87.179-56.9-15.309-14.246-23.966-29.929-31.028-41.253-3.353-17.672-5.683-40.9-14.909-62.969q-1.058-2.506-2.256-4.96c-10.2-20.789-24.68-33.955-28.871-39.175-1.573-1.958-2.548-3.16-1.124-4.629,6.894-7.1,52.36,5.381,75.015-8.389,3.918.756,12.385-6.052,11.739-11.13,1.715-4.337-9.823.738-8.846-6.878.587-4.568,1.341-14.815,12.544-30.565,1.769-3.209,6.566-7.2,11.26-13.991,13.285-19.206,15.564-48.62,25.409-73.976a147.51,147.51,0,0,1,29.389-45.881C2336.622,552.47,2347.352,550.963,2357.57,546.406Z" transform="translate(35.323 92.894)" fill="none" stroke="#4a98c4" stroke-miterlimit="7.213" stroke-width="0.261"/><path d="M2358.2,543.231c16.918-2.619,34.5,4.639,57.186,22.172,15.725,12.227,32.385,24.859,47.668,34.625,21,13.419,40.535,22.126,55.63,16.41,32.349-12.252,16.838-72.024,36.683-72.777,5.837-.223,13.362,5.086,20.5,14.726,18.691,25.23,26.881,61.048,38.651,95.949,4.138,12.273,7.975,23.654,9.4,33.715,2.32,16.354.517,27.342,2.412,27.843-2.428,14.164-5.562,16.147-3.463,23.749,4.433,16.052,29.189,21.622,31.488,34.72,1.7,9.692-7.946,12.952-13.09,27.11-.476,1.312-1.021,2.61-1.377,3.988-2.8,10.845-1.085,19.665-5.373,28.563-2.85,5.913-8.529,10.035-12.568,14.378a20.55,20.55,0,0,0-5.316,9.231c-7.468,32.043,48.515,72.518,40.094,85.025-8.256,12.261-50.4-7.9-86.606-16.277-15.139-3.563-25.961-4.965-30.972-.856a8.819,8.819,0,0,0-3.106,6.17c-2.124,16.084,25.815,50.369,16.53,71.892a16.7,16.7,0,0,1-1.676,2.905c-12.165,17.5-50.8,18.8-73.224-.5-15.926-13.7-17.886-35.368-29.977-42.682-8.884-5.373-17.458-2.418-23.088-1.023-6.833,4.662-14.954,7.9-25.182,9.8a150.17,150.17,0,0,1-63.3-1.707c-39.987-10.005-71-41.841-88.028-58.066-15.4-14.675-23.976-30.744-30.932-42.292-2.952-18.051-4.968-41.774-14.371-64.079q-1.079-2.538-2.309-5.018c-10.461-21.017-25.655-34.036-30.219-39.29-1.724-1.986-2.784-3.22-1.389-4.752,6.7-7.359,53.165,5,76.052-9.82,3.874.617,12.469-6.606,11.634-12.014,1.395-4.829-10.842.223-9.973-7.6.516-4.635,1.435-14.934,13.267-30.824,1.92-3.153,6.963-7.113,11.945-13.95,14.014-19.235,16.723-48.943,26.588-74.75a158.581,158.581,0,0,1,29.1-47.141C2337.02,550.129,2346.906,544.98,2358.2,543.231Z" transform="translate(34.296 91.774)" fill="none" stroke="#4a98c4" stroke-miterlimit="7.295" stroke-width="0.267"/><path d="M2358.832,541.356c17.413-3.119,35.686,4.394,59.018,22.152,16.172,12.38,33.284,25.276,49.008,35.245,21.588,13.686,41.648,22.532,57.11,16.449,33.108-13.022,16.659-75.184,36.971-76.26,5.981-.316,13.705,5.1,21.071,14.977,19.057,25.535,28.034,62.383,39.915,98.166,4.185,12.6,8,24.325,9.37,34.676,2.238,16.9.3,28.235,2.135,28.722-2.631,14.637-6,16.666-3.929,24.5,4.375,16.569,29.895,22.232,32.113,35.673,1.607,9.73-8.093,13-13.662,27.219-.515,1.315-1.1,2.62-1.5,4.009-3.116,10.84-1.8,19.832-6.225,28.853-2.935,5.985-8.582,10.223-12.579,14.646a21.234,21.234,0,0,0-5.282,9.387c-7.544,32.692,48.374,73.469,39.7,86.283-8.512,12.573-51.432-7.9-87.992-16.392-15.356-3.625-26.391-5.035-31.454-.767a8.984,8.984,0,0,0-3.066,6.344c-1.89,16.369,26.612,50.964,17.151,72.987a17.434,17.434,0,0,1-1.69,2.96c-12.368,18.007-51.8,19.788-74.509.4-16.193-13.824-18.015-35.94-30.4-43.192-9.082-5.318-17.889-2.009-23.65-.33-6.97,5.186-15.3,8.9-25.708,11.2a143.911,143.911,0,0,1-64.388-.528c-40.728-9.91-71.972-42.743-88.877-59.23-15.492-15.108-23.984-31.559-30.834-43.333-2.551-18.428-4.252-42.643-13.832-65.187q-1.1-2.568-2.36-5.075c-10.724-21.244-26.627-34.112-31.569-39.4-1.876-2.01-3.019-3.281-1.656-4.876,6.5-7.61,53.971,4.613,77.087-11.25,3.83.479,12.558-7.161,11.532-12.9,1.075-5.319-11.859-.292-11.1-8.32.446-4.7,1.529-15.054,13.991-31.082,2.069-3.1,7.357-7.026,12.628-13.913,14.742-19.266,17.882-49.264,27.766-75.52a170.66,170.66,0,0,1,28.806-48.4C2337.416,549.087,2347.334,543.415,2358.832,541.356Z" transform="translate(33.267 89.355)" fill="none" stroke="#4a98c4" stroke-miterlimit="7.377" stroke-width="0.274"/><path d="M2359.465,539.848c17.9-3.625,36.867,4.15,60.85,22.132,16.622,12.532,34.184,25.692,50.348,35.865,22.17,13.952,42.759,22.939,58.588,16.492,33.871-13.8,16.481-78.349,37.26-79.744,6.126-.412,14.047,5.121,21.644,15.228,19.419,25.838,29.184,63.718,41.176,100.379,4.23,12.934,8.028,25,9.341,35.638,2.151,17.453.072,29.129,1.853,29.6-2.833,15.111-6.432,17.185-4.393,25.257,4.318,17.084,30.606,22.841,32.74,36.624,1.513,9.771-8.241,13.052-14.232,27.328-.554,1.32-1.179,2.628-1.622,4.03-3.428,10.835-2.512,20-7.074,29.142-3.022,6.059-8.635,10.413-12.593,14.914a21.977,21.977,0,0,0-5.247,9.543c-7.619,33.341,48.233,74.421,39.307,87.541-8.766,12.885-52.465-7.9-89.379-16.507-15.572-3.688-26.817-5.106-31.933-.679a9.141,9.141,0,0,0-3.027,6.516c-1.661,16.656,27.406,51.561,17.771,74.084a17.906,17.906,0,0,1-1.707,3.014c-12.567,18.514-52.794,20.781-75.792,1.3-16.461-13.945-18.145-36.514-30.831-43.705-9.28-5.26-18.322-1.6-24.214.366-7.107,5.711-15.639,9.9-26.233,12.6a138.748,138.748,0,0,1-65.479.651c-41.47-9.812-72.941-43.645-89.726-60.392-15.579-15.542-23.994-32.374-30.738-44.375-2.151-18.806-3.537-43.512-13.294-66.3q-1.124-2.6-2.413-5.131c-10.983-21.473-27.594-34.182-32.917-39.521-2.028-2.033-3.252-3.341-1.922-5,6.311-7.861,54.777,4.229,78.123-12.68,3.787.341,11.64-7.6,11.429-13.785-.2-5.855-12.875-.807-12.226-9.04.375-4.773,1.62-15.172,14.714-31.341,2.219-3.045,7.752-6.938,13.311-13.873,15.471-19.3,19.04-49.586,28.942-76.291a183.85,183.85,0,0,1,28.516-49.663C2337.81,548.411,2347.759,542.218,2359.465,539.848Z" transform="translate(32.236 86.567)" fill="none" stroke="#4a98c4" stroke-miterlimit="7.459" stroke-width="0.28"/><path d="M2360.1,538.342c18.382-4.134,38.047,3.907,62.681,22.113,17.069,12.685,35.084,26.109,51.689,36.486,22.752,14.218,43.871,23.344,60.068,16.53,34.634-14.568,16.3-81.508,37.549-83.225,6.268-.507,14.388,5.139,22.212,15.479,19.782,26.141,30.337,65.053,42.438,102.595,4.276,13.265,8.054,25.666,9.31,36.6,2.068,18-.148,30.023,1.574,30.478-3.035,15.588-6.869,17.707-4.858,26.015,4.259,17.6,31.319,23.449,33.365,37.575,1.422,9.808-8.389,13.1-14.8,27.438-.592,1.322-1.256,2.636-1.743,4.05-3.739,10.833-3.223,20.166-7.923,29.432-3.109,6.129-8.689,10.6-12.606,15.182a22.724,22.724,0,0,0-5.212,9.7c-7.693,33.994,48.092,75.376,38.913,88.8-9.022,13.195-53.5-7.9-90.765-16.62-15.788-3.753-27.246-5.178-32.414-.594a9.313,9.313,0,0,0-2.986,6.691c-1.432,16.941,28.2,52.156,18.39,75.179a18.731,18.731,0,0,1-1.721,3.068c-12.767,19.022-53.793,21.775-77.078,2.2-16.728-14.067-18.272-37.086-31.257-44.215-9.478-5.2-18.755-1.189-24.777,1.059a69.452,69.452,0,0,1-26.76,14,134.525,134.525,0,0,1-66.571,1.828c-42.212-9.714-73.905-44.549-90.574-61.555-15.664-15.979-24-33.189-30.642-45.414-1.75-19.184-2.82-44.383-12.755-67.406q-1.144-2.627-2.465-5.188c-11.243-21.7-28.556-34.25-34.264-39.636-2.177-2.055-3.488-3.4-2.188-5.124,6.12-8.112,55.582,3.843,79.158-14.111,3.743.2,11.809-8.133,11.325-14.67-.464-6.3-13.889-1.322-13.352-9.759.307-4.844,1.714-15.292,15.439-31.6,2.367-2.992,8.146-6.852,13.993-13.834,16.2-19.343,20.2-49.908,30.121-77.063a198.208,198.208,0,0,1,28.225-50.923C2338.2,547.736,2348.181,541.021,2360.1,538.342Z" transform="translate(31.205 83.78)" fill="none" stroke="#4a98c4" stroke-miterlimit="7.541" stroke-width="0.286"/><path d="M2360.733,536.835c18.862-4.645,39.231,3.665,64.515,22.095,17.518,12.837,35.985,26.525,53.028,37.106,23.336,14.485,44.985,23.751,61.549,16.571,35.395-15.342,16.123-84.673,37.837-86.709,6.411-.6,14.729,5.157,22.781,15.731,20.145,26.446,31.489,66.387,43.7,104.808,4.322,13.6,8.081,26.338,9.279,37.562,1.982,18.548-.37,30.916,1.3,31.357-3.238,16.062-7.3,18.225-5.322,26.769,4.2,18.114,32.038,24.059,33.99,38.526,1.332,9.85-8.534,13.152-15.376,27.548-.631,1.326-1.334,2.645-1.866,4.071-4.047,10.833-3.937,20.332-8.774,29.721-3.194,6.2-8.742,10.792-12.619,15.452a23.519,23.519,0,0,0-5.177,9.851c-7.767,34.643,47.923,76.311,38.52,90.058-9.3,13.488-54.528-7.9-92.151-16.735-16-3.815-27.677-5.25-32.894-.5-1.972,1.8-2.747,4.019-2.947,6.865-1.2,17.227,28.993,52.752,19.009,76.275a19.358,19.358,0,0,1-1.736,3.122c-12.965,19.53-54.791,22.768-78.362,3.094-17-14.187-18.4-37.659-31.685-44.726-9.674-5.148-19.186-.78-25.34,1.753a71.738,71.738,0,0,1-27.284,15.395,131.051,131.051,0,0,1-67.663,3.007c-42.953-9.615-74.868-45.455-91.424-62.719-15.744-16.418-24.011-34.005-30.544-46.455-1.348-19.561-2.105-45.252-12.217-68.514q-1.166-2.659-2.516-5.245c-11.5-21.927-29.519-34.312-35.614-39.751-2.326-2.076-3.722-3.461-2.455-5.248,5.933-8.361,56.387,3.46,80.194-15.541,3.7.064,11.969-8.674,11.224-15.556-.733-6.75-14.9-1.838-14.48-10.479.239-4.912,1.807-15.411,16.163-31.857,2.517-2.937,8.539-6.767,14.675-13.795,16.927-19.384,21.359-50.228,31.3-77.834a213.812,213.812,0,0,1,27.931-52.184C2338.6,547.063,2348.6,539.824,2360.733,536.835Z" transform="translate(30.173 80.991)" fill="none" stroke="#4a98c4" stroke-miterlimit="7.623" stroke-width="0.292"/><path d="M2361.37,535.33c19.333-5.16,40.412,3.42,66.346,22.076,17.966,12.986,36.883,26.942,54.368,37.724,23.918,14.751,46.1,24.157,63.027,16.612,36.158-16.115,15.944-87.834,38.128-90.192,6.553-.7,15.068,5.175,23.352,15.982,20.505,26.751,32.639,67.72,44.963,107.022,4.366,13.928,8.1,27.007,9.246,38.524,1.9,19.1-.592,31.81,1.017,32.236-3.44,16.538-7.741,18.745-5.788,27.524,4.144,18.628,32.76,24.669,34.617,39.478,1.241,9.891-8.682,13.2-15.948,27.656-.669,1.331-1.41,2.655-1.988,4.091-4.353,10.837-4.649,20.5-9.623,30.013-3.281,6.275-8.795,10.982-12.632,15.719a24.365,24.365,0,0,0-5.144,10.007c-7.838,35.292,47.785,77.263,38.129,91.315-9.559,13.8-55.561-7.9-93.539-16.849-16.221-3.879-28.106-5.322-33.373-.416-1.985,1.846-2.745,4.132-2.907,7.039-.978,17.513,29.787,53.345,19.629,77.37a20.033,20.033,0,0,1-1.751,3.176c-13.162,20.038-55.79,23.762-79.648,3.992-17.262-14.306-18.528-38.232-32.111-45.237-9.873-5.091-19.617-.369-25.9,2.448a74.286,74.286,0,0,1-27.811,16.792,128.149,128.149,0,0,1-68.755,4.186c-43.694-9.513-75.827-46.36-92.271-63.882-15.824-16.857-24.021-34.82-30.447-47.5-.948-19.939-1.391-46.121-11.679-69.622q-1.188-2.688-2.568-5.3c-11.765-22.157-30.475-34.374-36.961-39.867-2.476-2.1-3.957-3.522-2.721-5.372,5.746-8.612,57.193,3.074,81.229-16.972,3.656-.074,12.124-9.222,11.12-16.441s-15.913-2.355-15.606-11.2c.173-4.981,1.9-15.529,16.887-32.113,2.668-2.884,8.934-6.685,15.359-13.757,17.654-19.43,22.519-50.55,32.477-78.6a231.063,231.063,0,0,1,27.642-53.445C2338.99,546.389,2349.015,538.627,2361.37,535.33Z" transform="translate(29.14 78.202)" fill="none" stroke="#4a98c4" stroke-miterlimit="7.705" stroke-width="0.298"/><path d="M2362.007,533.825c19.8-5.678,41.594,3.178,68.179,22.057,18.414,13.139,37.781,27.358,55.707,38.344,24.5,15.018,47.211,24.564,64.508,16.653,36.921-16.887,15.766-91,38.416-93.675,6.7-.792,15.409,5.194,23.921,16.231,20.868,27.06,33.791,69.057,46.226,109.239,4.412,14.258,8.129,27.676,9.216,39.485,1.807,19.643-.813,32.7.736,33.115-3.643,17.012-8.177,19.263-6.254,28.278,4.084,19.143,33.485,25.279,35.243,40.431,1.154,9.93-8.828,13.253-16.518,27.766-.709,1.333-1.489,2.663-2.11,4.111-4.658,10.842-5.362,20.668-10.473,30.3-3.368,6.347-8.849,11.173-12.646,15.988a25.2,25.2,0,0,0-5.109,10.163c-7.91,35.942,47.644,78.216,37.734,92.573-9.812,14.111-56.592-7.9-94.925-16.964-16.436-3.942-28.535-5.393-33.854-.33-1.992,1.9-2.74,4.245-2.866,7.214-.753,17.8,30.58,53.941,20.249,78.465a20.721,20.721,0,0,1-1.768,3.23c-13.358,20.547-56.789,24.757-80.931,4.891-17.531-14.424-18.655-38.8-32.538-45.747-10.07-5.037-20.05.039-26.466,3.142a77.028,77.028,0,0,1-28.335,18.19,125.8,125.8,0,0,1-69.845,5.365c-44.437-9.413-76.785-47.268-93.122-65.046-15.9-17.3-24.03-35.635-30.351-48.536-.546-20.317-.674-46.99-11.14-70.731q-1.21-2.72-2.621-5.36c-12.024-22.383-31.429-34.432-38.309-39.982-2.623-2.115-4.189-3.581-2.987-5.5,5.561-8.861,58,2.689,82.264-18.4,3.614-.212,12.271-9.771,11.017-17.325-1.274-7.685-16.922-2.873-16.733-11.922.1-5.054,1.994-15.648,17.611-32.371,2.817-2.83,9.328-6.6,16.042-13.718,18.382-19.48,23.678-50.873,33.655-79.377a249.82,249.82,0,0,1,27.349-54.706C2339.381,545.717,2349.429,537.43,2362.007,533.825Z" transform="translate(28.106 75.413)" fill="none" stroke="#4a98c4" stroke-miterlimit="7.787" stroke-width="0.304"/><path d="M2362.643,532.319c20.266-6.195,42.775,2.935,70.013,22.039,18.863,13.291,38.682,27.775,57.047,38.965,25.083,15.283,48.324,24.969,65.988,16.692,37.684-17.661,15.585-94.162,38.7-97.159,6.839-.887,15.749,5.214,24.492,16.484,21.229,27.366,34.941,70.391,47.486,111.452,4.459,14.59,8.154,28.345,9.186,40.449,1.72,20.188-1.035,33.594.457,33.991-3.846,17.487-8.613,19.784-6.719,29.035,4.027,19.658,34.214,25.887,35.869,41.38,1.068,9.973-8.973,13.306-17.09,27.876-.746,1.338-1.564,2.674-2.231,4.132-4.963,10.846-6.073,20.835-11.324,30.591-3.454,6.419-8.9,11.363-12.658,16.256a26.117,26.117,0,0,0-5.073,10.317c-7.98,36.594,47.5,79.17,37.342,93.831-10.067,14.422-57.625-7.9-96.313-17.076-16.652-4.007-28.965-5.467-34.333-.243-2,1.951-2.738,4.356-2.827,7.387-.528,18.092,31.372,54.537,20.868,79.562a21.517,21.517,0,0,1-1.782,3.284c-13.554,21.057-57.789,25.753-82.217,5.79-17.8-14.544-18.782-39.378-32.964-46.259-10.267-4.98-20.482.451-27.028,3.837a80.017,80.017,0,0,1-28.862,19.589,123.85,123.85,0,0,1-70.937,6.542c-45.177-9.312-77.74-48.177-93.97-66.209-15.972-17.743-24.039-36.45-30.254-49.577-.146-20.694.042-47.859-10.6-71.839q-1.23-2.752-2.671-5.418c-12.286-22.611-32.382-34.487-39.659-40.1-2.771-2.135-4.423-3.642-3.253-5.621,5.378-9.11,58.8,2.305,83.3-19.832,3.57-.351,12.414-10.323,10.915-18.21-1.551-8.159-17.931-3.391-17.861-12.642.039-5.124,2.087-15.767,18.337-32.63,2.966-2.776,9.721-6.521,16.724-13.678,19.109-19.53,24.836-51.194,34.834-80.147a270.315,270.315,0,0,1,27.057-55.967C2339.771,545.045,2349.839,536.235,2362.643,532.319Z" transform="translate(27.071 72.622)" fill="none" stroke="#4a98c4" stroke-miterlimit="7.869" stroke-width="0.31"/><path d="M2363.281,530.815c20.725-6.714,43.958,2.691,71.844,22.019,19.311,13.444,39.582,28.191,58.387,39.585,25.665,15.551,49.438,25.375,67.466,16.733,38.449-18.433,15.406-97.325,39-100.642,6.98-.982,16.087,5.234,25.061,16.734,21.592,27.673,36.093,71.724,48.749,113.666,4.5,14.921,8.18,29.016,9.155,41.41,1.632,20.735-1.256,34.489.178,34.871-4.048,17.963-9.05,20.3-7.183,29.79,3.966,20.173,34.945,26.5,36.494,42.333.98,10.013-9.12,13.358-17.661,27.984-.785,1.341-1.644,2.684-2.355,4.153-5.265,10.855-6.787,21-12.173,30.88-3.54,6.493-8.952,11.553-12.672,16.525a27.06,27.06,0,0,0-5.039,10.473c-8.05,37.244,47.364,80.123,36.948,95.09-10.322,14.733-58.656-7.9-97.7-17.192-16.869-4.07-29.4-5.539-34.815-.154-2.014,2-2.735,4.468-2.786,7.561-.305,18.382,32.165,55.133,21.486,80.657a21.936,21.936,0,0,1-1.8,3.339c-13.748,21.565-58.787,26.746-83.5,6.688-18.066-14.664-18.911-39.954-33.391-46.769-10.466-4.926-20.914.859-27.593,4.531A83.136,83.136,0,0,1,2410,1032.066a122.266,122.266,0,0,1-72.029,7.721c-45.919-9.207-78.691-49.086-94.819-67.371-16.041-18.189-24.048-37.265-30.156-50.617.254-21.072.756-48.729-10.064-72.949q-1.251-2.782-2.723-5.473c-12.545-22.841-33.329-34.543-41.007-40.213-2.917-2.153-4.653-3.7-3.521-5.744,5.2-9.361,59.61,1.92,84.336-21.263,3.527-.489,12.552-10.879,10.812-19.1-1.828-8.638-18.938-3.909-18.987-13.362-.028-5.2,2.181-15.887,19.061-32.887,3.116-2.722,10.115-6.441,17.406-13.641,19.839-19.583,26-51.514,36.012-80.918a292.94,292.94,0,0,1,26.766-57.228C2340.16,544.373,2350.245,535.039,2363.281,530.815Z" transform="translate(26.036 69.832)" fill="none" stroke="#4a98c4" stroke-miterlimit="7.951" stroke-width="0.316"/><path d="M2363.918,529.312c21.183-7.236,45.14,2.448,73.677,22,19.76,13.6,40.48,28.607,59.727,40.2,26.249,15.818,50.551,25.782,68.947,16.774,39.212-19.206,15.226-100.488,39.283-104.126,7.123-1.076,16.426,5.254,25.63,16.987,21.953,27.981,37.244,73.059,50.013,115.881,4.547,15.251,8.2,29.681,9.124,42.372,1.541,21.28-1.479,35.383-.1,35.747-4.252,18.438-9.486,20.822-7.649,30.546,3.907,20.688,35.681,27.11,37.12,43.284.9,10.058-9.265,13.411-18.233,28.094-.821,1.346-1.718,2.7-2.476,4.175-5.567,10.865-7.5,21.17-13.022,31.17-3.627,6.563-9.005,11.743-12.684,16.792a28,28,0,0,0-5,10.628c-8.122,37.895,47.222,81.075,36.555,96.346-10.577,15.046-59.687-7.9-99.085-17.305-17.086-4.134-29.828-5.611-35.294-.066-2.025,2.053-2.733,4.581-2.747,7.734-.082,18.673,32.958,55.726,22.106,81.753a22.862,22.862,0,0,1-1.812,3.392c-13.942,22.075-59.788,27.742-84.786,7.587-18.333-14.782-19.039-40.528-33.817-47.28-10.663-4.87-21.347,1.269-28.155,5.227a86.5,86.5,0,0,1-29.913,22.383,121,121,0,0,1-73.121,8.9c-46.66-9.105-79.642-50-95.667-68.535-16.11-18.635-24.057-38.08-30.06-51.658.656-21.449,1.472-49.6-9.525-74.058q-1.274-2.811-2.776-5.531c-12.806-23.067-34.278-34.6-42.355-40.328-3.061-2.172-4.886-3.761-3.786-5.868,5.018-9.61,60.414,1.537,85.37-22.693,3.483-.626,12.685-11.435,10.71-19.981-2.109-9.122-19.945-4.429-20.115-14.082-.092-5.268,2.274-16,19.786-33.146,3.264-2.668,10.509-6.36,18.089-13.6,20.568-19.64,27.155-51.837,37.191-81.69a317.407,317.407,0,0,1,26.476-58.487C2340.55,543.7,2350.652,533.844,2363.918,529.312Z" transform="translate(25 67.041)" fill="none" stroke="#4a98c4" stroke-miterlimit="8.033" stroke-width="0.322"/><path d="M2364.558,527.808c21.635-7.759,46.322,2.2,75.509,21.981,20.207,13.745,41.38,29.022,61.066,40.825,26.832,16.083,51.667,26.187,70.428,16.812,39.977-19.978,15.045-103.65,39.572-107.607,7.265-1.172,16.764,5.273,26.2,17.236,22.313,28.291,38.393,74.4,51.275,118.1,4.593,15.583,8.227,30.35,9.092,43.335,1.451,21.824-1.7,36.275-.381,36.625-4.453,18.914-9.921,21.342-8.114,31.3,3.849,21.2,36.42,27.72,37.747,44.235.811,10.1-9.41,13.463-18.805,28.2-.859,1.349-1.794,2.7-2.6,4.194-5.869,10.876-8.21,21.339-13.873,31.46-3.712,6.636-9.057,11.934-12.7,17.059a29.067,29.067,0,0,0-4.97,10.784c-8.19,38.544,47.084,82.028,36.163,97.6-10.832,15.357-60.72-7.9-100.471-17.42-17.3-4.2-30.26-5.683-35.775.021-2.037,2.105-2.732,4.694-2.709,7.91.141,18.963,33.751,56.321,22.728,82.848a23.307,23.307,0,0,1-1.828,3.447c-14.135,22.585-60.786,28.738-86.07,8.485-18.6-14.9-19.166-41.1-34.244-47.79-10.859-4.816-21.778,1.679-28.717,5.921a89.967,89.967,0,0,1-30.437,23.78,120,120,0,0,1-74.212,10.079c-47.4-9-80.592-50.905-96.518-69.7-16.172-19.083-24.066-38.895-29.962-52.7,1.055-21.826,2.187-50.468-8.987-75.166q-1.3-2.841-2.827-5.588c-13.067-23.295-35.222-34.646-43.7-40.443-3.205-2.19-5.117-3.822-4.052-5.991,4.838-9.863,61.219,1.151,86.4-24.125,3.44-.764,12.816-11.993,10.607-20.867-2.391-9.607-20.95-4.949-21.242-14.8-.157-5.342,2.368-16.125,20.511-33.4,3.414-2.614,10.9-6.282,18.773-13.562,21.3-19.7,28.313-52.158,38.367-82.461,7.59-22.677,17.054-43.781,26.185-59.748C2340.937,543.034,2351.056,532.65,2364.558,527.808Z" transform="translate(23.964 64.25)" fill="none" stroke="#4a98c4" stroke-miterlimit="8.115" stroke-width="0.328"/><path d="M2365.2,526.3c22.085-8.279,47.5,1.963,77.34,21.963,20.657,13.9,42.258,29.478,62.407,41.444,27.381,16.4,52.78,26.594,71.905,16.853,40.742-20.75,14.867-106.813,39.862-111.09,7.408-1.267,17.1,5.295,26.769,17.487,22.674,28.6,39.544,75.728,52.537,120.31,4.639,15.915,8.252,31.019,9.061,44.3,1.362,22.369-1.922,37.168-.659,37.5-4.657,19.387-10.36,21.86-8.579,32.056,3.79,21.714,37.162,28.332,38.372,45.186.729,10.146-9.556,13.517-19.376,28.314-.9,1.354-1.871,2.715-2.72,4.216-6.17,10.889-8.923,21.506-14.723,31.749-3.8,6.71-9.107,12.124-12.711,17.328a30.144,30.144,0,0,0-4.935,10.938c-8.259,39.2,46.942,82.982,35.77,98.863-11.086,15.669-61.752-7.9-101.858-17.535-17.519-4.258-30.692-5.755-36.255.11-2.044,2.158-2.728,4.808-2.667,8.084.362,19.255,34.543,56.916,23.347,83.943a24.353,24.353,0,0,1-1.843,3.5c-14.328,23.095-61.788,29.734-87.354,9.386-18.871-15.019-19.3-41.681-34.672-48.3-11.058-4.762-22.211,2.089-29.28,6.616a93.6,93.6,0,0,1-30.963,25.179,119.254,119.254,0,0,1-75.3,11.258c-48.144-8.9-81.538-51.819-97.366-70.862-16.234-19.532-24.075-39.71-29.865-53.739,1.456-22.2,2.9-51.338-8.449-76.276q-1.316-2.873-2.88-5.644c-13.327-23.523-36.165-34.7-45.051-40.559-3.35-2.208-5.349-3.881-4.319-6.116,4.662-10.113,62.025.767,87.441-25.554,3.4-.9,12.942-12.552,10.5-21.752-2.674-10.094-21.952-5.468-22.368-15.521-.223-5.414,2.461-16.244,21.234-33.662,3.564-2.56,11.3-6.2,19.456-13.521,22.027-19.758,29.471-52.481,39.545-83.235,7.6-23,16.85-44.566,25.894-61.007C2341.325,542.366,2351.456,531.456,2365.2,526.3Z" transform="translate(22.927 61.459)" fill="none" stroke="#4a98c4" stroke-miterlimit="8.197" stroke-width="0.335"/><path d="M2365.839,524.8c22.531-8.8,48.686,1.718,79.172,21.944,21.1,14.051,43.159,29.895,63.747,42.064,27.967,16.667,53.893,27,73.386,16.894,41.507-21.523,14.686-109.978,40.151-114.574,7.551-1.363,17.442,5.316,27.34,17.74,23.033,28.909,40.692,77.063,53.8,122.525,4.684,16.244,8.277,31.685,9.031,45.258,1.271,22.913-2.145,38.062-.939,38.383-4.858,19.861-10.8,22.378-9.045,32.81,3.73,22.229,37.908,28.945,39,46.139.648,10.191-9.7,13.572-19.948,28.422-.936,1.358-1.946,2.727-2.842,4.237-6.471,10.906-9.635,21.673-15.571,32.039-3.887,6.782-9.16,12.314-12.725,17.6a31.214,31.214,0,0,0-4.9,11.094c-8.326,39.848,46.8,83.935,35.376,100.12-11.34,15.98-62.783-7.895-103.244-17.649-17.735-4.322-31.125-5.828-36.736.2-2.056,2.209-2.726,4.919-2.628,8.256.582,19.548,35.335,57.512,23.967,85.04a24.938,24.938,0,0,1-1.859,3.555c-14.52,23.607-62.787,30.729-88.638,10.284-19.14-15.138-19.423-42.256-35.1-48.813-11.255-4.707-22.642,2.5-29.843,7.31a97.4,97.4,0,0,1-31.488,26.578c-22.1,11.778-49.148,17.335-76.4,12.435-48.885-8.79-82.481-52.729-98.216-72.024-16.293-19.983-24.083-40.524-29.768-54.78,1.858-22.582,3.62-52.207-7.91-77.385q-1.338-2.9-2.932-5.7c-13.586-23.751-37.106-34.748-46.4-40.674-3.492-2.227-5.578-3.942-4.583-6.241,4.486-10.364,62.831.384,88.475-26.984,3.353-1.041,13.066-13.109,10.4-22.636-2.962-10.586-22.957-5.991-23.5-16.243-.287-5.488,2.555-16.364,21.959-33.92,3.713-2.506,11.69-6.128,20.138-13.483,22.76-19.819,30.631-52.8,40.725-84.005,7.606-23.328,16.64-45.353,25.6-62.268C2341.714,541.7,2351.857,530.265,2365.839,524.8Z" transform="translate(21.888 58.666)" fill="none" stroke="#4a98c4" stroke-miterlimit="8.279" stroke-width="0.341"/><path d="M2366.48,523.3c22.975-9.323,49.867,1.474,81.005,21.924,21.553,14.2,44.058,30.31,65.087,42.686,28.55,16.931,55.008,27.407,74.866,16.933,42.273-22.3,14.505-113.141,40.439-118.057,7.691-1.458,17.78,5.337,27.909,17.99,23.393,29.217,41.844,78.4,55.062,124.738,4.727,16.577,8.3,32.353,9,46.221,1.181,23.457-2.366,38.955-1.218,39.26-5.062,20.339-11.233,22.9-9.51,33.566,3.671,22.744,38.657,29.559,39.624,47.092.566,10.235-9.846,13.624-20.519,28.53-.976,1.363-2.024,2.74-2.965,4.258-6.772,10.922-10.346,21.84-16.423,32.328-3.971,6.855-9.208,12.506-12.736,17.864a32.386,32.386,0,0,0-4.866,11.25c-8.4,40.5,46.662,84.888,34.983,101.378-11.6,16.292-63.817-7.9-104.632-17.763-17.951-4.386-31.555-5.9-37.214.284-2.067,2.261-2.727,5.034-2.589,8.431.8,19.842,36.127,58.107,24.585,86.135a25.714,25.714,0,0,1-1.872,3.609c-14.711,24.116-63.789,31.726-89.923,11.183-19.409-15.256-19.552-42.833-35.525-49.323-11.453-4.655-23.075,2.907-30.406,8a101.26,101.26,0,0,1-32.015,27.974c-22.448,12.483-49.9,18.443-77.488,13.614-49.626-8.682-83.422-53.64-99.062-73.187-16.35-20.434-24.094-41.34-29.672-55.821,2.26-22.959,4.335-53.075-7.372-78.493q-1.359-2.932-2.984-5.759c-13.848-23.977-38.043-34.8-47.749-40.789-3.635-2.245-5.809-4-4.849-6.364,4.312-10.617,63.637,0,89.511-28.416,3.309-1.179,13.188-13.67,10.3-23.521-3.248-11.076-23.958-6.513-24.623-16.962-.352-5.562,2.648-16.482,22.684-34.179,3.863-2.451,12.084-6.049,20.82-13.444,23.492-19.883,31.79-53.122,41.9-84.776,7.615-23.654,16.434-46.139,25.311-63.529C2342.1,541.032,2352.254,529.072,2366.48,523.3Z" transform="translate(20.85 55.875)" fill="none" stroke="#4a98c4" stroke-miterlimit="8.361" stroke-width="0.347"/><path d="M2367.121,521.8c23.416-9.846,51.048,1.231,82.837,21.9,22,14.355,44.96,30.724,66.427,43.306,29.136,17.2,56.123,27.814,76.345,16.974,43.038-23.069,14.326-116.305,40.728-121.539,7.836-1.554,18.116,5.358,28.479,18.241,23.755,29.527,42.994,79.731,56.325,126.952,4.773,16.908,8.325,33.02,8.967,47.183,1.091,24-2.587,39.849-1.5,40.139-5.265,20.813-11.668,23.418-9.976,34.322,3.613,23.256,39.409,30.172,40.251,48.041.485,10.282-9.992,13.68-21.091,28.642-1.013,1.366-2.1,2.75-3.086,4.278-7.074,10.94-11.058,22.008-17.272,32.618-4.057,6.926-9.26,12.7-12.75,18.132a33.678,33.678,0,0,0-4.833,11.406c-8.46,41.148,46.523,85.84,34.591,102.636-11.85,16.6-64.848-7.895-106.019-17.878-18.166-4.45-31.988-5.975-37.694.372-2.079,2.312-2.724,5.147-2.548,8.605,1.021,20.137,36.917,58.7,25.205,87.232a26.594,26.594,0,0,1-1.888,3.662c-14.9,24.628-64.788,32.723-91.207,12.081-19.677-15.374-19.68-43.409-35.952-49.835-11.652-4.6-23.509,3.319-30.97,8.7a105.258,105.258,0,0,1-32.54,29.373c-22.8,13.188-50.643,19.55-78.579,14.793-50.366-8.577-84.362-54.552-99.911-74.351-16.4-20.886-24.1-42.156-29.576-56.861,2.661-23.337,5.051-53.945-6.833-79.6q-1.38-2.964-3.035-5.814c-14.107-24.207-38.983-34.848-49.1-40.9-3.778-2.263-6.039-4.063-5.116-6.488,4.139-10.87,64.441-.385,90.549-29.845,3.263-1.318,13.306-14.229,10.194-24.407-3.536-11.568-24.961-7.036-25.748-17.682-.418-5.637,2.74-16.6,23.406-34.436,4.012-2.4,12.479-5.974,21.5-13.4,24.225-19.948,32.948-53.445,43.079-85.548,7.625-23.982,16.227-46.924,25.02-64.79C2342.487,540.366,2352.65,527.88,2367.121,521.8Z" transform="translate(19.812 53.082)" fill="none" stroke="#4a98c4" stroke-miterlimit="8.443" stroke-width="0.353"/><path d="M2367.764,520.294c23.854-10.368,52.23.989,84.669,21.886,22.449,14.506,45.858,31.141,67.767,43.925,29.717,17.461,57.236,28.221,77.823,17.015,43.8-23.841,14.144-119.47,41.017-125.024,7.978-1.648,18.454,5.382,29.05,18.492,24.112,29.839,44.142,81.067,57.586,129.169,4.817,17.238,8.349,33.685,8.936,48.144,1,24.544-2.809,40.743-1.776,41.018-5.466,21.288-12.105,23.936-10.439,35.076,3.552,23.77,40.164,30.787,40.875,48.994.405,10.328-10.136,13.734-21.661,28.75-1.053,1.371-2.176,2.761-3.211,4.3-7.372,10.961-11.769,22.175-18.12,32.907-4.143,7-9.31,12.886-12.762,18.4a34.881,34.881,0,0,0-4.8,11.56c-8.528,41.8,46.381,86.795,34.2,103.895-12.1,16.913-65.879-7.895-107.4-17.992-18.384-4.512-32.424-6.047-38.175.461-2.091,2.364-2.723,5.26-2.509,8.779,1.242,20.43,37.71,59.3,25.825,88.328a27.376,27.376,0,0,1-1.9,3.716c-15.091,25.138-65.788,33.72-92.492,12.979-19.945-15.49-19.808-43.986-36.378-50.345-11.849-4.547-23.941,3.727-31.533,9.392a109.37,109.37,0,0,1-33.066,30.77c-23.144,13.893-51.391,20.658-79.67,15.972-51.109-8.467-85.3-55.464-100.761-75.514-16.453-21.339-24.112-42.971-29.479-57.9,3.062-23.715,5.767-54.814-6.295-80.711q-1.4-2.993-3.088-5.872c-14.368-24.434-39.92-34.9-50.446-41.02-3.919-2.281-6.271-4.124-5.382-6.613,3.966-11.123,65.246-.771,91.583-31.275,3.22-1.456,13.424-14.788,10.092-25.292-3.825-12.061-25.962-7.559-26.876-18.4-.481-5.711,2.833-16.721,24.131-34.7,4.161-2.343,12.873-5.9,22.187-13.365,24.959-20.014,34.106-53.767,44.258-86.319,7.632-24.308,16.016-47.708,24.728-66.051C2342.874,539.7,2353.044,526.691,2367.764,520.294Z" transform="translate(18.773 50.29)" fill="none" stroke="#4a98c4" stroke-miterlimit="8.525" stroke-width="0.359"/><path d="M2368.406,518.792c24.292-10.889,53.413.744,86.5,21.868,22.9,14.657,46.759,31.554,69.106,44.543,30.3,17.727,58.351,28.627,79.3,17.056,44.57-24.615,13.964-122.633,41.306-128.506,8.119-1.745,18.79,5.4,29.618,18.743,24.472,30.15,45.293,82.4,58.848,131.382,4.864,17.569,8.373,34.351,8.907,49.107.906,25.089-3.032,41.636-2.056,41.9-5.67,21.763-12.542,24.456-10.906,35.832,3.492,24.284,40.922,31.4,41.5,49.945.325,10.378-10.282,13.79-22.234,28.86-1.09,1.376-2.252,2.774-3.33,4.32-7.674,10.983-12.483,22.344-18.973,33.2-4.228,7.072-9.359,13.076-12.774,18.668a36.232,36.232,0,0,0-4.763,11.715c-8.594,42.451,46.24,87.747,33.8,105.153-12.359,17.225-66.911-7.895-108.792-18.107-18.6-4.575-32.856-6.119-38.653.548-2.1,2.417-2.722,5.375-2.47,8.954,1.459,20.725,38.5,59.889,26.445,89.423a28.33,28.33,0,0,1-1.919,3.77c-15.279,25.65-66.789,34.717-93.778,13.878-20.214-15.608-19.935-44.563-36.8-50.856-12.048-4.493-24.372,4.138-32.1,10.087a113.621,113.621,0,0,1-33.59,32.169c-23.492,14.6-52.136,21.765-80.762,17.151-51.85-8.361-86.237-56.375-101.609-76.677-16.5-21.793-24.122-43.786-29.382-58.942,3.461-24.093,6.481-55.685-5.757-81.82q-1.424-3.025-3.138-5.931c-14.63-24.661-40.856-34.945-51.8-41.134-4.062-2.3-6.5-4.185-5.649-6.736,3.794-11.379,66.053-1.156,92.619-32.707,3.176-1.594,13.539-15.349,9.989-26.177-4.116-12.555-26.962-8.082-28-19.123-.545-5.785,2.927-16.838,24.855-34.952,4.313-2.289,13.27-5.822,22.87-13.327,25.694-20.081,35.268-54.086,45.438-87.09,7.642-24.634,15.805-48.492,24.435-67.312C2343.26,539.037,2353.439,525.5,2368.406,518.792Z" transform="translate(17.732 47.497)" fill="none" stroke="#4a98c4" stroke-miterlimit="8.607" stroke-width="0.365"/><path d="M2369.048,517.29c24.727-11.41,54.595.5,88.335,21.849,23.346,14.81,47.66,31.969,70.445,45.165,30.886,17.991,59.466,29.032,80.784,17.1,45.335-25.387,13.783-125.8,41.6-131.989,8.262-1.84,19.127,5.424,30.189,18.994,24.831,30.462,46.44,83.735,60.111,133.6,4.906,17.9,8.4,35.017,8.874,50.067.815,25.631-3.253,42.53-2.335,42.774-5.872,22.237-12.978,24.974-11.371,36.588,3.433,24.8,41.682,32.017,42.128,50.9.246,10.425-10.428,13.844-22.8,28.968-1.13,1.381-2.328,2.788-3.455,4.342-7.974,11.005-13.193,22.511-19.82,33.485-4.316,7.146-9.41,13.268-12.789,18.938a37.627,37.627,0,0,0-4.728,11.87c-8.659,43.1,46.1,88.7,33.41,106.41-12.612,17.536-67.943-7.895-110.176-18.222-18.816-4.639-33.291-6.193-39.136.636-2.112,2.468-2.72,5.488-2.428,9.128,1.677,21.022,39.292,60.483,27.063,90.517a28.868,28.868,0,0,1-1.934,3.825c-15.468,26.161-67.789,35.714-95.061,14.777-20.483-15.724-20.063-45.14-37.232-51.366-12.245-4.44-24.8,4.547-32.657,10.781a117.93,117.93,0,0,1-34.116,33.568c-23.838,15.3-52.885,22.873-81.854,18.328-52.591-8.251-87.172-57.287-102.458-77.84-16.547-22.249-24.13-44.6-29.285-59.983,3.863-24.469,7.2-56.554-5.218-82.928q-1.446-3.054-3.191-5.986c-14.89-24.89-41.789-34.994-53.143-41.251-4.2-2.317-6.729-4.245-5.915-6.86,3.624-11.634,66.858-1.54,93.653-34.136,3.134-1.732,13.654-15.91,9.886-27.063-4.407-13.05-27.961-8.607-29.128-19.843-.61-5.86,3.022-16.957,25.578-35.21,4.462-2.235,13.665-5.747,23.552-13.286,26.43-20.152,36.427-54.409,46.616-87.862,7.651-24.961,15.6-49.276,24.144-68.573C2343.645,538.371,2353.831,524.313,2369.048,517.29Z" transform="translate(16.692 44.705)" fill="none" stroke="#4a98c4" stroke-miterlimit="8.689" stroke-width="0.371"/><path d="M2369.692,515.789c25.159-11.932,55.775.258,90.166,21.829,23.795,14.962,48.56,32.385,71.786,45.785,31.469,18.255,60.58,29.439,82.262,17.135,46.1-26.158,13.6-128.959,41.884-135.472,8.4-1.935,19.463,5.449,30.759,19.247,25.19,30.772,47.59,85.068,61.373,135.811,4.952,18.232,8.42,35.683,8.843,51.03.723,26.174-3.475,43.424-2.614,43.653-6.075,22.713-13.416,25.492-11.835,37.342,3.373,25.31,42.445,32.633,42.753,51.847.169,10.474-10.573,13.9-23.377,29.08-1.167,1.382-2.4,2.8-3.576,4.362-8.276,11.032-13.9,22.678-20.67,33.776-4.4,7.218-9.459,13.458-12.8,19.205a39,39,0,0,0-4.693,12.024c-8.725,43.753,45.96,89.654,33.016,107.669-12.867,17.848-68.974-7.9-111.563-18.335-19.032-4.7-33.723-6.267-39.615.723-2.125,2.52-2.719,5.6-2.389,9.3,1.9,21.321,40.082,61.08,27.683,91.615a29.835,29.835,0,0,1-1.948,3.878c-15.657,26.671-68.791,36.711-96.347,15.675-20.752-15.841-20.193-45.717-37.658-51.878-12.442-4.386-25.237,4.958-33.222,11.478a122.358,122.358,0,0,1-34.642,34.963c-24.183,16-53.632,23.984-82.946,19.507-53.331-8.141-88.1-58.2-103.306-79-16.59-22.7-24.14-45.416-29.188-61.024,4.263-24.846,7.913-57.423-4.679-84.037q-1.466-3.086-3.244-6.044c-15.149-25.116-42.721-35.041-54.491-41.365-4.343-2.335-6.959-4.306-6.182-6.985,3.455-11.889,62.221-7.139,94.689-35.566,2.717-2.379,13.767-16.469,9.784-27.947-4.7-13.547-28.962-9.131-30.257-20.565-.672-5.937,3.114-17.077,26.3-35.468,4.611-2.181,14.06-5.675,24.236-13.249,27.165-20.22,37.585-54.731,47.791-88.633,7.661-25.287,15.387-50.058,23.854-69.834C2344.031,537.71,2354.224,523.125,2369.692,515.789Z" transform="translate(15.652 41.911)" fill="none" stroke="#4a98c4" stroke-miterlimit="8.77" stroke-width="0.377"/><path d="M2370.335,514.286c25.591-12.452,56.959.015,92,21.811,24.243,15.114,49.461,32.8,73.126,46.4,32.053,18.52,61.694,29.845,83.743,17.176,46.867-26.932,13.419-132.123,42.173-138.954,8.545-2.03,19.8,5.47,31.327,19.5,25.551,31.085,48.74,86.4,62.635,138.025,5,18.563,8.443,36.348,8.813,51.992.63,26.715-3.7,44.317-2.894,44.53-6.277,23.188-13.852,26.012-12.3,38.1,3.314,25.825,43.212,33.251,43.379,52.8.09,10.524-10.718,13.956-23.949,29.188-1.2,1.387-2.477,2.81-3.7,4.383-8.578,11.057-14.616,22.847-21.521,34.064-4.486,7.292-9.509,13.649-12.814,19.474a40.556,40.556,0,0,0-4.66,12.179c-8.789,44.4,45.82,90.609,32.624,108.927-13.123,18.159-70.006-7.9-112.951-18.45-19.246-4.767-34.158-6.339-40.1.812-2.135,2.571-2.717,5.714-2.348,9.474,2.112,21.617,40.874,61.673,28.3,92.711a30.857,30.857,0,0,1-1.965,3.932c-15.844,27.184-69.791,37.709-97.631,16.574-21.021-15.957-20.321-46.3-38.085-52.388-12.64-4.336-25.669,5.366-33.784,12.171a126.888,126.888,0,0,1-35.167,36.362c-24.53,16.708-54.378,25.09-84.039,20.686-54.072-8.033-89.034-59.11-104.156-80.167-16.629-23.16-24.146-46.231-29.09-62.063,4.664-25.225,8.628-58.292-4.141-85.147a69.051,69.051,0,0,0-3.294-6.1c-15.411-25.346-43.656-35.091-55.841-41.482-4.485-2.353-7.188-4.367-6.447-7.108,3.284-12.147,63.26-7.126,95.724-37,2.684-2.471,13.879-17.03,9.681-28.832-4.994-14.044-29.958-9.658-31.384-21.285-.736-6.013,3.209-17.2,27.029-35.727,4.76-2.127,14.456-5.6,24.919-13.209,27.9-20.291,38.744-55.052,48.97-89.4,7.668-25.615,15.175-50.84,23.562-71.095C2344.416,537.047,2354.613,521.937,2370.335,514.286Z" transform="translate(14.611 39.118)" fill="none" stroke="#4a98c4" stroke-miterlimit="8.852" stroke-width="0.383"/><path d="M2370.98,512.785c26.02-12.971,58.14-.228,93.83,21.791,24.692,15.265,50.361,33.215,74.466,47.024,32.638,18.786,62.809,30.252,85.222,17.216,47.636-27.7,13.239-135.288,42.463-142.437,8.688-2.127,20.135,5.493,31.9,19.747,25.908,31.4,49.888,87.737,63.9,140.241,5.043,18.892,8.468,37.014,8.783,52.954.538,27.258-3.919,45.211-3.173,45.409-6.481,23.664-14.289,26.532-12.767,38.854,3.255,26.336,43.981,33.868,44.006,53.75.013,10.574-10.863,14.011-24.52,29.3-1.245,1.392-2.554,2.824-3.82,4.4-8.879,11.084-15.328,23.014-22.371,34.354-4.573,7.364-9.557,13.839-12.827,19.742a42.124,42.124,0,0,0-4.625,12.335c-8.854,45.055,45.681,91.561,32.231,110.185-13.376,18.471-71.037-7.895-114.336-18.564-19.465-4.829-34.592-6.411-40.576.9-2.148,2.623-2.717,5.829-2.31,9.649,2.331,21.916,41.666,62.267,28.924,93.806a31.744,31.744,0,0,1-1.979,3.988c-16.032,27.694-70.792,38.7-98.917,17.472-21.291-16.075-20.448-46.875-38.511-52.9-12.838-4.283-26.1,5.777-34.348,12.865a131.454,131.454,0,0,1-35.692,37.759c-24.876,17.412-55.126,26.2-85.129,21.865-54.813-7.921-89.966-60.02-105.005-81.329-16.669-23.616-24.156-47.045-28.995-63.1,5.065-25.6,9.344-59.161-3.6-86.255a68.9,68.9,0,0,0-3.347-6.157c-15.672-25.573-44.586-35.138-57.189-41.6-4.624-2.371-7.417-4.429-6.713-7.233,3.115-12.4,64.326-7.113,96.759-38.427,2.655-2.565,13.99-17.591,9.579-29.717-5.29-14.539-30.959-10.182-32.512-22-.8-6.09,3.3-17.315,27.753-35.984,4.909-2.073,14.851-5.528,25.6-13.17,28.64-20.365,39.9-55.373,50.15-90.176,7.679-25.941,14.962-51.62,23.27-72.356C2344.8,536.385,2355,520.751,2370.98,512.785Z" transform="translate(13.569 36.325)" fill="none" stroke="#4a98c4" stroke-miterlimit="8.934" stroke-width="0.389"/><path d="M2371.624,511.285c26.45-13.493,59.322-.472,95.663,21.772,25.141,15.418,51.263,33.631,75.806,47.646,33.221,19.05,63.924,30.657,86.7,17.256,48.4-28.478,13.057-138.453,42.751-145.921,8.83-2.22,20.471,5.518,32.467,20,26.268,31.71,50.939,89.1,65.161,142.455,5.05,19.233,8.488,37.68,8.749,53.916.446,27.8-4.14,46.1-3.452,46.288-6.683,24.138-14.726,27.05-13.232,39.608,3.194,26.851,44.753,34.487,44.632,54.7-.063,10.627-11.009,14.067-25.092,29.407-1.282,1.4-2.63,2.837-3.942,4.422-9.181,11.115-16.039,23.183-23.221,34.646-4.658,7.436-9.6,14.029-12.84,20.009a43.853,43.853,0,0,0-4.589,12.491c-8.918,45.706,45.541,92.514,31.838,111.442-13.631,18.782-72.07-7.895-115.724-18.679-19.68-4.893-35.027-6.485-41.055.987-2.159,2.676-2.715,5.942-2.271,9.823,2.548,22.214,42.456,62.862,29.542,94.9a32.493,32.493,0,0,1-1.994,4.042c-16.218,28.206-71.793,39.7-100.2,18.371-21.56-16.192-20.578-47.454-38.937-53.411-13.037-4.23-26.533,6.187-34.911,13.56a136.143,136.143,0,0,1-36.219,39.157c-25.22,18.114-55.872,27.31-86.22,23.044-55.554-7.811-90.892-60.932-105.854-82.494-16.7-24.074-24.164-47.86-28.9-64.146,5.465-25.979,10.06-60.03-3.064-87.364a68.3,68.3,0,0,0-3.4-6.214c-15.931-25.8-45.518-35.186-58.537-41.712-4.765-2.389-7.647-4.489-6.98-7.356,2.947-12.663,65.421-7.1,97.8-39.859,2.627-2.66,14.1-18.151,9.475-30.6-5.585-15.036-31.956-10.709-33.638-22.724-.863-6.167,3.4-17.435,28.476-36.242,5.06-2.02,15.248-5.455,26.284-13.132,29.38-20.437,41.063-55.695,51.328-90.946,7.687-26.268,14.749-52.4,22.98-73.617C2345.186,535.724,2355.392,519.565,2371.624,511.285Z" transform="translate(12.527 33.531)" fill="none" stroke="#4a98c4" stroke-miterlimit="9.016" stroke-width="0.395"/><path d="M2372.268,509.784c26.876-14.011,60.5-.716,97.5,21.754,25.589,15.569,52.163,34.045,77.146,48.264,33.805,19.314,65.038,31.064,88.182,17.3,49.168-29.25,12.875-141.616,43.04-149.4,8.972-2.317,20.806,5.54,33.038,20.25,26.625,32.023,52.1,90.43,66.422,144.669,5.1,19.565,8.513,38.346,8.718,54.878.354,28.342-4.362,47-3.73,47.165-6.885,24.613-15.162,27.57-13.7,40.364,3.134,27.365,45.527,35.109,45.257,55.654-.141,10.678-11.155,14.122-25.663,29.516-1.32,1.4-2.707,2.85-4.064,4.444-9.484,11.145-16.729,23.365-24.071,34.935-4.73,7.518-9.655,14.221-12.853,20.278a45.47,45.47,0,0,0-4.555,12.645c-8.982,46.359,45.4,93.468,31.444,112.7-13.885,19.092-73.1-7.9-117.109-18.794-19.9-4.955-35.462-6.557-41.536,1.076-2.169,2.727-2.713,6.055-2.229,10,2.764,22.513,43.246,63.456,30.161,96a33.438,33.438,0,0,1-2.009,4.1c-16.4,28.717-72.795,40.7-101.484,19.27-21.831-16.308-20.708-48.033-39.365-53.921-13.237-4.178-26.966,6.595-35.475,14.254a140.884,140.884,0,0,1-36.744,40.556c-25.564,18.815-56.619,28.419-87.312,24.221-56.293-7.7-91.818-61.844-106.7-83.656-16.738-24.533-24.174-48.676-28.8-65.185,5.867-26.358,10.775-60.9-2.527-88.474a67.875,67.875,0,0,0-3.45-6.272c-16.193-26.028-46.448-35.232-59.885-41.826-4.9-2.407-7.875-4.552-7.246-7.48,2.779-12.922,66.536-7.1,98.83-41.289,2.6-2.756,14.209-18.712,9.372-31.488-5.88-15.534-32.953-11.237-34.764-23.444-.927-6.244,3.49-17.555,29.2-36.5,5.209-1.964,15.644-5.381,26.968-13.093,30.117-20.511,42.22-56.016,52.505-91.717,7.7-26.594,14.536-53.181,22.687-74.876C2345.573,535.064,2355.78,518.379,2372.268,509.784Z" transform="translate(11.486 30.738)" fill="none" stroke="#4a98c4" stroke-miterlimit="9.098" stroke-width="0.402"/><path d="M2372.914,508.284c27.3-14.529,61.685-.958,99.329,21.736,26.036,15.721,53.061,34.459,78.484,48.884,34.389,19.579,66.181,31.514,89.661,17.338,49.992-29.931,12.679-144.838,43.33-152.888,9.108-2.428,21.142,5.565,33.606,20.5,26.986,32.336,53.252,91.761,67.685,146.884,5.145,19.894,8.536,39.008,8.689,55.839.26,28.883-4.585,47.892-4.011,48.044-7.088,25.089-15.6,28.088-14.162,41.118,3.075,27.878,46.3,35.729,45.883,56.605-.216,10.732-11.3,14.18-26.235,29.626-1.357,1.405-2.782,2.863-4.187,4.465-9.787,11.176-17.442,23.533-24.919,35.225-4.817,7.59-9.7,14.409-12.866,20.545a47.409,47.409,0,0,0-4.522,12.8c-9.042,47.009,45.26,94.421,31.052,113.959-14.141,19.4-74.134-7.9-118.5-18.907-20.112-5.019-35.9-6.631-42.015,1.161-2.183,2.779-2.714,6.172-2.191,10.171,2.981,22.814,43.974,64.026,30.782,97.093a34.586,34.586,0,0,1-2.026,4.15c-16.588,29.229-73.795,41.7-102.768,20.168-22.1-16.425-20.836-48.612-39.792-54.432-13.435-4.125-27.4,7.006-36.037,14.949a145.694,145.694,0,0,1-37.27,41.953c-25.907,19.519-57.365,29.529-88.4,25.4-57.035-7.587-92.744-62.752-107.549-84.819-16.769-24.99-24.184-49.49-28.7-66.227,6.269-26.735,11.491-61.77-1.987-89.582a67.394,67.394,0,0,0-3.5-6.327c-16.452-26.256-47.377-35.281-61.234-41.943-5.043-2.425-8.1-4.614-7.512-7.6,2.612-13.181,67.676-7.1,99.866-42.718,2.58-2.855,14.317-19.273,9.27-32.374-6.176-16.031-33.948-11.763-35.891-24.164-.989-6.321,3.583-17.672,29.925-36.758,5.359-1.912,16.041-5.309,27.651-13.053,30.858-20.586,43.379-56.339,53.683-92.491,7.7-26.919,14.324-53.958,22.4-76.135C2345.958,534.406,2356.166,517.2,2372.914,508.284Z" transform="translate(10.443 27.942)" fill="none" stroke="#4a98c4" stroke-miterlimit="9.18" stroke-width="0.408"/><path d="M2373.559,506.783c27.725-15.047,62.868-1.2,101.161,21.716,26.484,15.872,53.964,34.876,79.825,49.505,34.975,19.843,67.292,31.916,91.142,17.377,50.752-30.713,12.5-148,43.619-156.371,9.251-2.523,21.477,5.59,34.176,20.752,27.345,32.651,54.409,93.094,68.946,149.1,5.193,20.225,8.561,39.674,8.658,56.8.167,29.424-4.806,48.785-4.289,48.923-7.29,25.562-16.036,28.606-14.627,41.874,3.015,28.389,47.085,36.35,46.51,57.556-.292,10.784-11.445,14.236-26.806,29.734-1.4,1.41-2.86,2.878-4.309,4.486-10.091,11.207-18.156,23.7-25.771,35.514-4.9,7.662-9.751,14.6-12.879,20.814a49.328,49.328,0,0,0-4.486,12.957c-9.106,47.66,45.119,95.373,30.659,115.217-14.395,19.715-75.165-7.9-119.881-19.022-20.331-5.083-36.334-6.7-42.5,1.25-2.194,2.83-2.712,6.285-2.149,10.345,3.2,23.115,44.769,64.621,31.4,98.189a35.971,35.971,0,0,1-2.039,4.2c-16.776,29.741-74.8,42.7-104.054,21.067-22.37-16.539-20.965-49.19-40.22-54.942-13.632-4.073-27.829,7.414-36.6,15.643a150.617,150.617,0,0,1-37.795,43.351c-26.251,20.22-58.113,30.639-89.5,26.579-57.773-7.475-93.666-63.664-108.4-85.983-16.8-25.449-24.192-50.305-28.606-67.268,6.667-27.112,12.206-62.639-1.45-90.689a67.657,67.657,0,0,0-3.555-6.386c-16.713-26.484-48.305-35.327-62.582-42.058-5.183-2.445-8.334-4.675-7.779-7.728,2.446-13.444,68.833-7.111,100.9-44.15,2.56-2.956,14.424-19.834,9.167-33.258-6.474-16.53-34.946-12.293-37.018-24.885-1.054-6.4,3.675-17.792,30.649-37.017,5.508-1.856,16.436-5.235,28.332-13.014,31.6-20.661,44.538-56.661,54.862-93.262,7.712-27.247,14.111-54.737,22.105-77.4C2346.344,533.746,2356.552,516.013,2373.559,506.783Z" transform="translate(9.4 25.148)" fill="none" stroke="#4a98c4" stroke-miterlimit="9.262" stroke-width="0.414"/><path d="M2374.206,505.283c28.148-15.565,64.049-1.446,102.993,21.7,26.933,16.024,54.863,35.291,81.164,50.125,35.558,20.107,68.405,32.318,92.622,17.418,51.514-31.495,12.317-151.155,43.906-159.854,9.4-2.617,21.813,5.613,34.748,21,27.7,32.964,55.565,94.426,70.21,151.313,5.239,20.555,8.582,40.339,8.624,57.764.074,29.965-5.027,49.679-4.568,49.8-7.493,26.04-16.5,29.127-15.091,42.63,2.9,28.909,47.864,36.973,47.134,58.509-.367,10.838-11.591,14.293-27.378,29.844-1.435,1.413-2.935,2.889-4.431,4.506-10.4,11.24-18.871,23.867-26.62,35.8-4.991,7.734-9.8,14.792-12.892,21.081a51.31,51.31,0,0,0-4.452,13.112c-9.169,48.311,44.979,96.326,30.265,116.474-14.649,20.027-76.2-7.9-121.269-19.137-20.545-5.145-36.768-6.775-42.976,1.338-2.206,2.883-2.712,6.4-2.111,10.518,3.414,23.415,45.567,65.218,32.021,99.284a36.681,36.681,0,0,1-2.056,4.258c-16.959,30.254-75.8,43.7-105.338,21.965-22.639-16.656-21.093-49.769-40.646-55.452-13.831-4.022-28.262,7.824-37.162,16.336a155.52,155.52,0,0,1-38.321,44.748c-26.594,20.924-58.86,31.751-90.587,27.758-58.515-7.362-94.59-64.572-109.248-87.145-16.825-25.909-24.2-51.12-28.509-68.307,7.069-27.491,12.92-63.51-.912-91.8a67.105,67.105,0,0,0-3.607-6.442c-16.972-26.712-49.233-35.376-63.93-42.174-5.322-2.463-8.562-4.737-8.046-7.852,2.28-13.7,70-7.129,101.938-45.58,2.54-3.058,14.53-20.394,9.064-34.143-6.768-17.028-35.941-12.821-38.144-25.605-1.116-6.478,3.768-17.912,31.374-37.275a115.252,115.252,0,0,0,29.014-12.976c32.341-20.737,45.7-56.98,56.041-94.032,7.721-27.573,13.9-55.516,21.814-78.657C2346.73,533.087,2356.938,514.83,2374.206,505.283Z" transform="translate(8.356 22.354)" fill="none" stroke="#4a98c4" stroke-miterlimit="9.344" stroke-width="0.42"/><path d="M2374.852,503.783c28.571-16.082,65.231-1.689,104.824,21.677,27.383,16.177,55.764,35.706,82.506,50.745,36.14,20.373,69.517,32.72,94.1,17.459,52.278-32.279,12.138-154.313,44.2-163.338,9.538-2.71,22.149,5.639,35.317,21.255,28.061,33.277,56.722,95.757,71.471,153.528,5.286,20.885,8.606,41,8.595,58.725-.02,30.506-5.25,50.573-4.849,50.679-7.694,26.514-16.931,29.645-15.557,43.384,2.848,29.421,48.649,37.6,47.76,59.46-.443,10.894-11.737,14.35-27.948,29.954-1.474,1.418-3.013,2.9-4.553,4.527-10.7,11.274-19.584,24.035-27.469,36.093-5.08,7.808-9.848,14.982-12.906,21.35a53.342,53.342,0,0,0-4.418,13.267c-9.231,48.964,44.839,97.28,29.871,117.734-14.9,20.339-77.229-7.895-122.654-19.251-20.762-5.209-37.2-6.849-43.456,1.425-2.219,2.935-2.713,6.515-2.071,10.694,3.628,23.716,46.362,65.815,32.639,100.379a37.422,37.422,0,0,1-2.069,4.312c-17.145,30.765-76.841,44.752-106.623,22.864-22.941-16.73-21.223-50.348-41.073-55.964-14.031-3.969-28.695,8.234-37.726,17.031a160.579,160.579,0,0,1-38.845,46.147c-26.938,21.624-59.608,32.859-91.68,28.937-59.256-7.249-95.511-65.482-110.1-88.31-16.848-26.368-24.21-51.935-28.412-69.349,7.471-27.868,13.637-64.379-.372-92.907a66.8,66.8,0,0,0-3.658-6.5c-17.235-26.94-50.161-35.424-65.279-42.291-5.461-2.479-8.792-4.8-8.312-7.976,2.112-13.965,71.192-7.159,102.972-47.009,2.524-3.163,14.638-20.954,8.962-35.029-7.068-17.526-36.938-13.35-39.271-26.325-1.18-6.557,3.861-18.032,32.1-37.534a115.4,115.4,0,0,0,29.7-12.935c33.082-20.814,46.855-57.3,57.219-94.8,7.73-27.9,13.682-56.293,21.522-79.918C2347.115,532.429,2357.324,513.647,2374.852,503.783Z" transform="translate(7.313 19.56)" fill="none" stroke="#4a98c4" stroke-miterlimit="9.426" stroke-width="0.426"/><path d="M2375.5,502.281c28.991-16.6,66.412-1.932,106.656,21.659,27.831,16.33,56.666,36.122,83.845,51.366,36.725,20.637,70.631,33.121,95.58,17.5,53.039-33.059,11.957-157.471,44.485-166.819,9.678-2.8,22.482,5.662,35.888,21.506,28.418,33.591,57.879,97.089,72.733,155.742,5.334,21.216,8.63,41.667,8.564,59.687-.113,31.047-5.471,51.466-5.127,51.558-7.9,26.987-17.365,30.163-16.024,44.14,2.8,29.932,49.437,38.219,48.387,60.41-.518,10.95-11.856,14.436-28.52,30.062-1.511,1.425-3.087,2.917-4.675,4.548-11.006,11.307-20.3,24.2-28.319,36.383-5.167,7.878-9.9,15.172-12.921,21.617a55.64,55.64,0,0,0-4.382,13.422c-9.292,49.615,44.7,98.233,29.48,118.991-15.158,20.65-78.26-7.895-124.042-19.366-20.978-5.271-37.641-6.921-43.937,1.514-2.229,2.987-2.71,6.627-2.03,10.868,3.845,24.018,47.157,66.41,33.259,101.475a38.362,38.362,0,0,1-2.085,4.367c-17.328,31.278-77.835,45.744-107.908,23.762-23.205-16.849-21.351-50.927-41.5-56.474-14.229-3.919-29.125,8.645-38.288,17.727a165.7,165.7,0,0,1-39.372,47.544c-27.281,22.324-60.353,33.969-92.771,30.115-60-7.136-96.429-66.391-110.945-89.472-16.87-26.828-24.22-52.752-28.316-70.388,7.871-28.245,14.352-65.248.166-94.018a66.52,66.52,0,0,0-3.711-6.557c-17.493-27.166-51.087-35.47-66.628-42.4-5.6-2.5-9.018-4.862-8.576-8.1,1.945-14.229,72.391-7.2,104.008-48.441,2.506-3.27,14.743-21.514,8.858-35.914-7.365-18.025-37.934-13.878-40.4-27.045-1.242-6.636,3.955-18.15,32.822-37.791a115.645,115.645,0,0,0,30.382-12.9c33.826-20.891,48.016-57.625,58.395-95.575,7.742-28.225,13.47-57.07,21.232-81.179C2347.5,531.772,2357.708,512.465,2375.5,502.281Z" transform="translate(6.269 16.766)" fill="none" stroke="#4a98c4" stroke-miterlimit="9.508" stroke-width="0.432"/><path d="M2376.145,500.78c29.414-17.113,67.6-2.174,108.489,21.641,28.28,16.48,57.565,36.535,85.184,51.984,37.31,20.9,71.744,33.523,97.061,17.538,53.8-33.841,11.776-160.629,44.773-170.3,9.822-2.9,22.816,5.686,36.457,21.757,28.778,33.905,59.037,98.42,74,157.955,5.383,21.547,8.652,42.332,8.532,60.65-.207,31.588-5.693,52.36-5.406,52.435-8.1,27.465-17.8,30.682-16.489,44.9,2.742,30.445,50.225,38.844,49.013,61.362-.592,11.007-12.006,14.49-29.093,30.172-1.548,1.43-3.163,2.932-4.8,4.57-11.31,11.343-21.01,24.367-29.169,36.671-5.254,7.952-9.944,15.362-12.932,21.886a58.414,58.414,0,0,0-4.349,13.578c-9.269,50.282,44.558,99.186,29.087,120.249-15.413,20.96-79.293-7.9-125.427-19.481-21.194-5.336-38.077-6.993-44.417,1.6-2.241,3.038-2.709,6.742-1.992,11.04,4.063,24.321,47.956,67.009,33.88,102.572a39.225,39.225,0,0,1-2.1,4.421c-17.512,31.79-78.832,46.735-109.193,24.662-23.472-16.972-21.48-51.509-41.925-56.987-14.427-3.866-29.558,9.054-38.852,18.422a170.806,170.806,0,0,1-39.9,48.941c-27.624,23.026-61.106,35.141-93.864,31.293-60.748-6.91-97.347-67.3-111.794-90.635-16.89-27.287-24.228-53.567-28.217-71.429,8.271-28.622,15.067-66.117.7-95.126a66.454,66.454,0,0,0-3.763-6.613c-17.755-27.4-52.014-35.519-67.976-42.522-5.738-2.517-9.248-4.922-8.843-8.223,1.779-14.493,73.6-7.252,105.044-49.871,2.49-3.378,14.847-22.075,8.754-36.8-7.664-18.523-38.929-14.408-41.525-27.766-1.305-6.713,4.048-18.268,33.546-38.049a115.909,115.909,0,0,0,31.063-12.858c34.569-20.968,49.176-57.946,59.574-96.346,7.749-28.553,13.255-57.848,20.941-82.44C2347.887,531.114,2358.094,511.284,2376.145,500.78Z" transform="translate(5.224 13.972)" fill="none" stroke="#4a98c4" stroke-miterlimit="9.59" stroke-width="0.438"/><path d="M2376.792,499.28c29.833-17.628,68.776-2.419,110.321,21.621,28.727,16.633,58.466,36.952,86.526,52.6,37.892,21.167,72.854,33.927,98.538,17.579,54.564-34.623,11.6-163.787,45.063-173.786,9.964-2.991,23.151,5.713,37.026,22.008,29.137,34.22,60.194,99.753,75.259,160.172,5.429,21.875,8.674,42.994,8.5,61.611a267.763,267.763,0,0,1-5.686,53.314c-8.3,27.938-18.231,31.2-16.952,45.65,2.687,30.957,51.013,39.47,49.637,62.314-.666,11.063-12.156,14.541-29.663,30.282-1.587,1.433-3.24,2.945-4.919,4.589-11.617,11.379-21.724,24.535-30.019,36.962-5.34,8.023-9.991,15.552-12.945,22.154a60.775,60.775,0,0,0-4.314,13.732c-9.347,50.932,44.419,100.14,28.692,121.508-15.667,21.271-80.323-7.9-126.813-19.594-21.411-5.4-38.513-7.067-44.9,1.687-2.254,3.093-2.71,6.857-1.953,11.215,4.277,24.625,48.75,67.606,34.5,103.667a40.114,40.114,0,0,1-2.117,4.475c-17.694,32.3-79.828,47.728-110.476,25.561-23.738-17.093-21.6-52.123-42.352-57.5-14.621-3.84-29.991,9.464-39.415,19.116a175.314,175.314,0,0,1-40.423,50.34c-27.927,23.772-61.852,36.24-94.954,32.472-61.486-6.818-98.265-68.208-112.644-91.8-16.911-27.748-24.238-54.382-28.122-72.471,8.673-29,15.783-66.986,1.243-96.234a66.445,66.445,0,0,0-3.814-6.67c-18.015-27.624-52.94-35.565-69.326-42.636-5.877-2.535-9.475-4.986-9.108-8.346,1.614-14.757,74.816-7.318,106.079-51.3,2.478-3.488,14.952-22.636,8.652-37.685-7.964-19.022-39.924-14.938-42.653-28.486-1.367-6.792,4.142-18.387,34.271-38.306a116.448,116.448,0,0,0,31.745-12.819c35.314-21.049,50.335-58.267,60.753-97.118,7.757-28.88,13.039-58.625,20.649-83.7C2348.273,530.457,2358.478,510.1,2376.792,499.28Z" transform="translate(4.18 11.178)" fill="none" stroke="#4a98c4" stroke-miterlimit="9.672" stroke-width="0.444"/><path d="M2377.441,497.78c30.252-18.143,69.958-2.663,112.151,21.6,29.177,16.784,59.368,37.366,87.866,53.224,38.476,21.432,73.967,34.328,100.019,17.62,55.323-35.405,11.415-166.945,45.352-177.269,10.107-3.086,23.485,5.737,37.6,22.259,29.494,34.535,61.348,101.086,76.52,162.385,5.477,22.206,8.7,43.658,8.471,62.573a264.5,264.5,0,0,1-5.965,54.193c-8.507,28.414-18.666,31.718-17.419,46.4,2.635,31.47,51.806,40.1,50.265,63.265-.739,11.122-12.308,14.595-30.236,30.391-1.625,1.436-3.316,2.96-5.04,4.611a229.086,229.086,0,0,0-30.869,37.25c-5.427,8.1-10.038,15.743-12.96,22.423a63.3,63.3,0,0,0-4.278,13.888c-9.423,51.579,44.278,101.093,28.3,122.766-15.921,21.583-81.356-7.895-128.2-19.709-21.625-5.464-38.947-7.141-45.377,1.776-2.265,3.143-2.707,6.972-1.912,11.389,4.492,24.926,49.548,68.2,35.118,104.762a40.835,40.835,0,0,1-2.129,4.529c-17.878,32.815-80.824,48.72-111.762,26.459-24-17.214-21.732-52.694-42.778-58.009-14.82-3.781-30.424,9.874-39.979,19.811a180.724,180.724,0,0,1-40.947,51.737c-28.278,24.462-62.6,37.34-96.046,33.651-62.222-6.725-99.182-69.112-113.493-92.962-16.925-28.207-24.246-55.2-28.024-73.51,9.073-29.378,16.5-67.856,1.781-97.344a66.18,66.18,0,0,0-3.866-6.728c-18.276-27.85-53.867-35.612-70.673-42.751-6.014-2.555-9.706-5.049-9.376-8.471,1.448-15.021,76.043-7.393,107.115-52.732,2.467-3.6,15.057-23.2,8.55-38.568-8.263-19.522-40.92-15.47-43.78-29.208-1.431-6.872,4.235-18.505,35-38.565a117.013,117.013,0,0,0,32.429-12.78c36.058-21.126,51.492-58.589,61.931-97.889,7.767-29.206,12.823-59.4,20.356-84.962C2348.659,529.8,2358.859,508.922,2377.441,497.78Z" transform="translate(3.136 8.383)" fill="none" stroke="#4a98c4" stroke-miterlimit="9.754" stroke-width="0.45"/><path d="M2378.087,496.279c30.67-18.656,71.141-2.9,113.987,21.583,29.623,16.936,60.266,37.781,89.2,53.845,39.06,21.7,75.081,34.728,101.5,17.659,56.087-36.188,11.233-170.1,45.64-180.753,10.248-3.178,23.795,5.785,38.165,22.511,29.8,34.892,62.506,102.417,77.782,164.6,5.524,22.536,8.688,44.32,8.44,63.534-.548,33.208-6.359,55.041-6.244,55.07-8.709,28.89-19.1,32.236-17.884,47.162,2.581,31.982,52.6,40.725,50.89,64.216-.815,11.181-12.456,14.647-30.806,30.5-1.665,1.441-3.392,2.974-5.164,4.632a225.2,225.2,0,0,0-31.719,37.54,144.729,144.729,0,0,0-12.971,22.691,66.435,66.435,0,0,0-4.244,14.042c-9.5,52.229,44.138,102.045,27.906,124.023-16.175,21.895-82.387-7.895-129.587-19.823-21.844-5.526-39.4-7.224-45.857,1.864-2.284,3.191-2.708,7.087-1.872,11.563,4.709,25.23,50.343,68.8,35.738,105.858a41.287,41.287,0,0,1-2.147,4.583c-18.011,33.354-81.817,49.71-113.045,27.358-24.269-17.335-21.864-53.265-43.2-58.519-15.022-3.724-30.856,10.284-40.541,20.5a186.21,186.21,0,0,1-41.473,53.135c-28.631,25.151-63.341,38.439-97.139,34.83-62.96-6.632-100.1-70.021-114.34-94.125-16.942-28.668-24.256-56.011-27.927-74.551,9.474-29.755,17.214-68.725,2.319-98.453a66.055,66.055,0,0,0-3.919-6.785c-18.535-28.078-54.792-35.66-72.022-42.866-6.151-2.573-9.932-5.111-9.641-8.6,1.282-15.285,77.273-7.48,108.15-54.162,2.455-3.712,15.191-23.771,8.448-39.454-8.523-20.038-41.915-16-44.907-29.927-1.493-6.952,4.329-18.625,35.719-38.823a117.55,117.55,0,0,0,33.113-12.742c36.8-21.2,52.652-58.91,63.108-98.659,7.777-29.532,12.565-60.189,20.066-86.222C2349,529.131,2359.244,507.742,2378.087,496.279Z" transform="translate(2.091 5.589)" fill="none" stroke="#4a98c4" stroke-miterlimit="9.836" stroke-width="0.456"/><path d="M2378.735,494.779c31.088-19.169,72.321-3.148,115.818,21.563,30.072,17.089,61.167,38.2,90.544,54.465,39.646,21.962,76.194,35.132,102.978,17.7,56.849-36.972,11.055-173.263,45.931-184.236,10.391-3.273,24.141,5.8,38.736,22.762,30.186,35.186,63.662,103.749,79.044,166.814,5.572,22.865,8.728,44.984,8.409,64.5-.612,33.748-6.581,55.933-6.523,55.947-8.912,29.363-19.534,32.754-18.348,47.916,2.526,32.494,53.4,41.354,51.515,65.167-.887,11.24-12.607,14.7-31.378,30.609q-2.556,2.169-5.285,4.653a223.49,223.49,0,0,0-32.569,37.829,136.387,136.387,0,0,0-12.985,22.96,69.018,69.018,0,0,0-4.21,14.2c-9.577,52.877,44,103,27.513,125.281-16.429,22.206-83.42-7.9-130.974-19.939-22.059-5.588-39.829-7.29-46.337,1.951-2.292,3.246-2.711,7.2-1.831,11.738,4.9,25.54,51.138,69.394,36.359,106.953a42.932,42.932,0,0,1-2.162,4.637c-18.218,33.853-82.814,50.7-114.329,28.257-24.536-17.456-22-53.837-43.633-59.03-15.221-3.666-31.287,10.694-41.1,21.2a191.768,191.768,0,0,1-42,54.534c-28.982,25.838-64.087,39.537-98.229,36.007-63.7-6.539-101.011-70.926-115.189-95.289a238.236,238.236,0,0,1-27.832-75.59c9.876-30.134,17.93-69.6,2.858-99.563a66.144,66.144,0,0,0-3.97-6.841c-18.8-28.306-55.726-35.686-73.371-42.982-6.294-2.584-10.158-5.173-9.907-8.718,1.136-15.551,78.506-7.58,109.185-55.593,2.445-3.827,15.28-24.323,8.344-40.339-8.843-20.529-42.909-16.531-46.033-30.647-1.556-7.031,4.422-18.745,36.443-39.082a118.644,118.644,0,0,0,33.8-12.7c37.529-21.322,53.811-59.233,64.287-99.432,7.785-29.859,12.371-60.958,19.775-87.482C2349.407,528.482,2359.626,506.562,2378.735,494.779Z" transform="translate(1.046 2.795)" fill="none" stroke="#4a98c4" stroke-miterlimit="9.918" stroke-width="0.463"/><path d="M2343.928,1257.944c-64.436-6.445-101.924-71.831-116.04-96.451a240.909,240.909,0,0,1-27.733-76.632c11.079-32.9,19.944-76.771-.626-107.569-25.835-38.682-85.718-38.2-84.893-51.94.951-15.818,79.746-7.69,110.22-57.023,2.435-3.944,15.367-24.877,8.241-41.225-9.162-21.019-43.9-17.062-47.16-31.367-1.619-7.111,4.516-18.863,37.168-39.339a118.88,118.88,0,0,0,34.478-12.663c95.108-53.058,56.857-209.882,121.8-250.456,82.674-51.652,237.607,144.424,313.991,94.37,57.611-37.754,10.875-176.421,46.219-187.718,40.144-12.832,129.977,156.6,127.99,257.5-.676,34.287-6.8,56.826-6.8,56.826-9.113,29.839-19.968,33.272-18.813,48.671,2.473,33.007,54.195,41.984,52.142,66.12-1.049,12.326-14.99,15.316-37.357,35.393-21.112,18.95-39.217,43.686-46.416,61.347-23.917,58.677,41.172,116.294,22.944,140.892-24.443,32.987-158.513-47.621-179.177-18.014-15.252,21.852,52.8,75.133,35.186,119.961-14.706,37.419-84.571,57.39-117.791,33.846-24.8-17.576-22.129-54.408-44.059-59.54-15.423-3.609-31.72,11.1-41.666,21.893C2454.347,1225.739,2397.9,1263.343,2343.928,1257.944Z" transform="translate(0 0)" fill="none" stroke="#4a98c4" stroke-miterlimit="10" stroke-width="0.469"/></g></svg>