<svg version="1.1" fill="#322C47" id="Layer_1" xmlns="http://www.w3.org/2000/svg" xmlns:xlink="http://www.w3.org/1999/xlink" x="0px" y="0px"
	 viewBox="-939 531.7 39.9 19.3" style="enable-background:new -939 531.7 39.9 19.3;" xml:space="preserve">
<g>
	<g>
		<defs>
			<rect id="SVGID_1_" x="-939" y="531.7" width="39.9" height="19.3"/>
		</defs>
		<clipPath id="SVGID_2_">
			<use xlink:href="#SVGID_1_"  style="overflow:visible;"/>
		</clipPath>
		<path class="st0" d="M-938,536.4c-0.1,0,0,0.1-0.1,0.2c-0.2,0-0.3,0-0.2,0.1c0.1,0,0.2,0,0.3,0C-938,536.6-938,536.4-938,536.4"/>
	</g>
	<g>
		<defs>
			<rect id="SVGID_3_" x="-939" y="531.7" width="39.9" height="19.3"/>
		</defs>
		<clipPath id="SVGID_4_">
			<use xlink:href="#SVGID_3_"  style="overflow:visible;"/>
		</clipPath>
		<path class="st1" d="M-938.8,536.6c-0.1,0-0.2,0-0.2,0.1s0.1,0.1,0.2,0.1c0.1,0,0.2-0.1,0.2-0.1L-938.8,536.6"/>
	</g>
	<g>
		<defs>
			<rect id="SVGID_5_" x="-939" y="531.7" width="39.9" height="19.3"/>
		</defs>
		<clipPath id="SVGID_6_">
			<use xlink:href="#SVGID_5_"  style="overflow:visible;"/>
		</clipPath>
		<path class="st2" d="M-938.1,535.7C-938.2,535.7-938.1,535.7-938.1,535.7C-938,535.7-937.9,535.6-938.1,535.7
			C-938.1,535.6-938,535.6-938.1,535.7"/>
	</g>
	<g>
		<defs>
			<rect id="SVGID_7_" x="-939" y="531.7" width="39.9" height="19.3"/>
		</defs>
		<clipPath id="SVGID_8_">
			<use xlink:href="#SVGID_7_"  style="overflow:visible;"/>
		</clipPath>
		<path class="st3" d="M-937.8,534.7L-937.8,534.7c0.1,0.1,0.2,0.1,0.3,0.1s0.1-0.1,0-0.1h-0.1
			C-937.7,534.7-937.7,534.6-937.8,534.7c-0.2-0.1-0.2-0.2-0.2-0.2s0.1-0.1,0.2-0.1h0.2c0,0,0.2-0.1,0.3-0.1h0.2
			c0.1-0.1,0.1-0.3,0.1-0.3s0.1,0,0.1,0.1c0,0.1,0.2,0,0.2,0h0.2h0.2c0.1,0,0.3,0.1,0.4,0.1c0.1,0,0.5-0.1,0.5-0.1s0.2,0.2,0.3,0.2
			c0.1,0,0.2,0,0.2,0s0.1,0,0.1,0.1c0,0.1,0.1,0,0.2,0c0.1,0,0.1-0.1,0.1-0.1h0.1c0.1,0,0.1,0,0.3,0c0.2,0,0.1,0,0.2-0.1
			c0.1,0,0.2,0.1,0.3,0l0.1-0.1l0.1,0.1c0,0,0.1-0.1,0.2-0.1h0.3c0.1,0,0.2,0,0.3,0.1c0.1,0.1,0.2,0,0.3,0.1c0.1,0.1,0.2,0,0.1-0.1
			l-0.1-0.1c0,0-0.4,0-0.4-0.1c0,0,0,0-0.1,0.1c0,0.1-0.2,0.1-0.3,0.1c-0.1,0-0.1-0.1-0.3-0.1c-0.2,0-0.1-0.1-0.1-0.1
			s0.1-0.1,0.1-0.2c0.1-0.1,0.2-0.1,0.3-0.1c0.1,0,0.2,0,0.3,0c0.2,0.1,0.1,0,0.3,0c0.1,0,0.1,0,0.1,0.1c0.1,0.1,0.1,0,0.2,0.1
			c0.1,0,0.1,0,0.2,0c0,0,0.2,0,0.3,0c0.1,0,0.2,0,0.2,0c0,0.1,0,0.1,0.1,0.2c0.1,0.1,0-0.2,0-0.3c0-0.1,0.1,0,0.2,0
			c0.1,0,0.2,0,0.2,0s-0.1,0.1,0,0.2c0,0.2,0.1,0.2,0.1,0.2c0.1,0,0.2,0,0.2,0.1c-0.1,0.2-0.3,0.2-0.3,0.2c-0.1,0-0.2,0-0.2,0.1
			c0,0.1,0.2,0,0.3,0c0.1,0,0.4,0,0.5,0c0.1,0,0.1-0.2,0-0.2c-0.1,0,0-0.1,0.1-0.1c0.1,0,0.2,0,0.2,0s0,0.1,0,0.2c0,0.1,0,0.2,0,0.2
			c0.1-0.1,0.1-0.1,0.2-0.1c0.1,0,0-0.1,0-0.2c-0.1-0.2-0.1-0.2-0.1-0.3c0-0.1,0.1-0.1,0.2,0c0.1,0.1,0.1,0.2,0.1,0.2
			s0.1,0.1,0.2,0.2c0.1,0.1,0,0.1,0.1,0c0.1-0.1,0.1,0,0.2,0c0.1,0.1,0,0.2,0,0.2s0.1,0,0.1-0.1c0-0.1,0.1-0.1,0.1-0.1v-0.2
			c0,0-0.1,0-0.2,0c-0.1,0-0.2,0-0.3-0.1s0-0.1-0.1-0.2c0-0.1,0.2-0.1,0.3-0.2c0.2-0.1,0.3,0,0.3,0.2s0,0.1,0.1,0.1
			c0.1,0,0-0.2,0.1-0.2c0.1,0,0.2,0,0.3,0s0.4,0,0.4,0c0.1,0,0.2,0.1,0.3,0.1c0.1,0.1,0.3,0.1,0.4,0.2c0.1,0,0.5,0.1,0.5,0.1
			s0,0.1,0.1,0.3c0,0.1,0.1,0,0.2,0c0.1,0,0.2,0.1,0.2,0.1c0,0.1,0.3,0.1,0.3,0.1l-0.1,0.1c0,0-0.1,0.1-0.2,0.1
			c-0.1,0-0.1,0-0.2-0.1c-0.1-0.1-0.2-0.1-0.2-0.1v0.1c0,0,0.1,0.1,0.2,0.1c0.1,0.1,0.1,0.1,0.1,0.2s-0.1,0-0.2-0.1
			c-0.1,0-0.1,0.1-0.1,0.1s-0.1,0-0.2,0s0,0-0.1-0.1c-0.1-0.1-0.1,0.1-0.1,0c-0.1,0-0.1-0.1-0.1-0.1s-0.1-0.1-0.2-0.1s-0.3,0-0.3,0
			c-0.1,0-0.1,0-0.2,0c0,0-0.1-0.2,0-0.2c0-0.1,0.1-0.1,0.2,0c0.1,0,0.1,0,0.2-0.1c0-0.1,0.1-0.1,0.2-0.2c0.1,0,0-0.1,0-0.1
			s-0.1-0.1-0.1,0c0,0.1-0.1,0.1-0.1,0.1s-0.3,0.3-0.4,0.3s0-0.1,0-0.1l0.1-0.2c0,0-0.1-0.1-0.2,0c-0.1,0,0-0.1-0.1-0.1
			c-0.1,0,0,0,0,0.1c0,0.1-0.1,0-0.1,0s-0.1,0-0.2,0l-0.1,0.1c0,0,0.1,0,0.2,0.1c0,0.1-0.1,0.1-0.2,0.1l-0.1,0.1c0,0-0.1,0-0.2,0
			c-0.1,0-0.1,0-0.1,0h0.1c0,0,0,0.1,0.1,0c0.1,0,0.1-0.1,0.1,0c0.1,0.1,0.2,0.1,0.3,0.2c0.1,0.1,0,0.2-0.1,0.2s-0.1-0.1-0.1-0.1
			c0-0.1-0.2,0-0.2,0s-0.1,0.1-0.2,0.1s-0.1,0,0-0.1c0.1-0.1-0.1-0.1-0.1-0.2c0-0.1-0.1,0.2-0.1,0.2c0,0.1-0.1-0.1-0.2,0
			c-0.2,0-0.1,0.1-0.3,0.2c-0.2,0.2-0.2,0.2-0.1,0.3c0,0.1,0,0.2,0.1,0.2c0.1,0,0.1,0.2,0.1,0.2c0.1,0,0.1-0.1,0.2,0
			c0.1,0.1,0.2,0.1,0.4,0.1s0.2,0,0.3,0c0.1,0,0.2,0.1,0.2,0.2c0,0.1,0.1,0.1,0,0.2c0,0.1,0.1-0.1,0.1-0.1v0.2c0,0,0,0.1,0.1,0.1
			c0,0,0.1,0,0.2,0c0.1-0.1,0-0.2,0-0.3c0-0.1-0.1-0.1-0.1-0.2s0.1-0.1,0.1,0s0.1,0,0.2,0c0.1-0.1,0.1-0.2,0.1-0.2s-0.1-0.2-0.2-0.2
			s0-0.1,0-0.1c0.1,0,0-0.1,0-0.2c0-0.1,0-0.2,0.1-0.2c0,0,0.2,0,0.4,0c0.1,0,0.2,0.1,0.3,0.1c0.1,0,0.2,0,0.3,0.1
			c0,0.1-0.2,0.1-0.1,0.2c-0.1,0.1,0,0.1,0,0.1c0.1,0,0.1,0,0.2-0.1c0.1-0.1,0.1-0.1,0.2-0.1c0,0,0.2,0.3,0.3,0.3
			c0,0.1,0.1,0.2,0.1,0.3s0.2,0,0.2,0s0.2,0.1,0.2,0.2c0,0.1,0.1,0.1,0.2,0.1c0.1,0,0,0.2,0,0.2c0,0.1,0,0.1-0.1,0.2c0,0.1,0,0,0,0
			l0.1,0.1c0.1,0,0.1,0,0.1,0.1c0,0.1,0.1,0.1,0.1,0.2c0,0.1,0,0.1,0,0.1c0-0.1-0.2,0-0.2,0s-0.1,0.1-0.1,0l-0.1-0.1
			c-0.1,0-0.1,0-0.2,0s-0.1,0-0.1-0.1c0,0,0.1-0.2,0.2-0.3c0.1-0.1,0.1-0.2,0-0.2c-0.1,0-0.1,0.1-0.1,0.1h-0.2
			c-0.1,0.1-0.2,0.1-0.1,0.1c0.1,0-0.1,0.1-0.2,0.1s0-0.1,0-0.2c0-0.1-0.1,0-0.1,0s-0.2-0.1-0.2,0c-0.1,0.1-0.3,0-0.3,0.1
			c-0.1,0.1-0.1,0.2-0.1,0.2s0.1,0,0.2-0.1c0.1,0,0.1,0,0.2-0.1c0.1-0.1,0.2-0.1,0.3,0c0.1,0.1,0,0.2,0,0.2s0,0.1,0.1,0.1
			c0.1,0,0,0,0.1-0.1c0.1,0,0,0.1,0.1,0.1h0.1c0-0.1,0.1-0.1,0.1-0.1s0.1,0.1,0.1,0.2c-0.1,0.4-0.3,0.4-0.4,0.4l-0.2,0.1
			c0,0-0.1,0.1-0.2,0.1c-0.1,0-0.1-0.1-0.1-0.2s-0.1,0-0.1,0s-0.1,0-0.2,0c-0.1,0-0.2,0.1-0.2,0.2c0,0.1,0.1,0.2,0.1,0.2
			s-0.2,0-0.3,0s-0.2,0-0.1,0.1c0,0,0,0.1-0.1,0.1c-0.1,0-0.1,0.1,0,0.1c0,0.1-0.1,0.2-0.1,0.1c0,0-0.1-0.1-0.1,0
			c0,0.1,0.1,0.2,0.1,0.3c0.1,0.1-0.2,0.1-0.2,0.2c-0.1,0.1-0.2,0.3-0.3,0.3c-0.1,0-0.2,0.2-0.1,0.2c0,0.1,0.1,0.3,0.1,0.4
			c0,0.1,0,0.3-0.1,0.3c-0.1,0,0-0.1-0.1-0.2c-0.1,0-0.1-0.2-0.2-0.4c0-0.1,0-0.1-0.1,0c-0.1,0-0.1-0.1-0.1-0.1s-0.2,0.1-0.3,0.1
			c-0.1,0-0.2,0-0.2,0s0,0.1-0.1,0.1s-0.1,0-0.2,0c-0.2,0-0.2,0-0.3,0c0,0-0.1,0.1-0.2,0.2c-0.1,0-0.2,0.1-0.1,0.2
			c0.1,0,0.1,0.2,0,0.3c-0.1,0.1,0,0.2,0,0.4c0,0.2,0.1,0.3,0.2,0.4c0.1,0.1,0.1,0.1,0.2,0c0.1-0.1,0.1,0,0.2,0c0,0,0.1-0.1,0.1-0.2
			c0-0.1,0-0.2,0.1-0.2s0.2,0,0.3,0c0.1,0,0.1,0.2,0,0.3c-0.1,0.1,0,0.2-0.1,0.3c0,0.1-0.1,0.1,0,0.1c0.1,0,0.1,0,0.1,0
			c0.1,0,0.1-0.1,0.2-0.1s0.2,0.2,0.2,0.3s-0.1,0.2,0,0.4c0,0.1,0,0.2,0.1,0.2c0.1,0,0.1,0.1,0.2,0.1s0.2-0.1,0.2-0.1l0.2,0.1
			c0,0,0.1,0.1,0.1,0c0.1,0,0.1-0.1,0.1-0.2s0.2-0.2,0.2-0.2l0.2-0.1c0.1,0,0,0.1,0,0.2c0,0.1,0,0.3,0,0.3s0-0.1,0.1-0.2
			c0-0.1,0.1-0.2,0.2-0.2c0,0,0.1,0.2,0.2,0.2c0.1-0.1,0.2-0.1,0.2,0s0.1,0.1,0.1,0.1s0,0,0-0.1s0.2-0.1,0.2,0
			c0.1,0.1,0.1,0.1,0.1,0.1s0.1-0.1,0.1-0.2c0,0,0,0.2-0.1,0.3c-0.1,0.1,0.1,0.1,0.1,0.1l0,0c0,0,0.1,0,0.2,0c0,0.1,0.1,0.1,0.2,0.2
			c0.1,0.1,0.1,0,0.2,0c0.1,0,0.3,0.1,0.4,0.3c0.1,0.2,0.1,0.3,0.2,0.3c0.1,0,0.1,0.1,0.1,0.2c0,0.1-0.2,0.1-0.3,0.2
			c-0.1,0-0.1,0.1,0.1,0.1s0.1-0.1,0.2-0.1s0.2,0,0.1,0.2c-0.1,0.1-0.3,0.1-0.1,0.2c0.2,0,0.1,0,0.2-0.2c0.1-0.1,0.1-0.1,0.1-0.1
			c0.1,0,0.2,0,0.2,0.1c0,0,0.2,0.1,0.2,0.2c0.1,0.1,0.2,0,0.2,0c0.1,0,0.2,0.1,0.3,0.2c0.1,0.1,0.2,0.1,0.3,0.1s0.2,0.2,0.2,0.3
			s-0.1,0.3-0.1,0.4c0,0.1-0.2,0.3-0.3,0.4c-0.1,0.1-0.1,0.3,0,0.4c0,0.1-0.1,0.3-0.1,0.4c0,0.1,0,0.2-0.1,0.3
			c-0.1,0.1-0.1,0.2-0.1,0.3c0,0.1-0.2,0-0.3,0.1c-0.1,0-0.2,0.1-0.2,0.1s-0.2,0.1-0.3,0.2c-0.1,0.1,0,0.2,0,0.4
			c-0.1,0.1-0.1,0-0.2,0.2c-0.1,0.1-0.1,0.1-0.1,0.2c0,0-0.1,0.1-0.1,0.2c0,0.1-0.1,0.2-0.2,0.3c-0.1,0.1-0.2,0.1-0.3,0.1
			c-0.1,0-0.1-0.4-0.1-0.4c0,0.1-0.1,0.3-0.1,0.3l0.2,0.2v0.1c0,0.1-0.1,0.3-0.2,0.3c0,0-0.3,0.1-0.4,0c-0.1,0-0.1,0.1-0.1,0.1
			c0,0.1,0.1,0.1,0,0.1c-0.1,0-0.2-0.1-0.2,0c0,0.1,0,0.2,0.1,0.2s0.1,0,0.1,0c0,0.1-0.1,0.1-0.1,0.2c0,0-0.1,0.1-0.2,0.2
			c-0.1,0.1-0.1,0.1-0.1,0.2h0.2c0,0,0,0.2-0.1,0.2c0,0-0.2,0.2-0.3,0.2s-0.1,0.2,0,0.2c0,0.1,0.2,0.2,0.3,0.3c0.1,0,0.3,0,0.2,0.1
			c0,0-0.2,0.1-0.3,0.1c0,0-0.2,0.1-0.3,0.1c-0.1,0-0.2-0.1-0.2-0.1s0,0,0.1-0.1c0.1-0.1,0-0.2-0.1-0.1c-0.1,0.1-0.1,0.2-0.1,0.2
			l-0.1-0.1c0,0-0.2-0.1-0.1-0.2c0-0.1-0.1-0.1-0.1-0.2c-0.1-0.1,0.1-0.1,0.1-0.2c0-0.1-0.1,0-0.1-0.1c0-0.1,0.1-0.2,0.1-0.2
			s-0.1-0.1-0.1-0.2c0-0.1,0-0.1,0.1-0.2c0.1-0.1,0.1-0.2,0.1-0.2v-0.2c0,0,0-0.1,0.1-0.2c0-0.1-0.1-0.1-0.1-0.2
			c0-0.1,0.1-0.1,0.1-0.2c0-0.1,0-0.2,0.1-0.2c0-0.1,0.1-0.2,0.1-0.3c0-0.1,0-0.3,0-0.3l0.1-0.1c-0.1-0.1,0.1-0.1,0.1-0.1
			c0.1-0.1,0-0.2,0-0.4s0.1-0.6,0.1-0.6s0-0.2,0-0.3c0-0.1-0.1-0.2-0.2-0.2c-0.1,0-0.2-0.1-0.2-0.1s-0.3-0.1-0.3-0.3
			s-0.1-0.3-0.1-0.4c0-0.1-0.2-0.4-0.2-0.5c0-0.1-0.2-0.1-0.2-0.3c0-0.1,0-0.2,0.1-0.3c0-0.1,0-0.3,0-0.3c0-0.1,0.1-0.2,0.1-0.3
			c0.1,0,0.2-0.2,0.2-0.2s0-0.1,0.1-0.2c0-0.1,0-0.3,0-0.3l-0.1-0.2h-0.1c0,0,0,0.1-0.1,0.2c-0.1,0.1-0.1,0-0.1,0s-0.1,0-0.2-0.1
			c0-0.1-0.1-0.1-0.2-0.2c-0.1,0-0.2-0.1-0.2-0.2s-0.1-0.2-0.1-0.2s-0.1-0.1-0.2,0c0,0-0.1-0.1-0.2-0.1c-0.1,0-0.2-0.1-0.2-0.2
			s-0.1-0.1-0.2-0.1s-0.1,0-0.2,0.1c-0.5-0.6-0.6-0.7-0.6-0.7s-0.2,0-0.3,0c-0.1,0-0.2-0.2-0.2-0.3c0-0.2-0.3-0.2-0.4-0.2
			c-0.1,0-0.1-0.2-0.1-0.3v-0.2l-0.1-0.1c0,0-0.2-0.3-0.3-0.4c-0.1-0.1-0.3-0.3-0.3-0.4c0-0.1,0-0.3-0.1-0.2c-0.2,0.1-0.1,0.2,0,0.3
			c0.1,0.1,0.1,0.1,0.2,0.3c0.1,0.2,0.1,0.2,0.1,0.3c0.1,0.1,0.3,0.2,0.2,0.3c-0.1,0-0.2-0.2-0.2-0.2s-0.1,0-0.1-0.1
			c0-0.1-0.1-0.1-0.1-0.2c-0.1-0.1-0.1,0-0.2,0c-0.1,0,0-0.1,0-0.2c0-0.1,0-0.1-0.1-0.2c-0.1,0-0.1-0.3-0.2-0.4
			c-0.1-0.2-0.1-0.3-0.2-0.2c-0.1,0-0.3-0.1-0.3-0.2c-0.1,0,0-0.3-0.1-0.4c-0.1-0.1-0.2-0.3-0.2-0.4c0-0.1,0-0.4,0-0.5
			c0-0.1-0.1-0.2-0.1-0.3c0,0,0-0.1-0.1-0.1l-0.2-0.1c0,0-0.1-0.2-0.1-0.3c0-0.1-0.1-0.2-0.1-0.2s-0.1-0.1-0.2-0.2
			c0-0.1-0.1-0.1-0.1,0v0.1c0.2,0,0.2,0.2,0.2,0.2s-0.1-0.1-0.2-0.1c-0.1-0.1-0.1-0.3-0.1-0.4s-0.1-0.1-0.2-0.1s-0.1,0-0.1-0.1
			c0-0.1-0.2-0.2-0.2-0.2c-0.1,0-0.4-0.1-0.5-0.1c-0.1,0-0.3-0.2-0.3-0.1c-0.1,0-0.2-0.1-0.2-0.1c-0.1,0-0.1,0.1-0.2,0.2
			s-0.2-0.1-0.2,0c-0.1,0.1-0.2,0.1-0.2,0s0-0.2,0-0.1c-0.1,0-0.1,0.1-0.1,0.1c0,0.1-0.1,0.1-0.1,0.1s0.1,0,0.2,0c0,0,0,0.1,0,0.2
			c0,0-0.1,0.1-0.2,0.1c-0.1,0-0.1-0.1-0.1-0.1s-0.1,0.1-0.3,0.2s-0.2,0-0.3,0c-0.1,0-0.3,0.1-0.4,0.1c-0.1,0-0.1-0.1,0-0.1
			c0,0,0.2-0.1,0.3-0.1c0,0,0.3-0.1,0.3-0.2c0,0.1,0.1,0,0.1-0.1c0-0.1-0.2,0-0.2,0s-0.1,0-0.1-0.1l-0.1,0.1c0,0-0.1,0-0.1-0.1
			s-0.1-0.1-0.1-0.1c0,0.1-0.2,0.2-0.2,0.1c0,0-0.1-0.2-0.2-0.3c0-0.1,0-0.1,0.1-0.2c0.1-0.1,0.2-0.1,0.3-0.1c0.1,0,0.2-0.1,0.1-0.1
			c0,0-0.1,0-0.2,0c-0.1,0.1-0.2,0-0.2,0s-0.1,0.1-0.2,0c-0.1,0-0.1-0.1-0.1-0.1s0.2-0.1,0.3-0.1L-937.8,534.7z M-929.1,538.1
			c0.1,0,0.1-0.2,0.1-0.2s0-0.2,0-0.3c0,0,0.1-0.1,0.2-0.1c0.1,0,0.2,0.1,0.2,0.2s0,0.2,0.1,0.2c0,0,0.2-0.1,0.1-0.1
			c0-0.1,0-0.3,0-0.2c0,0.1,0.1,0.1,0.1,0.1s0-0.2-0.1-0.2c-0.1,0-0.2,0-0.2,0s-0.2-0.1-0.3,0c-0.1,0-0.2,0-0.2,0.1
			c0,0.1,0,0.3,0,0.3S-929.2,538.1-929.1,538.1 M-928.5,538.1c0,0.1,0.1,0,0.2-0.1c0.1-0.1,0.2-0.1,0.2-0.1c0-0.1,0.1,0,0.2-0.1
			c0-0.1,0.1-0.1,0.1-0.1s-0.2,0-0.3,0l-0.2,0.2C-928.3,537.9-928.5,538-928.5,538.1C-928.5,538-928.6,538-928.5,538.1
			 M-929.5,537.2c0,0.1,0.1,0.1,0.2,0c0.1,0,0.1-0.1,0.2-0.1c0,0,0,0.1,0.1,0.1s0.2,0,0.2,0s0.1-0.1,0-0.2c-0.1,0-0.2-0.1-0.2-0.2
			C-929.1,536.9-929.2,537-929.5,537.2C-929.5,537.1-929.5,537.1-929.5,537.2 M-933.4,536.8c-0.1,0,0,0.1,0.1,0.2c0,0,0.1,0,0.2,0.1
			c0,0.1,0,0.2,0.1,0.2c0,0,0-0.1,0-0.2l-0.2-0.2C-933.3,536.9-933.4,536.9-933.4,536.8"/>
	</g>
	<g>
		<defs>
			<rect id="SVGID_9_" x="-939" y="531.7" width="39.9" height="19.3"/>
		</defs>
		<clipPath id="SVGID_10_">
			<use xlink:href="#SVGID_9_"  style="overflow:visible;"/>
		</clipPath>
		<path class="st4" d="M-928.7,535.3c0,0,0.1,0.1,0.1,0C-928.6,535.3-928.7,535.2-928.7,535.3"/>
	</g>
	<g>
		<defs>
			<rect id="SVGID_11_" x="-939" y="531.7" width="39.9" height="19.3"/>
		</defs>
		<clipPath id="SVGID_12_">
			<use xlink:href="#SVGID_11_"  style="overflow:visible;"/>
		</clipPath>
		<path class="st5" d="M-928.4,535.4C-928.5,535.4-928.4,535.5-928.4,535.4C-928.2,535.4-928.3,535.3-928.4,535.4"/>
	</g>
	<g>
		<defs>
			<rect id="SVGID_13_" x="-939" y="531.7" width="39.9" height="19.3"/>
		</defs>
		<clipPath id="SVGID_14_">
			<use xlink:href="#SVGID_13_"  style="overflow:visible;"/>
		</clipPath>
		<path class="st6" d="M-933.1,533.5L-933.1,533.5c0.2,0,0.3,0,0.4,0c0,0,0.2-0.1,0.2,0c0,0.1,0.1,0.2,0.1,0.2s0.1-0.1,0.2-0.1
			c0,0,0.1,0.1,0.1,0.2h0.2c0.1,0,0.2,0,0.3,0c0.1,0,0.3,0.1,0.3,0c0-0.1,0.1-0.1,0.1-0.1v-0.2c0,0,0-0.1-0.1,0
			c-0.1,0-0.1,0.1-0.1,0c-0.1,0-0.1-0.1-0.2-0.1c-0.1,0-0.1,0.1-0.2,0.1c-0.1,0-0.1,0.1-0.1,0l-0.2-0.1c0,0-0.3,0-0.3-0.1
			c0,0-0.1-0.1-0.2-0.1C-932.7,533.3-932.9,533.4-933.1,533.5C-933.1,533.4-933,533.5-933.1,533.5
			C-933,533.5-933.1,533.5-933.1,533.5"/>
	</g>
	<g>
		<defs>
			<rect id="SVGID_15_" x="-939" y="531.7" width="39.9" height="19.3"/>
		</defs>
		<clipPath id="SVGID_16_">
			<use xlink:href="#SVGID_15_"  style="overflow:visible;"/>
		</clipPath>
		<path class="st7" d="M-932,533.2C-932.1,533.2-932.1,533.3-932,533.2c0,0.1,0.2,0,0.2,0.1h0.1v-0.2
			C-931.8,533.1-931.9,533.2-932,533.2"/>
	</g>
	<g>
		<defs>
			<rect id="SVGID_17_" x="-939" y="531.7" width="39.9" height="19.3"/>
		</defs>
		<clipPath id="SVGID_18_">
			<use xlink:href="#SVGID_17_"  style="overflow:visible;"/>
		</clipPath>
		<path class="st8" d="M-931.2,533.1c0,0.1,0,0.1,0.1,0.1c0.1,0,0.2,0,0.3,0c0,0,0,0.1,0.1,0.1c0.1,0,0.1,0,0.2,0s0-0.1,0-0.2
			c0-0.1,0-0.1-0.1-0.1c-0.1,0-0.2,0-0.3,0C-931.1,533-931.1,533-931.2,533.1"/>
	</g>
	<g>
		<defs>
			<rect id="SVGID_19_" x="-939" y="531.7" width="39.9" height="19.3"/>
		</defs>
		<clipPath id="SVGID_20_">
			<use xlink:href="#SVGID_19_"  style="overflow:visible;"/>
		</clipPath>
		<path class="st9" d="M-931,533.5c0,0.1,0,0.2,0,0.2v0.1c0.1,0,0.1-0.2,0.1-0.2s0.2-0.1,0.3,0c0,0.1,0,0,0.1,0.1
			c0.1,0,0.2-0.1,0.2-0.1s0-0.1-0.2-0.1C-930.6,533.5-931,533.4-931,533.5"/>
	</g>
	<g>
		<defs>
			<rect id="SVGID_21_" x="-939" y="531.7" width="39.9" height="19.3"/>
		</defs>
		<clipPath id="SVGID_22_">
			<use xlink:href="#SVGID_21_"  style="overflow:visible;"/>
		</clipPath>
		<path class="st10" d="M-930.8,533.9C-930.8,533.9-930.8,534-930.8,533.9c0.2,0.1,0.3,0,0.3,0.1c0,0,0.1,0.2,0.2,0.2
			c0.1-0.1,0.1-0.1,0.1-0.1s0-0.2-0.1-0.2c-0.1,0-0.2,0-0.3,0C-930.6,533.9-930.7,533.8-930.8,533.9"/>
	</g>
	<g>
		<defs>
			<rect id="SVGID_23_" x="-939" y="531.7" width="39.9" height="19.3"/>
		</defs>
		<clipPath id="SVGID_24_">
			<use xlink:href="#SVGID_23_"  style="overflow:visible;"/>
		</clipPath>
		<path class="st11" d="M-930.1,533.9C-930.1,533.9-930,534-930.1,533.9c0.2,0,0.3,0,0.4,0c0.1,0,0.1-0.1,0-0.1c0,0-0.1-0.1-0.1,0
			C-929.9,533.8-930.1,533.9-930.1,533.9"/>
	</g>
	<g>
		<defs>
			<rect id="SVGID_25_" x="-939" y="531.7" width="39.9" height="19.3"/>
		</defs>
		<clipPath id="SVGID_26_">
			<use xlink:href="#SVGID_25_"  style="overflow:visible;"/>
		</clipPath>
		<path class="st12" d="M-930.1,533.6c0,0.1,0.3,0.1,0.2,0.1C-929.9,533.6-930.1,533.5-930.1,533.6"/>
	</g>
	<g>
		<defs>
			<rect id="SVGID_27_" x="-939" y="531.7" width="39.9" height="19.3"/>
		</defs>
		<clipPath id="SVGID_28_">
			<use xlink:href="#SVGID_27_"  style="overflow:visible;"/>
		</clipPath>
		<path class="st13" d="M-930,533.2c-0.1,0-0.2-0.1-0.2-0.1v0.1c0,0.1,0.2,0.2,0.2,0.3c0.1,0,0.2,0,0.3,0.1c0.1,0,0.2,0.1,0.2,0.1
			h0.2c0,0,0.1,0,0.3,0c0.1,0,0.4,0,0.5,0s0.2,0,0.2,0s-0.2-0.1-0.3-0.1c-0.1,0-0.4,0-0.5,0c-0.1,0-0.2,0-0.3,0
			c-0.1,0-0.1-0.1-0.2-0.1c-0.1,0-0.2-0.2-0.2-0.2C-929.9,533.3-929.9,533.3-930,533.2"/>
	</g>
	<g>
		<defs>
			<rect id="SVGID_29_" x="-939" y="531.7" width="39.9" height="19.3"/>
		</defs>
		<clipPath id="SVGID_30_">
			<use xlink:href="#SVGID_29_"  style="overflow:visible;"/>
		</clipPath>
		<path class="st14" d="M-922.1,534.8c0,0.1-0.1,0.1,0,0.2c0,0.1,0.1,0.1,0.1,0.1h0.2c0,0.1,0.1,0.1,0.2,0.1c0.1,0,0.2-0.1,0.2-0.1
			l0.2-0.1c0,0,0.1-0.1,0.1-0.2c-0.1-0.1-0.2-0.1-0.2-0.1c-0.1,0-0.1,0.1-0.2,0.1s-0.2,0.1-0.3,0
			C-921.9,534.8-922.1,534.8-922.1,534.8"/>
	</g>
	<g>
		<defs>
			<rect id="SVGID_31_" x="-939" y="531.7" width="39.9" height="19.3"/>
		</defs>
		<clipPath id="SVGID_32_">
			<use xlink:href="#SVGID_31_"  style="overflow:visible;"/>
		</clipPath>
		<path class="st15" d="M-927.5,533.3c0.1,0.1,0.1,0,0.2,0c0.1,0,0.2,0.2,0.2,0.2h0.1l0.1-0.2c0,0,0,0.1,0.1,0.2c0.1,0,0.2,0,0.3,0
			c0,0,0.3,0.1,0.4,0.1c0.1,0,0.3,0.1,0.3,0.2c0.1,0.1,0.1,0.4,0.1,0.5c0,0,0.1-0.1,0.2-0.2c0,0,0.1,0,0.2,0c0,0.1,0.1,0.2,0.1,0.2
			c0,0.1,0,0.1-0.1,0.1c0,0-0.1,0-0.1-0.1c0-0.1,0-0.2,0-0.2h-0.1c0,0-0.1,0-0.1,0.1c-0.1,0.1,0,0.2,0,0.2h0.1c0,0-0.1,0.2-0.1,0.3
			s0.1,0.2,0.1,0.3c0,0,0.1,0.1,0.2,0.1c0,0-0.1,0-0.1,0.1s0.1,0.2,0.1,0.2c0.1,0,0.2,0.2,0.3,0.2c0,0.1,0.2,0,0.2-0.1
			c0,0,0,0.2,0.1,0.2c0.1,0,0.1,0,0.2-0.1c0.1-0.1,0.1-0.2,0.1-0.2c0-0.1,0-0.1,0.1-0.1c0.1,0,0.1,0,0.1-0.1s-0.1-0.2,0.1-0.2
			c0.1,0,0.2-0.1,0.3-0.1c0.1,0,0.3,0,0.3,0s0.1-0.3,0.2-0.3c0.1,0,0.2,0,0.4,0c0.2,0,0.3-0.1,0.4-0.1s0.2,0,0.1,0
			c0,0-0.1-0.1-0.2-0.1c-0.1,0-0.1-0.2-0.1-0.2s0.2,0.1,0.2,0.2c0,0.1,0,0.2,0.2,0.1c0.1,0,0.1-0.1,0.1-0.2c0,0,0-0.1-0.1-0.2
			c0-0.1-0.1-0.2,0-0.2c0.1,0,0.4,0.2,0.3,0c0-0.1,0-0.2,0-0.3c0-0.1,0.1-0.1,0.1-0.1s-0.1,0-0.1-0.1c0-0.1,0-0.2,0.1-0.2
			c0,0,0.3-0.3,0.4-0.4c0.1,0,0.2-0.2,0.1-0.3c-0.1,0-0.3-0.1-0.4,0c-0.1,0-0.2,0.2-0.3,0.1c-0.1,0-0.2-0.2-0.2-0.3
			c-0.1-0.1,0-0.4-0.2-0.4h-0.1c0,0-0.1,0-0.2,0c-0.1,0-0.2,0.1-0.3,0.1c-0.1,0-0.2,0-0.3,0.1c-0.3,0.1-0.5,0-0.6,0c0,0,0.2,0,0.4,0
			c0.1,0,0.4-0.1,0.5-0.1c0.1,0,0-0.1,0-0.1c-0.1,0-0.4-0.1-0.5-0.1c-0.1,0-0.2,0-0.4,0s-0.4,0-0.5,0.1c-0.1,0.1-0.3,0.1-0.3,0.1
			c-0.1,0.1-0.1,0.3-0.2,0.3c-0.1-0.1-0.1-0.2-0.2-0.2c-0.1,0.1,0,0.2-0.1,0.3c-0.1,0.1-0.3,0.1-0.3,0.1c-0.1,0-0.1-0.1-0.3-0.1
			c-0.2,0-0.5,0.1-0.4,0.2c0.1,0.1-0.2,0.1-0.2,0.1l-0.2,0.1c0,0.1,0,0.2-0.1,0.2c-0.1,0-0.2,0.1-0.2,0.1c0,0.1-0.2,0.1-0.2,0.1
			S-927.6,533.2-927.5,533.3"/>
	</g>
	<g>
		<defs>
			<rect id="SVGID_33_" x="-939" y="531.7" width="39.9" height="19.3"/>
		</defs>
		<clipPath id="SVGID_34_">
			<use xlink:href="#SVGID_33_"  style="overflow:visible;"/>
		</clipPath>
		<path class="st16" d="M-928.8,540.6c0,0.1,0.1,0.1,0.2,0.1c0.1,0,0.3,0,0.4,0c0,0.1,0.2,0.1,0.3,0.2c0,0,0.2,0.1,0.2,0
			c0,0-0.1-0.2-0.2-0.2c-0.1,0-0.2-0.1-0.3-0.2c-0.1-0.1-0.2-0.1-0.3-0.1S-928.8,540.6-928.8,540.6"/>
	</g>
	<g>
		<defs>
			<rect id="SVGID_35_" x="-939" y="531.7" width="39.9" height="19.3"/>
		</defs>
		<clipPath id="SVGID_36_">
			<use xlink:href="#SVGID_35_"  style="overflow:visible;"/>
		</clipPath>
		<path class="st17" d="M-928.1,540.3c-0.1,0-0.1,0.1,0,0.1C-928,540.4-928,540.3-928.1,540.3"/>
	</g>
	<g>
		<defs>
			<rect id="SVGID_37_" x="-939" y="531.7" width="39.9" height="19.3"/>
		</defs>
		<clipPath id="SVGID_38_">
			<use xlink:href="#SVGID_37_"  style="overflow:visible;"/>
		</clipPath>
		<path class="st18" d="M-928.1,541.2c-0.1,0-0.1,0.2,0,0.2C-927.9,541.4-928,541.2-928.1,541.2"/>
	</g>
	<g>
		<defs>
			<rect id="SVGID_39_" x="-939" y="531.7" width="39.9" height="19.3"/>
		</defs>
		<clipPath id="SVGID_40_">
			<use xlink:href="#SVGID_39_"  style="overflow:visible;"/>
		</clipPath>
		<path class="st19" d="M-926.8,541.1c-0.1,0-0.1,0.2,0,0.2C-926.7,541.2-926.7,541.1-926.8,541.1"/>
	</g>
	<g>
		<defs>
			<rect id="SVGID_41_" x="-939" y="531.7" width="39.9" height="19.3"/>
		</defs>
		<clipPath id="SVGID_42_">
			<use xlink:href="#SVGID_41_"  style="overflow:visible;"/>
		</clipPath>
		<path class="st20" d="M-927.7,541.1c0,0,0.1,0,0.2,0s0.1,0,0.2,0.1c0.1,0,0.2,0,0.2,0s0.1,0.1,0.1,0s-0.1-0.2-0.2-0.2
			c-0.1,0-0.2,0-0.2,0C-927.5,541-927.7,541.1-927.7,541.1"/>
	</g>
	<g>
		<defs>
			<rect id="SVGID_43_" x="-939" y="531.7" width="39.9" height="19.3"/>
		</defs>
		<clipPath id="SVGID_44_">
			<use xlink:href="#SVGID_43_"  style="overflow:visible;"/>
		</clipPath>
		<path class="st21" d="M-919.7,538.9c0,0,0.2-0.1,0.3-0.1c0.1,0,0.4-0.1,0.4-0.1s0.5,0,0.6,0c0.1,0,0.3-0.1,0.4,0.2
			c0.1,0.2-0.1,0.1-0.2,0.2c-0.1,0,0,0.1,0.1,0.1l0.2,0.1c0.1,0,0.2,0.1,0.2,0.1l0.2,0.1c0.1,0,0.2,0.2,0.3,0.1
			c0.1-0.1,0.1-0.3,0.2-0.3s0.2,0.1,0.3,0.1c0.1,0,0.4,0,0.4,0c0,0.1-0.3,0.2-0.2,0.3c0,0,0.1,0,0.2-0.1c0.1-0.1,0.2-0.1,0.4-0.2
			c0.1,0,0.2,0.2,0.2,0.2c0,0.1,0.1,0.2,0.2,0.3c0.1,0.1,0.1,0.3,0.2,0.5c0.1,0.2,0,0.5,0.1,0.6c0.1,0.1,0.3,0.2,0.3,0.3
			c0,0.1,0.2,0.3,0.2,0.3l0.2,0.3c0,0.1-0.1,0.2,0.1,0.2c0.2,0,0.3-0.1,0.3-0.1s0.4-0.2,0.5-0.1c0,0.1-0.1,0.4-0.1,0.4
			c0,0.1-0.3,0.5-0.3,0.6c0,0.1-0.2,0.3-0.3,0.3c-0.1,0-0.3,0.3-0.4,0.4c-0.1,0.1-0.2,0.3-0.3,0.3s-0.1,0.3-0.1,0.4
			c0,0,0,0.3,0.1,0.3c0.1,0.1,0.1,0.2,0.1,0.2c0,0.1,0,0.3,0,0.4s-0.2,0.3-0.2,0.3s-0.2,0.2-0.3,0.3c-0.1,0.1-0.1,0.2-0.1,0.3
			c0,0.1,0.1,0.3,0.1,0.4c0,0.1-0.3,0.1-0.3,0.1c-0.1,0,0,0.2,0.1,0.3c0,0.1-0.1,0.2-0.2,0.3c-0.1,0.1-0.2,0.3-0.4,0.4
			c-0.1,0.1-0.3,0.1-0.4,0.1c-0.1,0-0.3,0.1-0.4,0.2c0,0.1-0.1,0-0.2,0c-0.1-0.1-0.1-0.1-0.1-0.3c0-0.1,0-0.2,0-0.2s0-0.2-0.1-0.3
			c-0.1-0.1-0.1-0.2-0.2-0.3c0-0.1,0.1-0.3,0.1-0.4c0-0.1-0.2-0.3-0.2-0.3c0-0.1-0.1-0.3-0.2-0.4c0-0.1-0.1-0.2-0.1-0.5
			c0-0.2,0.1-0.4,0.2-0.4c0.1-0.1,0-0.1,0-0.3c-0.1-0.1,0-0.4,0-0.4c-0.1-0.1-0.1-0.5-0.3-0.6c-0.1-0.1-0.2-0.1-0.2-0.2
			c0.1-0.2,0-0.3,0.1-0.4c0.1-0.1,0-0.2-0.1-0.2c-0.1-0.1-0.1-0.1-0.2,0s-0.2,0.1-0.3,0c-0.1-0.1,0-0.2-0.2-0.3
			c-0.1-0.1-0.3-0.1-0.4,0c0,0-0.1,0.2-0.3,0.2c-0.1,0-0.2,0-0.4,0c-0.1,0-0.2,0-0.3,0.1c0,0.1,0,0.1-0.1,0s-0.3-0.3-0.3-0.3
			s-0.2-0.3-0.2-0.4c0-0.1-0.2-0.1-0.4-0.2c-0.2-0.1-0.1-0.2-0.1-0.3c0-0.1-0.1-0.2-0.1-0.2s0-0.1,0.1-0.2c0.1-0.2,0-0.3,0-0.4
			s-0.1-0.2,0-0.4c0.1-0.1,0.2-0.5,0.2-0.6c0.1-0.1,0.3-0.2,0.4-0.2c0.1-0.1,0-0.2,0.1-0.4c0.1-0.2,0.1-0.2,0.2-0.2
			c0,0,0.1-0.1,0.2-0.2C-919.9,538.9-919.7,539-919.7,538.9 M-915.5,543.6h-0.2c0,0.1-0.1,0.3,0,0.3
			C-915.6,543.9-915.5,543.6-915.5,543.6"/>
	</g>
	<g>
		<defs>
			<rect id="SVGID_45_" x="-939" y="531.7" width="39.9" height="19.3"/>
		</defs>
		<clipPath id="SVGID_46_">
			<use xlink:href="#SVGID_45_"  style="overflow:visible;"/>
		</clipPath>
		<path class="st22" d="M-913.8,545.2c-0.1,0-0.1,0.1-0.2,0.3c-0.1,0.1-0.2,0.2-0.2,0.2s-0.2,0.1-0.2,0.2c0.1,0.2,0.1,0.3,0,0.4
			c-0.1,0.1,0.1,0.3,0,0.4c0,0.1,0,0.2,0.2,0.2s0.2-0.1,0.2-0.2c0.1-0.1,0.1-0.3,0.1-0.4c0.1-0.1,0.1-0.4,0.1-0.4
			c0-0.1,0.1-0.3,0.1-0.4C-913.7,545.4-913.7,545.2-913.8,545.2"/>
	</g>
	<g>
		<defs>
			<rect id="SVGID_47_" x="-939" y="531.7" width="39.9" height="19.3"/>
		</defs>
		<clipPath id="SVGID_48_">
			<use xlink:href="#SVGID_47_"  style="overflow:visible;"/>
		</clipPath>
		<path class="st23" d="M-910.3,542.3c-0.1,0-0.1,0.6,0,0.6c0.1,0,0.2-0.3,0.2-0.4C-910.1,542.4-910.3,542.3-910.3,542.3"/>
	</g>
	<g>
		<defs>
			<rect id="SVGID_49_" x="-939" y="531.7" width="39.9" height="19.3"/>
		</defs>
		<clipPath id="SVGID_50_">
			<use xlink:href="#SVGID_49_"  style="overflow:visible;"/>
		</clipPath>
		<path class="st24" d="M-918.4,538.1c-0.1,0-0.1,0.2-0.1,0.2c0.1,0.1,0.1,0,0.2,0C-918.2,538.2-918.3,538.1-918.4,538.1"/>
	</g>
	<g>
		<defs>
			<rect id="SVGID_51_" x="-939" y="531.7" width="39.9" height="19.3"/>
		</defs>
		<clipPath id="SVGID_52_">
			<use xlink:href="#SVGID_51_"  style="overflow:visible;"/>
		</clipPath>
		<path class="st25" d="M-919.1,538.3C-919.1,538.4-919,538.4-919.1,538.3C-919,538.3-919,538.2-919.1,538.3"/>
	</g>
	<g>
		<defs>
			<rect id="SVGID_53_" x="-939" y="531.7" width="39.9" height="19.3"/>
		</defs>
		<clipPath id="SVGID_54_">
			<use xlink:href="#SVGID_53_"  style="overflow:visible;"/>
		</clipPath>
		<path class="st26" d="M-917.9,538.5l0.1,0.1l0.1,0.1c0,0,0.2,0,0.1-0.1c0-0.1-0.1-0.1-0.2-0.1H-917.9"/>
	</g>
	<g>
		<defs>
			<rect id="SVGID_55_" x="-939" y="531.7" width="39.9" height="19.3"/>
		</defs>
		<clipPath id="SVGID_56_">
			<use xlink:href="#SVGID_55_"  style="overflow:visible;"/>
		</clipPath>
		<path class="st27" d="M-920.2,536.2c-0.1,0-0.1,0.1-0.2,0.1c-0.1,0-0.1,0-0.1,0.1c0,0.1,0.1,0.1,0,0.2c-0.1,0,0,0.2,0.1,0.2
			c0.1,0,0.2-0.1,0.2-0.1c0.1,0,0.2-0.1,0.2-0.2c0-0.1,0-0.2-0.1-0.2C-920.2,536.3-920.2,536.2-920.2,536.2"/>
	</g>
	<g>
		<defs>
			<rect id="SVGID_57_" x="-939" y="531.7" width="39.9" height="19.3"/>
		</defs>
		<clipPath id="SVGID_58_">
			<use xlink:href="#SVGID_57_"  style="overflow:visible;"/>
		</clipPath>
		<path class="st28" d="M-920.1,535.9c-0.1,0,0,0.1,0,0.2c0,0.1,0.1,0.2,0.2,0.2c0.1,0,0.3,0.1,0.2,0.1c-0.1,0.1-0.3,0.3-0.3,0.4
			c0,0.1,0.2,0,0.2,0s-0.1,0.1,0,0.1c0,0,0.1-0.1,0.2-0.1c0.1,0,0.2,0.1,0.3,0.1c0.1,0,0.2-0.1,0.2-0.2s-0.1-0.2-0.2-0.2
			c-0.1,0-0.2-0.2-0.2-0.3c-0.1,0,0.2-0.2,0.1-0.3c-0.1-0.1-0.3,0-0.3-0.1c-0.1-0.1-0.1,0-0.2,0.1C-920,536-920.1,535.9-920.1,535.9
			"/>
	</g>
	<g>
		<defs>
			<rect id="SVGID_59_" x="-939" y="531.7" width="39.9" height="19.3"/>
		</defs>
		<clipPath id="SVGID_60_">
			<use xlink:href="#SVGID_59_"  style="overflow:visible;"/>
		</clipPath>
		<path class="st29" d="M-919.5,537.5c0-0.1-0.2-0.2-0.3-0.2c-0.1,0-0.1-0.1,0-0.1c0.1,0,0.1-0.1,0.2-0.1c0.1,0,0.2-0.1,0.3-0.1
			c0.1,0,0.1-0.1,0.1-0.2c0-0.1,0.2-0.1,0.2-0.1s0.1-0.1,0.2-0.2c0.1-0.1,0.2-0.1,0.3,0c0.1,0,0-0.1,0-0.1c0-0.1,0-0.2,0-0.2
			c0-0.1,0.2-0.1,0.2-0.1s0,0.1,0,0.2c0,0.1,0.1,0.1,0.1,0.1h0.1h0.1c0.1,0,0.1,0,0.2,0c0.1,0,0.2,0,0.2,0s0.1,0,0.3,0
			c0.1,0.1,0.1-0.1,0.1-0.2s0.1-0.2,0.2-0.2s0.2,0.1,0.2,0c0.1-0.1-0.1-0.1-0.1-0.2c0,0,0.2,0,0.3,0c0.2,0,0.3,0,0.3,0
			c0.1,0-0.1-0.2-0.1-0.2s-0.2,0-0.3,0c-0.1,0-0.2,0.1-0.3,0.1s-0.1-0.1-0.2-0.2c0-0.1-0.1-0.2,0.1-0.3c0.1-0.1,0.3-0.2,0.4-0.3
			c0-0.1-0.2-0.1-0.3,0c-0.2,0,0,0.1-0.1,0.3c-0.2,0.2-0.3,0.1-0.4,0.2c-0.1,0.1,0,0.1,0.1,0.2c0.1,0,0,0.2,0,0.2l-0.2,0.2
			c0,0.1-0.1,0.1-0.1,0.1s-0.2,0.1-0.3,0.1c0,0,0,0,0-0.1c0-0.1-0.1-0.2-0.1-0.3c0-0.1-0.2,0-0.2,0.1c0,0.1-0.2,0.1-0.3,0
			c-0.1,0-0.2-0.2-0.1-0.2l-0.1-0.2c0,0,0.2-0.4,0.4-0.4c0.2,0,0.4-0.2,0.5-0.3c0.1-0.1,0.2-0.2,0.2-0.3c0,0,0.7-0.4,0.9-0.5
			c0.2,0,0.8,0.2,0.8,0.2c0.1,0,0.1,0.1,0.3,0.1c0.2,0.1,0.4,0,0.5,0c0.1,0,0.2,0.2,0.3,0.2c0.1,0,0,0.1-0.2,0.2
			c-0.2,0.1-0.4,0.1-0.5,0c-0.1,0-0.2,0-0.1,0c0.1,0.1,0.1,0.1,0.1,0.2c0,0.1,0.1,0,0.2,0c0,0,0-0.1,0.1,0c0.1,0.1,0.1,0,0.2,0
			c0,0,0-0.1,0-0.2c0,0,0.1,0,0.2-0.1c0,0,0.1-0.1,0.2-0.1c0.1,0,0,0.1,0.1,0.1c0.1,0,0-0.1,0-0.2v-0.2c0,0,0.2-0.1,0.3,0
			c0,0-0.1,0.2,0,0.3c0,0.1,0.1,0,0.1-0.1c0-0.1,0.2,0,0.3,0c0.2,0,0.1-0.1,0.3-0.1c0.2,0.1,0.1,0.1,0.2,0c0.1-0.1,0.2,0,0.3,0
			c0.1,0,0.1,0,0.2,0c0.1,0,0.2-0.1,0.2-0.1s0.2,0,0.3,0c0.1,0,0.2,0.1,0.2,0.1c0.1,0,0.2,0.1,0.2,0.1s0.2,0.1,0.2,0
			c0,0,0-0.1-0.2-0.2c-0.1-0.1-0.1-0.2,0-0.2s0.1-0.1,0.1-0.1c0.1,0,0.2-0.2,0.2-0.2c0.1,0,0.1,0.1,0.2,0.2c0.1,0.1,0,0.1,0,0.2
			c0,0.1,0,0.3,0,0.3s0,0.2-0.1,0.2c-0.1,0.1-0.2,0.2-0.2,0.2l0.3-0.1c0,0,0.1-0.2,0.2-0.3c0.1-0.1,0.1-0.1,0.2,0
			c0,0.1,0.1,0.1,0.2,0c0.1,0,0-0.1,0-0.2s-0.2,0-0.2,0c-0.1,0-0.2,0.1-0.2,0.1s0-0.1,0-0.2c0-0.1,0-0.2,0-0.2s0-0.1,0.1-0.2
			c0.1-0.1,0.1,0.1,0.1,0.2c0,0.1,0.1,0.1,0.1,0c0.1,0,0-0.1,0.1-0.2c0-0.1,0.2-0.1,0.2,0c0.1,0.1,0.1,0.1,0.2,0.1s0.1,0.1,0.1,0.2
			c0,0.1,0.1,0.1,0.1,0.1v-0.2c0,0-0.3-0.1-0.3-0.2c-0.1-0.1,0-0.1,0.1-0.1s0.2,0,0.2,0s0.2,0,0.3-0.1c0.1-0.1,0.2-0.1,0.3-0.1
			c0.1,0,0.2,0,0.3,0c0.1,0,0.2,0,0.3-0.1c0.1,0,0.2-0.3,0.2-0.1l0.3,0.1c0,0,0.1,0,0.3-0.1c0.3-0.2,0-0.2,0.1-0.1
			c0,0.1,0.2,0,0.4,0.1s0,0,0.1,0.1c0.1,0.1,0.1,0,0.2,0s0.2,0,0.3,0c0.1,0,0.3,0,0.4,0.1c0.3,0.1,0.2,0.3,0.1,0.3l0.1,0.1
			c0,0,0.4,0,0.5,0c0.1,0,0.2,0.1,0.3,0.1c0.1,0,0.2,0,0.2-0.1c0,0,0.3-0.1,0.4-0.1c0.1,0,0.3,0,0.3,0s0.1,0.1,0.1,0.2
			c0,0.1,0.1,0.2,0.2,0.2c0.1,0,0.2-0.1,0.2-0.2l0.1,0.1c0,0,0.3,0,0.4,0c0.1-0.1,0.2,0,0.2,0s0.1-0.1,0.1-0.2v-0.1
			c0-0.1-0.2,0-0.3-0.1c-0.1,0,0-0.3,0-0.2c0,0.1,0.2,0,0.2,0c0.1,0,0.1,0,0.1,0s0.2,0.1,0.3,0.1c0.1,0,0.2,0.1,0.2,0.1
			s-0.2,0.1-0.3,0.1c-0.1,0,0,0.1,0,0.1s0.1,0,0.2,0.1c0.1,0.1,0.4,0,0.4,0s0.2,0.1,0.3,0.1c0.1,0.1,0.2,0.1,0.2,0.1s0.2,0,0.3,0
			c0.2,0,0.4,0,0.4,0s0.1,0.1,0.2,0.1c0.1,0.1,0.1,0,0.2,0c0.1,0,0.2,0,0.3,0c0.1,0,0.4,0,0.5,0.1c0.1,0.1,0.1,0.1,0.1,0.1l0.1-0.2
			c0,0,0.2,0,0.2,0.1c0.1,0,0.4,0,0.5,0s0.2,0.1,0.2,0.2c-0.1,0.1,0.1,0.2,0,0.3c0,0.1-0.1,0.1-0.2,0.1s0.1,0.1,0.1,0.2
			c0.1,0.1,0,0.1-0.1,0.1s-0.2,0-0.5,0.1c-0.2,0.1-0.3,0.2-0.5,0.2s-0.1,0-0.4,0c-0.3,0-0.1,0.2-0.2,0.3c-0.1,0.1,0,0.1,0,0.2
			c0,0.1-0.1,0.2-0.1,0.3c0,0.1-0.2,0.1-0.2,0.2c-0.1,0.1-0.2,0.2-0.3,0.4c-0.2,0.1-0.3,0.3-0.3,0.3s0-0.2,0.1-0.3
			c0.1-0.1-0.1-0.3-0.1-0.5c0-0.1,0-0.2,0.1-0.3c0.1-0.1,0.3-0.2,0.4-0.2c0.1-0.1,0.5-0.4,0.5-0.4s0-0.1-0.1-0.1
			c-0.1,0-0.2,0.1-0.3,0.1c-0.1,0,0-0.1-0.1-0.2c0-0.1-0.2,0-0.3,0.1c0.1,0.1-0.1,0.2-0.2,0.3s-0.1,0.1-0.2,0.1
			c-0.1,0-0.2-0.1-0.3-0.1c-0.1-0.1-0.1,0-0.3,0.1c-0.2,0-0.4,0-0.5,0c-0.1,0-0.3,0.3-0.5,0.4c-0.1,0.1-0.3,0.2-0.3,0.2
			c0,0.1,0.1-0.1,0.2-0.1c0,0,0,0.2,0.1,0.2c0.1,0,0.1-0.1,0.2-0.1c0.1,0,0.2,0.1,0.2,0.2c0,0.1,0,0.2-0.1,0.4
			c0,0.2-0.1,0.3-0.2,0.4c-0.2,0.1-0.4,0.4-0.4,0.4c0,0.1-0.2,0-0.2,0s-0.1,0.1-0.2,0.1s-0.1,0.1-0.1,0.2c0,0.1-0.2,0.1-0.2,0.1
			c0,0.1,0.1,0.2,0.2,0.3c0,0.1,0,0.3-0.1,0.4c-0.1,0.1-0.1,0.1-0.2,0c-0.1-0.1,0-0.1,0-0.2s0-0.2-0.1-0.2l-0.1,0.1c0,0,0-0.1,0-0.2
			c0-0.1,0-0.2,0-0.2s-0.2,0.2-0.3,0.2c-0.1,0,0-0.2,0-0.3c0-0.1-0.1,0-0.1,0c-0.3,0.1-0.5,0.3-0.5,0.3s-0.1,0.1-0.1,0.2
			c0.1,0,0.1,0,0.2,0.1h0.2c0,0,0.1,0.1,0,0.2c-0.1,0.1-0.3,0-0.2,0.1c0,0.1,0.1,0.2,0.2,0.3c0.1,0.2,0,0.3,0.1,0.4
			c0,0.1-0.3,0.4-0.4,0.5s-0.2,0.3-0.3,0.4c-0.2,0.1-0.5,0.1-0.5,0.1s-0.2,0.1-0.2,0.2c0,0.1,0.1,0.1,0.1,0.1l-0.1,0.2
			c0,0.1-0.2,0-0.2-0.2s0.1-0.2,0.1-0.3c0,0-0.1,0-0.1,0c-0.1,0.1-0.2,0.3-0.2,0.3s0.1,0.2,0.2,0.3c0.1,0.1,0.1,0.2,0.3,0.4
			c0.1,0.2,0,0.3,0,0.4c0,0.1-0.1,0.1-0.2,0.1c-0.1,0-0.1,0.1-0.1,0.1c0,0.1-0.2,0.4-0.2,0.3c0-0.1-0.1-0.4-0.1-0.4
			s-0.1-0.2-0.2-0.3c-0.1-0.1-0.2-0.1-0.2,0c0,0.1-0.1,0.3-0.1,0.4c0,0.1-0.2-0.2-0.2-0.3c0-0.1,0-0.3,0-0.5s-0.2,0-0.2,0l-0.2,0.4
			c0,0,0-0.4,0-0.5c0-0.1,0-0.3-0.1-0.3c0,0-0.2-0.2-0.2-0.3c0-0.1-0.1-0.1-0.1,0c-0.3-0.1-0.2-0.1-0.5-0.1c-0.2,0-0.2,0.2-0.3,0.3
			c-0.1,0.1-0.2,0.3-0.3,0.4c-0.1,0.1-0.2,0.1-0.2,0.2c0,0.1,0.1,0.3,0,0.5c0,0.1-0.1,0.2-0.2,0.3c-0.1,0.1-0.1,0.3-0.2,0.3
			c-0.1,0-0.1-0.2-0.1-0.3c0-0.1-0.2-0.3-0.2-0.4c0-0.1-0.2-0.4-0.2-0.4s-0.1-0.4-0.1-0.5c0-0.1,0-0.4,0-0.4l-0.2,0.2
			c-0.1,0-0.1-0.1-0.1-0.3c0-0.1-0.1-0.1-0.2-0.2c-0.1,0-0.2-0.2-0.2-0.2s0,0,0,0.1c0,0.1-0.2,0.1-0.3,0.1c-0.1,0-0.3,0-0.4,0
			c-0.1,0-0.2-0.2-0.2-0.3l-0.2,0.1c-0.1,0-0.2-0.1-0.3-0.2c-0.1-0.1-0.3-0.3-0.3-0.4c0-0.1-0.2,0.1-0.2,0.2c0,0.1,0.2,0.3,0.2,0.3
			c0,0.1,0,0.1,0.1,0.2c0.1,0.1,0,0.2,0.1,0.2s0.2-0.1,0.3-0.1c0.1-0.1,0.1-0.1,0.1-0.1s0,0.1,0.1,0.2c0.1,0,0.3,0.1,0.3,0.2
			s0,0.1-0.1,0.2c0,0.1-0.2,0.3-0.2,0.4c-0.1,0.1-0.2,0.2-0.3,0.2c-0.1,0-0.2,0.1-0.3,0.1c-0.1,0-0.4,0.2-0.5,0.2
			c0,0-0.3,0.1-0.4,0.1s-0.1-0.3-0.1-0.4c0-0.2-0.1-0.3-0.1-0.3c0-0.1-0.2-0.2-0.2-0.3c0,0-0.1-0.3-0.1-0.4c0-0.1-0.1-0.1-0.1-0.2
			c0-0.1-0.1-0.3-0.1-0.4c0-0.1-0.2,0-0.3,0s-0.2-0.1-0.2-0.2c0-0.2,0.1-0.2,0.2-0.2s0.1-0.1,0.2-0.2c0.1-0.1,0.1-0.3,0.1-0.5
			c0-0.1-0.1-0.1-0.1-0.1c-0.1,0-0.2,0.1-0.2,0c0,0-0.2-0.1-0.2,0h-0.2c0,0-0.2-0.1-0.2-0.2c0,0,0-0.3,0-0.4c0-0.1-0.1,0-0.2,0.1
			c0,0-0.2,0.1-0.1,0.1c0,0,0.2,0.1,0.2,0.2c0,0.1-0.1,0.1-0.1,0.2c0,0-0.2,0.2-0.3,0.2c0-0.1,0-0.4-0.1-0.5c0,0-0.1-0.2-0.1-0.3
			c0-0.1-0.1-0.1-0.2-0.2c-0.5,0-0.7-0.2-0.7-0.2c-0.1-0.1-0.2-0.2-0.2,0c-0.1,0,0.1,0,0.1,0.2c0.1,0.1,0.2,0.2,0.2,0.2
			c0.1,0,0.2,0.2,0.2,0.2h-0.1c-0.1,0,0,0.2,0,0.3c0,0.1-0.1,0-0.1-0.1c0-0.1-0.1-0.2-0.1-0.2l-0.3-0.1c0,0-0.2-0.1-0.2-0.2
			c0-0.1-0.2-0.1-0.2-0.1l-0.2,0.1c-0.1,0-0.2-0.1-0.2-0.1c-0.2-0.1-0.2,0.1-0.2,0.2c0,0.1-0.2,0-0.2,0.1c-0.1,0.1-0.2,0.2-0.2,0.2
			c0,0.1,0.1,0.1,0,0.1c-0.1,0.1-0.1,0.2-0.2,0.2c-0.1,0-0.2,0.1-0.2,0l-0.1,0.1c0,0-0.1-0.1-0.1-0.2c0-0.1-0.2,0-0.2,0
			s-0.1-0.1-0.1-0.2c0,0,0-0.1,0-0.2c0,0,0.1-0.1,0-0.2c0-0.1,0-0.3,0-0.4c0.1,0,0.3,0,0.4,0c0.1,0,0.3,0,0.3,0
			C-919.5,537.7-919.5,537.6-919.5,537.5 M-915.9,535.5c0,0.1,0.2,0.2,0.3,0.1C-915.6,535.5-915.9,535.3-915.9,535.5 M-916.2,538.2
			c0,0,0.1-0.1,0.2-0.1s0.2,0,0.3,0c0-0.1,0.2-0.1,0.3-0.1c0.1,0,0.2,0.1,0.3,0.1c0.1,0,0.3,0,0.4,0c0.1,0,0.1-0.2-0.1-0.3
			c-0.1,0-0.2-0.1-0.3-0.2c-0.1,0-0.2-0.1-0.1-0.1c0.1,0,0.2-0.1,0.1-0.1c-0.1,0-0.2,0-0.2,0.1c0,0.1-0.1,0.1-0.1,0.1
			s-0.1,0.1-0.2,0c0-0.1-0.1-0.3-0.2-0.3c0,0-0.1,0-0.2,0.1c0,0.2-0.1,0.3-0.1,0.4c-0.1,0-0.1,0.2-0.1,0.2S-916.2,538.2-916.2,538.2
			 M-914,537.4c-0.1,0.1-0.2,0.2-0.1,0.3c0,0.1,0.2,0.3,0.2,0.3c0.1,0,0.3,0.1,0.2,0.2c-0.1,0.1-0.1,0.1-0.2,0.1c-0.1,0,0,0.3,0,0.3
			c0.1,0,0.3,0.1,0.3,0.1c0.1,0,0.3,0,0.3-0.1c0-0.1,0-0.3-0.1-0.4c-0.1-0.1,0.1-0.1,0.1-0.2c0-0.1-0.1,0-0.2-0.1
			c0-0.1-0.1-0.1-0.1-0.2c-0.1,0-0.1,0-0.1-0.1c0-0.1,0.1-0.2,0.2-0.1c0.1,0.1,0.2,0,0.3,0c0,0-0.1-0.1-0.1-0.2
			c0-0.1-0.2-0.1-0.2-0.1s-0.1,0.1-0.2,0.1C-913.8,537.5-914,537.4-914,537.4"/>
	</g>
	<g>
		<defs>
			<rect id="SVGID_61_" x="-939" y="531.7" width="39.9" height="19.3"/>
		</defs>
		<clipPath id="SVGID_62_">
			<use xlink:href="#SVGID_61_"  style="overflow:visible;"/>
		</clipPath>
		<path class="st30" d="M-912.9,534.2c-0.1,0.1-0.2,0.1-0.3,0c-0.1-0.1-0.2-0.1-0.3-0.1s0-0.2,0.1-0.2c0.1,0,0.2-0.1,0.4-0.2
			c0,0,0.1-0.2,0.2-0.2c0.1,0,0.6-0.1,0.6-0.1c0.1,0,0.3,0,0.4,0c0.1-0.1,0.3,0,0.2,0c-0.1,0.1-0.2,0.3-0.4,0.3c-0.1,0-0.4,0-0.6,0
			c-0.1,0-0.3,0.1-0.4,0.2C-913.1,534-913.1,534.1-912.9,534.2C-912.9,534.1-912.9,534.2-912.9,534.2"/>
	</g>
	<g>
		<defs>
			<rect id="SVGID_63_" x="-939" y="531.7" width="39.9" height="19.3"/>
		</defs>
		<clipPath id="SVGID_64_">
			<use xlink:href="#SVGID_63_"  style="overflow:visible;"/>
		</clipPath>
		<path class="st31" d="M-903.3,536.5c-0.1,0-0.2,0-0.2,0.1c0.1,0.2,0.1,0.3,0.1,0.4c0,0.1,0,0.4,0,0.4l0.1,0.1c0,0,0-0.2,0-0.3
			s0.1-0.1,0.1-0.1s0-0.2,0-0.3c-0.1-0.1-0.1-0.1-0.1-0.1S-903.2,536.6-903.3,536.5C-903.3,536.5-903.3,536.4-903.3,536.5"/>
	</g>
	<g>
		<defs>
			<rect id="SVGID_65_" x="-939" y="531.7" width="39.9" height="19.3"/>
		</defs>
		<clipPath id="SVGID_66_">
			<use xlink:href="#SVGID_65_"  style="overflow:visible;"/>
		</clipPath>
		<path class="st32" d="M-903.4,537.6c-0.1,0-0.1,0.1-0.1,0.2c0,0-0.3,0.1-0.2,0.2c0.1,0.1,0.2,0,0.3,0c0.1,0,0.3-0.1,0.3-0.1
			s0.2,0,0.2-0.1c-0.1-0.1-0.3-0.1-0.3-0.1C-903.3,537.7-903.3,537.6-903.4,537.6"/>
	</g>
	<g>
		<defs>
			<rect id="SVGID_67_" x="-939" y="531.7" width="39.9" height="19.3"/>
		</defs>
		<clipPath id="SVGID_68_">
			<use xlink:href="#SVGID_67_"  style="overflow:visible;"/>
		</clipPath>
		<path class="st33" d="M-903.6,538.1c-0.1,0.1,0,0.2-0.1,0.4c-0.1,0.1-0.1,0.2-0.2,0.2c0,0-0.2,0.1-0.3,0.2c-0.1,0.1-0.3-0.1-0.4,0
			c0,0.1-0.1,0.1-0.2,0.2c0,0-0.2,0-0.2,0.1s0.1,0.3,0.2,0.3c0.1,0,0.1,0,0.1-0.2c0-0.1,0.1,0,0.2,0s0.1-0.1,0.1-0.2
			c0-0.1,0,0,0.1,0.1c0.3,0,0.3-0.1,0.3-0.1l0.2-0.1l0.2-0.1v-0.3c0,0,0.1,0,0-0.2C-903.5,538.1-903.5,538-903.6,538.1"/>
	</g>
	<g>
		<defs>
			<rect id="SVGID_69_" x="-939" y="531.7" width="39.9" height="19.3"/>
		</defs>
		<clipPath id="SVGID_70_">
			<use xlink:href="#SVGID_69_"  style="overflow:visible;"/>
		</clipPath>
		<path class="st34" d="M-905.7,540.3c-0.1,0-0.2,0.4-0.1,0.4C-905.7,540.6-905.6,540.3-905.7,540.3"/>
	</g>
	<g>
		<defs>
			<rect id="SVGID_71_" x="-939" y="531.7" width="39.9" height="19.3"/>
		</defs>
		<clipPath id="SVGID_72_">
			<use xlink:href="#SVGID_71_"  style="overflow:visible;"/>
		</clipPath>
		<path class="st35" d="M-899.9,548.2c0,0,0,0.1,0,0.2c0,0.1,0.1,0.2,0,0.2c0,0-0.2,0.1-0.1,0.2c0.1,0.1,0.2,0,0.2,0.1
			c0,0.1-0.1,0.2,0,0.2c0.1,0,0.1-0.1,0.2-0.2c0-0.1,0.1-0.1,0.1-0.2c0.1,0,0-0.1,0-0.1s-0.1,0.1-0.1,0c-0.1-0.1-0.1,0-0.1-0.1
			C-899.7,548.3-899.8,548.2-899.9,548.2"/>
	</g>
	<g>
		<defs>
			<rect id="SVGID_73_" x="-939" y="531.7" width="39.9" height="19.3"/>
		</defs>
		<clipPath id="SVGID_74_">
			<use xlink:href="#SVGID_73_"  style="overflow:visible;"/>
		</clipPath>
		<path class="st36" d="M-899.9,549c0,0.1-0.1,0.1-0.2,0.1c-0.1,0.1,0,0.1-0.2,0.2c-0.2,0.1-0.4,0.2-0.4,0.3c0,0.1,0,0.2,0.2,0.2
			s0.1,0,0.2-0.1c0.1-0.1,0.2-0.2,0.3-0.3c0.1-0.1,0.1-0.3,0.1-0.3S-899.9,548.9-899.9,549"/>
	</g>
	<g>
		<defs>
			<rect id="SVGID_75_" x="-939" y="531.7" width="39.9" height="19.3"/>
		</defs>
		<clipPath id="SVGID_76_">
			<use xlink:href="#SVGID_75_"  style="overflow:visible;"/>
		</clipPath>
		<path class="st37" d="M-903.1,549c-0.1,0.1,0.1,0.1,0.1,0.2s0.1,0.1,0.2,0.1c0,0,0.2-0.3,0.1-0.3c0-0.1-0.2,0.1-0.3,0.1
			C-903,549.1-903.1,549-903.1,549"/>
	</g>
	<g>
		<defs>
			<rect id="SVGID_77_" x="-939" y="531.7" width="39.9" height="19.3"/>
		</defs>
		<clipPath id="SVGID_78_">
			<use xlink:href="#SVGID_77_"  style="overflow:visible;"/>
		</clipPath>
		<path class="st38" d="M-903.8,548.2C-903.8,548.1-903.9,548.3-903.8,548.2c-0.1-0.1-0.1-0.2-0.2-0.2c-0.1,0.1-0.1,0.1-0.2,0.2
			c0,0.1-0.2,0.1-0.2,0s0.1-0.2,0-0.2c-0.1-0.1-0.2-0.1-0.3-0.1c-0.1,0,0-0.1-0.2-0.1c-0.2,0.1-0.3,0.1-0.3,0.1s-0.2-0.1-0.3,0
			c-0.1,0.1-0.1,0.4-0.1,0.4s-0.3-0.1-0.4-0.1s-0.2,0.1-0.2,0.1c-0.1,0-0.2,0.1-0.3,0c-0.1-0.1-0.2-0.2-0.1-0.2
			c0-0.1,0.2-0.2,0.2-0.3c-0.1-0.1-0.1-0.1-0.1-0.2c0-0.1,0-0.1-0.1-0.2c-0.1-0.1-0.1-0.3,0-0.3l-0.2-0.2c0-0.1,0.1-0.3,0.2-0.3
			c0.1-0.1,0.3-0.3,0.4-0.3c0.1,0,0.2,0,0.2,0c0.1-0.1,0.3,0,0.3-0.1s-0.1-0.4,0-0.5c0-0.1,0.3,0.1,0.4,0c0,0,0.1-0.2,0.1-0.3
			c0.1,0,0.1-0.1,0.2,0c0.1,0.1,0.2,0.2,0.2,0c0-0.1,0-0.1,0.1-0.2c0.1-0.1,0-0.3,0.1-0.2c0.1,0.1,0.1,0.2,0.1,0.2V545
			c0.1,0,0.1,0.1,0.1,0.1s0.3-0.1,0.3,0c0,0.1-0.1,0.3-0.1,0.4c0.1,0.1,0.2,0.1,0.3,0.2c0.1,0.1,0.2,0.2,0.3,0.1
			c0-0.1,0.1-0.3,0.1-0.4c-0.1-0.1,0-0.4,0-0.5c0,0,0.1,0.3,0.2,0.4c0.1,0.1,0.2,0.2,0.2,0.3c0,0.1,0.1,0.4,0.1,0.4
			c0.1,0.1,0.4,0.1,0.4,0.2s0,0.3,0.1,0.5s0.3,0.6,0.3,0.8s-0.3,0.4-0.4,0.5c-0.1,0.1-0.1,0.3-0.2,0.4c0,0.1,0,0.1-0.2,0.1
			s0,0.3,0,0.3l-0.2-0.1c0,0.1-0.1,0.2-0.2,0c-0.1-0.1-0.2-0.1-0.2-0.1s0-0.1,0-0.2C-903.6,548.3-903.7,548.3-903.8,548.2
			C-903.8,548.2-903.8,548.2-903.8,548.2"/>
	</g>
	<g>
		<defs>
			<rect id="SVGID_79_" x="-939" y="531.7" width="39.9" height="19.3"/>
		</defs>
		<clipPath id="SVGID_80_">
			<use xlink:href="#SVGID_79_"  style="overflow:visible;"/>
		</clipPath>
		<path class="st39" d="M-899.4,546c0.1,0.1,0.3-0.2,0.3-0.2C-899.2,545.7-899.4,546-899.4,546"/>
	</g>
	<g>
		<defs>
			<rect id="SVGID_81_" x="-939" y="531.7" width="39.9" height="19.3"/>
		</defs>
		<clipPath id="SVGID_82_">
			<use xlink:href="#SVGID_81_"  style="overflow:visible;"/>
		</clipPath>
		<path class="st40" d="M-900.6,546.5c0,0.1-0.1,0.1-0.2,0c-0.1-0.1-0.2-0.2,0-0.1C-900.6,546.4-900.6,546.5-900.6,546.5"/>
	</g>
	<g>
		<defs>
			<rect id="SVGID_83_" x="-939" y="531.7" width="39.9" height="19.3"/>
		</defs>
		<clipPath id="SVGID_84_">
			<use xlink:href="#SVGID_83_"  style="overflow:visible;"/>
		</clipPath>
		<path class="st41" d="M-908.6,542.9c-0.1,0,0.2,0.3,0.2,0.3s0.3,0.3,0.3,0.4c0,0.1,0.1,0.5,0.1,0.6c0,0,0.4,0.1,0.4,0.2
			c0,0.1,0.1,0.1,0.1,0c0-0.1,0-0.3,0.1-0.3c0-0.1,0-0.2,0-0.2c-0.1,0-0.1-0.1-0.3-0.2c-0.1-0.1-0.2-0.2-0.3-0.3
			c-0.1-0.1-0.3-0.2-0.3-0.3C-908.5,542.9-908.6,542.8-908.6,542.9"/>
	</g>
	<g>
		<defs>
			<rect id="SVGID_85_" x="-939" y="531.7" width="39.9" height="19.3"/>
		</defs>
		<clipPath id="SVGID_86_">
			<use xlink:href="#SVGID_85_"  style="overflow:visible;"/>
		</clipPath>
		<path class="st42" d="M-908.3,542.3c-0.1,0-0.1,0.2,0,0.2c0,0.1,0.1,0,0.2,0.2c0,0.2,0.1,0.4,0.2,0.5c0,0.1,0.2,0.2,0.3,0.2
			c0.1,0.1,0.1,0,0.1-0.1c0-0.1-0.1-0.2-0.1-0.2c0-0.1-0.1-0.2-0.1-0.3c-0.1-0.1-0.1-0.2-0.2-0.3
			C-908.1,542.4-908.3,542.3-908.3,542.3"/>
	</g>
	<g>
		<defs>
			<rect id="SVGID_87_" x="-939" y="531.7" width="39.9" height="19.3"/>
		</defs>
		<clipPath id="SVGID_88_">
			<use xlink:href="#SVGID_87_"  style="overflow:visible;"/>
		</clipPath>
		<path class="st43" d="M-907.5,544.4c-0.1,0.1,0,0.2,0,0.2s0.1,0,0.2,0c0.1,0,0.2,0,0.1-0.1C-907.3,544.4-907.4,544.5-907.5,544.4
			C-907.4,544.3-907.4,544.3-907.5,544.4"/>
	</g>
	<g>
		<defs>
			<rect id="SVGID_89_" x="-939" y="531.7" width="39.9" height="19.3"/>
		</defs>
		<clipPath id="SVGID_90_">
			<use xlink:href="#SVGID_89_"  style="overflow:visible;"/>
		</clipPath>
		<path class="st44" d="M-906.9,544.5c-0.1,0-0.2,0.1-0.1,0.1c0.1,0.1,0.1,0.1,0.2,0.1c0.1,0,0.3,0.1,0.3,0s-0.1-0.2-0.2-0.2
			C-906.7,544.5-906.9,544.5-906.9,544.5"/>
	</g>
	<g>
		<defs>
			<rect id="SVGID_91_" x="-939" y="531.7" width="39.9" height="19.3"/>
		</defs>
		<clipPath id="SVGID_92_">
			<use xlink:href="#SVGID_91_"  style="overflow:visible;"/>
		</clipPath>
		<path class="st45" d="M-906,544.8c0,0.1,0.1,0.1,0.2,0H-906"/>
	</g>
	<g>
		<defs>
			<rect id="SVGID_93_" x="-939" y="531.7" width="39.9" height="19.3"/>
		</defs>
		<clipPath id="SVGID_94_">
			<use xlink:href="#SVGID_93_"  style="overflow:visible;"/>
		</clipPath>
		<path class="st46" d="M-905.5,544.9c0,0.1,0.2-0.1,0.2-0.1s0.2,0,0.2-0.1s-0.2-0.2-0.2-0.1C-905.4,544.8-905.5,544.8-905.5,544.9"
			/>
	</g>
	<g>
		<defs>
			<rect id="SVGID_95_" x="-939" y="531.7" width="39.9" height="19.3"/>
		</defs>
		<clipPath id="SVGID_96_">
			<use xlink:href="#SVGID_95_"  style="overflow:visible;"/>
		</clipPath>
		<path class="st47" d="M-905.9,543.7c-0.1,0-0.1,0-0.1,0.2c0,0.1-0.1,0.2,0,0.2c0.1,0.1,0.2-0.2,0.3-0.1c0,0.1,0,0.1,0.1,0.2
			c0.1,0.1,0.2,0.1,0.2,0.1s0-0.3-0.1-0.3c-0.1-0.1-0.2-0.1,0-0.1c0.1,0,0.2,0,0.2-0.1c0-0.1-0.2,0-0.3,0
			C-905.8,543.7-905.9,543.7-905.9,543.7"/>
	</g>
	<g>
		<defs>
			<rect id="SVGID_97_" x="-939" y="531.7" width="39.9" height="19.3"/>
		</defs>
		<clipPath id="SVGID_98_">
			<use xlink:href="#SVGID_97_"  style="overflow:visible;"/>
		</clipPath>
		<path class="st48" d="M-905.8,543.4C-905.9,543.5-905.8,543.6-905.8,543.4c0.2,0.1,0.4,0.1,0.5,0.1l0.1-0.1l-0.3,0.1
			C-905.7,543.5-905.8,543.4-905.8,543.4"/>
	</g>
	<g>
		<defs>
			<rect id="SVGID_99_" x="-939" y="531.7" width="39.9" height="19.3"/>
		</defs>
		<clipPath id="SVGID_100_">
			<use xlink:href="#SVGID_99_"  style="overflow:visible;"/>
		</clipPath>
		<path class="st49" d="M-904.9,543.3c-0.1-0.1-0.2,0.4-0.1,0.4S-904.8,543.3-904.9,543.3"/>
	</g>
	<g>
		<defs>
			<rect id="SVGID_101_" x="-939" y="531.7" width="39.9" height="19.3"/>
		</defs>
		<clipPath id="SVGID_102_">
			<use xlink:href="#SVGID_101_"  style="overflow:visible;"/>
		</clipPath>
		<path class="st50" d="M-906.2,542.7c0-0.1-0.2,0-0.2,0.1c0,0.1,0.1,0.1-0.1,0.1s-0.2,0.2-0.2,0.2s-0.1,0-0.2,0.1
			c-0.1,0-0.1,0.1-0.1,0.2c0,0.1-0.2-0.1-0.2-0.1s0,0.3,0.1,0.4c0.1,0.2,0.2,0.3,0.3,0.3c0,0,0.1,0,0.2,0c0.1,0,0.3,0,0.3-0.1
			c0-0.1,0-0.3,0.1-0.4c0.1-0.1,0.2-0.2,0.1-0.3c0-0.1-0.1-0.2-0.1-0.3c0.1-0.1,0.1-0.1,0.1-0.1C-906,542.8-906.2,543.1-906.2,542.7
			"/>
	</g>
	<g>
		<defs>
			<rect id="SVGID_103_" x="-939" y="531.7" width="39.9" height="19.3"/>
		</defs>
		<clipPath id="SVGID_104_">
			<use xlink:href="#SVGID_103_"  style="overflow:visible;"/>
		</clipPath>
		<path class="st51" d="M-905.7,541.1c-0.1,0,0,0.1-0.1,0.2c-0.1,0.1-0.2,0.1-0.1,0.2c0.1,0.1,0.3,0.2,0.2,0.3
			c0,0.1-0.2,0.2-0.2,0.3c0,0.1,0.2-0.2,0.3-0.3c0.1-0.1,0.2,0,0.2-0.1v-0.1c0,0-0.1,0-0.2-0.1c-0.1,0-0.2,0.1-0.1-0.1
			c0-0.2,0.2-0.1,0.2-0.3C-905.6,541.1-905.7,541.1-905.7,541.1"/>
	</g>
	<g>
		<defs>
			<rect id="SVGID_105_" x="-939" y="531.7" width="39.9" height="19.3"/>
		</defs>
		<clipPath id="SVGID_106_">
			<use xlink:href="#SVGID_105_"  style="overflow:visible;"/>
		</clipPath>
		<path class="st52" d="M-905.6,542.1c0,0-0.1,0.2,0,0.2c0.1,0,0.3,0,0.2,0C-905.4,542.2-905.5,542-905.6,542.1"/>
	</g>
	<g>
		<defs>
			<rect id="SVGID_107_" x="-939" y="531.7" width="39.9" height="19.3"/>
		</defs>
		<clipPath id="SVGID_108_">
			<use xlink:href="#SVGID_107_"  style="overflow:visible;"/>
		</clipPath>
		<path class="st53" d="M-905.3,541.9c0,0-0.2,0.2,0,0.2S-905.2,541.9-905.3,541.9"/>
	</g>
	<g>
		<defs>
			<rect id="SVGID_109_" x="-939" y="531.7" width="39.9" height="19.3"/>
		</defs>
		<clipPath id="SVGID_110_">
			<use xlink:href="#SVGID_109_"  style="overflow:visible;"/>
		</clipPath>
		<path class="st54" d="M-905.3,542.3c-0.1,0.2-0.1,0.2-0.2,0.1c-0.1-0.1-0.2,0.1-0.2,0.2c0,0.1,0.2,0,0.3,0.1c0,0.1,0,0.1,0.1,0.1
			c0.1,0,0.2-0.2,0.2-0.3C-905.2,542.4-905.3,542.3-905.3,542.3"/>
	</g>
	<g>
		<defs>
			<rect id="SVGID_111_" x="-939" y="531.7" width="39.9" height="19.3"/>
		</defs>
		<clipPath id="SVGID_112_">
			<use xlink:href="#SVGID_111_"  style="overflow:visible;"/>
		</clipPath>
		<path class="st55" d="M-904.6,543.7C-904.7,543.8-904.7,543.8-904.6,543.7c0.3,0.1,0.3,0.1,0.2,0.2c-0.1,0.1-0.1,0.2-0.1,0.2
			c0.1,0,0.2,0,0.2,0s0,0.1,0.2,0.1c0.2,0,0.2,0.1,0.3,0.2c0.1,0.1,0.2,0.2,0.1,0.2c-0.1,0-0.2,0.1-0.2,0.1c0.1,0,0.2,0,0.2,0
			s0.1,0.2,0.2,0.2s0.2-0.2,0.2-0.3c0-0.1,0.2-0.1,0.3,0c0,0.1,0.1,0.2,0.2,0.3c0.1,0.1,0.2,0.1,0.3,0.1c0-0.1-0.1-0.3-0.1-0.3
			c-0.1,0-0.2-0.2-0.2-0.3c0-0.1-0.1-0.1-0.2-0.2s-0.1-0.2-0.2-0.2c-0.1,0-0.2-0.1-0.3-0.2c-0.2-0.1-0.5-0.1-0.5,0c0,0.1,0,0-0.1,0
			c-0.1,0-0.2,0-0.2-0.1C-904.5,543.6-904.6,543.6-904.6,543.7"/>
	</g>
</g>
</svg>